<?xml version="1.0" encoding="UTF-8"?>
<svg id="logos" xmlns="http://www.w3.org/2000/svg" version="1.1" viewBox="0 0 707.2 388.8">
  <!-- Generator: Adobe Illustrator 30.2.1, SVG Export Plug-In . SVG Version: 2.1.1 Build 1)  -->
  <defs>
    <style>
      .st0 {
        fill: #fff;
      }
    </style>
  </defs>
  <path class="st0" d="M460.2,259.5c-2.2-.4-5-.6-8.4-.6h-36.3v24.2h36.3c3.5,0,6.2-.1,8.4-.6,2.2-.4,4.1-1.5,5.8-3.3,1.7-1.8,2.5-4.6,2.5-8.3s-.8-6.4-2.5-8.1c-1.7-1.8-3.6-2.9-5.8-3.3Z"/>
  <path class="st0" d="M551.4,261.2h0c-3.9-1.4-9-1.9-15.5-1.9h-30.9v47.4h30.9c6.4,0,11.6-.7,15.5-1.9,3.9-1.2,6.9-3.7,8.8-7.2,1.9-3.5,3-8.3,3-14.5s-1-11.2-3-14.6c-2.1-3.5-5-5.8-8.8-7.2Z"/>
  <polygon class="st0" points="100.3 291.9 138.7 291.9 119.5 258.4 100.3 291.9"/>
  <polygon class="st0" points="192.3 46.1 172.9 79.8 211.5 79.8 192.3 46.1"/>
  <path class="st0" d="M697.4,212.2h-192.5c-5.4,0-9.8-4.4-9.8-9.8v-86.5c0-5.4-4.4-9.8-9.8-9.8h-86.5c-5.4,0-9.8-4.4-9.8-9.8V9.8C389,4.4,384.5,0,379.1,0H74.9C72.2,0,69.8,1,67.8,3L2.9,68c-1.8,1.8-2.9,4.3-2.9,6.9v304.1c0,5.4,4.4,9.8,9.8,9.8h622.7c2.6,0,5.1-1.1,6.9-2.9l64.9-64.9c1.8-1.8,2.9-4.3,2.9-6.9v-92.1c0-5.4-4.4-9.8-9.8-9.8ZM440.6,141.4h12.8v70.6h-12.8v-70.6ZM387.2,141.4c12.6,0,22.5,1.9,29.7,5.7,7.2,3.7,10.6,9.4,10.8,16.9h-13c0-2.9-1-5.2-2.9-7-1.9-1.8-5-3-9.3-3.9-4.3-.8-9.8-1.2-16.9-1.2s-11.3.3-14.8,1.1c-3.6.7-6.1,1.7-7.5,3-1.4,1.4-2.1,3.2-2.1,5.2s.7,3.9,2.2,5.1c1.5,1.2,4,2.2,7.7,2.8s9.4,1.2,17.1,1.8c10.8.8,18.8,1.7,24.3,2.5,5.5,1,9.8,2.6,13.1,5.4,3.2,2.6,4.8,6.6,4.8,11.9,0,8-3.5,13.7-10.5,16.7-7,3-16.7,4.7-29.3,4.7s-25.6-1.8-33.1-5.4c-7.6-3.6-11.7-9.7-12.2-18.2h12.8c0,4.6,2.3,7.7,7.2,9.9,4.8,2.2,13.1,3.3,24.9,3.3s16.3-.8,20.6-2.6c4.3-1.8,6.2-4.3,6.2-7.7s-.7-4.3-2.2-5.5c-1.5-1.2-4.1-2.1-8.1-2.6-4-.6-10.4-1.1-19.2-1.7-9.8-.6-17.4-1.5-23.1-2.9s-9.8-3.5-12.6-6.4c-2.6-2.8-4-6.6-4-11.6s3.3-11.9,10.1-14.8c6.8-3,16.4-4.4,29-4.4ZM344.2,35.4h11.5l-6.1,15.7h5.4l-3.6,9.1h3.8l-12,24,1.8-19.1h-5.1l3.8-9h-7.6l8-20.7ZM335.9,171.3v11.2h-59.5v18.6h61.5v11.2h-74.3v-70.6l74.3-.3v11.3h-61.5v18.5h59.5ZM247.2,35.4h12.8v40.9l52.2-40.9h20.4l-40.6,31.8,40.6,39h-18.2l-32.5-30.9-22,17.1v13.8h-12.8V35.4ZM246.1,154.3c3.3,3.9,5.2,8.3,5.8,13.1h-13.1c-1-4.7-3.7-8.3-8.4-10.9-4.7-2.6-10.9-4-18.9-4s-14.2,1.4-18.5,4.1c-4.3,2.8-7.3,5.9-8.8,9.5-1.5,3.7-2.2,7.3-2.2,10.9s.8,7.2,2.5,10.9c1.7,3.7,4.8,6.9,9.4,9.7,4.6,2.8,10.9,4.1,19.1,4.1s10.6-.4,14.5-1.2,8.1-2.2,12.4-4v-10.8h-29v-10.4h41.3v26.1c-7,3.9-13.7,6.6-19.6,8.1-5.9,1.5-12.6,2.3-19.8,2.3s-16.9-1.4-23.5-4.3-11.7-6.9-15.2-12.3c-3.6-5.2-5.2-11.5-5.2-18.6s1.5-13.4,4.8-18.6c3.5-5.2,8.3-9.4,14.8-12.3s14.1-4.3,23.1-4.3,15.1,1.1,21,3.5c5.9,2.3,10.4,5.4,13.7,9.3ZM200.4,35.4l40.9,70.7h-14.6l-8.7-15.3h-51.4l-8.7,15.3h-14.6l40.9-70.7h16.3ZM72.9,35.4h74.3v11.6h-61.5v23.8h55.5v11.5h-55.5v24h-12.8V35.4ZM70.7,141.4h12.8v36c0,4.7.7,8.8,2.1,12.4,1.4,3.6,4.4,6.6,9,9.1,4.6,2.5,11.3,3.7,20.2,3.7s15.6-1.2,20.2-3.7c4.6-2.5,7.6-5.5,9.1-9.1,1.4-3.6,2.2-7.7,2.2-12.3v-36h12.7v36.2c.1,12.3-3.5,21.4-10.5,27.5-7,6.1-18.2,8.8-33.6,8.8s-26.5-2.9-33.6-8.8c-7-5.9-10.6-15.1-10.6-27.5v-36.3ZM153.7,318l-8.7-15.2h-51l-8.7,15.2h-14.6l40.6-70.2h16.2l40.7,70.2h-14.5ZM259.8,318l-25.7-61-27.5,61h-16.7l-29.3-70.2h13.7l24.2,58.8,26.4-58.8h18.9l24.6,58.8,25.7-58.8h13.7l-31.2,70.2h-16.7ZM382.5,318l-8.7-15.2h-51l-8.7,15.2h-14.6l40.6-70.2h16.3l40.6,70.2h-14.5ZM478.7,291.4c1.8,2.2,2.8,5.1,2.8,8.7v17.8h-12.7v-14.8c0-2.5-.3-4.3-.8-5.5-.6-1.2-1.5-2.1-2.9-2.6-1.4-.6-3.5-.7-6.1-.7h-43.4v23.6h-12.7v-70.2h52.5c8.6,0,15.2,1.7,20,5.1,4.8,3.5,7.2,8.8,7.2,16s-3.9,15.2-11.5,18.4c3.2.6,5.8,1.9,7.6,4.1ZM572.2,302.2c-3.2,5.2-7.2,9.1-12.4,11.7-5.2,2.6-11,3.9-17.4,3.9h-50.3v-70.2h50.3c6.4.1,12.2,1.4,17.4,4,5.2,2.6,9.4,6.5,12.4,11.7,3,5.2,4.7,11.7,4.7,19.5s-1.5,14.1-4.7,19.3ZM657.7,313.4c-6.9,3-16.6,4.7-29,4.7s-25.3-1.8-32.9-5.4c-7.6-3.6-11.6-9.5-12-18.1h13.1c0,4.1,2.3,7.5,7.2,9.7,4.8,2.2,13,3.3,24.7,3.3s16.3-.8,20.4-2.5c4.1-1.7,6.2-4.3,6.2-7.6s-.7-4.3-2.2-5.4c-1.5-1.1-4.1-2.1-8.1-2.6-4-.6-10.4-1.1-19.2-1.7-9.7-.6-17.4-1.5-22.9-2.9-5.5-1.4-9.7-3.5-12.4-6.4-2.8-2.9-4-6.6-4-11.5,0-6.9,3.3-11.7,9.9-14.8,6.6-2.9,16.3-4.4,28.9-4.4s22.4,1.9,29.4,5.7c7,3.7,10.6,9.4,10.6,16.7h-13c0-2.9-1-5.2-2.9-6.9-1.9-1.8-5-3-9.3-3.9-4.3-.8-9.8-1.2-16.7-1.2s-11.2.3-14.8,1.1c-3.5.7-5.9,1.7-7.5,3s-2.1,3-2.1,5.2.7,3.9,2.2,5.1c1.5,1.2,4,2.1,7.7,2.8,3.7.7,9.4,1.2,17,1.8,10.6.8,18.6,1.5,24.2,2.5,5.5,1,9.8,2.6,13,5.2,3.2,2.6,4.8,6.5,4.8,11.7,0,8-3.5,13.5-10.5,16.6Z"/>
  <polygon class="st0" points="329 291.9 367.4 291.9 348.2 258.4 329 291.9"/>
</svg>