<?xml version="1.0" encoding="UTF-8"?>
<svg xmlns="http://www.w3.org/2000/svg" xmlns:xlink="http://www.w3.org/1999/xlink" viewBox="0 0 565.88 388.81">
  <defs>
    <style>
      .cls-1 {
        fill: url(#linear-gradient-2);
      }

      .cls-2 {
        fill: #fff;
      }

      .cls-3 {
        fill: url(#linear-gradient-17);
      }

      .cls-4 {
        fill: url(#linear-gradient-15);
      }

      .cls-5 {
        fill: url(#linear-gradient);
        mix-blend-mode: hard-light;
      }

      .cls-6 {
        fill: url(#linear-gradient-18);
      }

      .cls-7 {
        fill: url(#linear-gradient-14);
      }

      .cls-8 {
        fill: url(#linear-gradient-20);
      }

      .cls-9 {
        fill: url(#linear-gradient-6);
      }

      .cls-10 {
        isolation: isolate;
      }

      .cls-11 {
        fill: url(#linear-gradient-11);
      }

      .cls-12 {
        fill: url(#linear-gradient-10);
      }

      .cls-13 {
        fill: url(#linear-gradient-16);
      }

      .cls-14 {
        fill: url(#linear-gradient-21);
      }

      .cls-15 {
        fill: url(#linear-gradient-25);
      }

      .cls-16 {
        fill: url(#linear-gradient-5);
      }

      .cls-17 {
        fill: url(#linear-gradient-7);
      }

      .cls-18 {
        fill: url(#linear-gradient-24);
      }

      .cls-19 {
        fill: url(#linear-gradient-9);
      }

      .cls-20 {
        fill: url(#linear-gradient-22);
      }

      .cls-21 {
        fill: url(#linear-gradient-3);
      }

      .cls-22 {
        fill: url(#linear-gradient-27);
      }

      .cls-23 {
        fill: url(#linear-gradient-23);
      }

      .cls-24 {
        fill: url(#linear-gradient-19);
      }

      .cls-25 {
        fill: url(#linear-gradient-4);
      }

      .cls-26 {
        fill: url(#linear-gradient-8);
      }

      .cls-27 {
        fill: url(#linear-gradient-12);
      }

      .cls-28 {
        fill: url(#linear-gradient-13);
      }

      .cls-29 {
        fill: url(#linear-gradient-26);
      }
    </style>
    <linearGradient id="linear-gradient" x1="282.94" y1="388.81" x2="282.94" y2="0" gradientUnits="userSpaceOnUse">
      <stop offset="0" stop-color="#2f58ff"/>
      <stop offset=".5" stop-color="#000"/>
      <stop offset=".52" stop-color="#200707"/>
      <stop offset=".55" stop-color="#4d1212"/>
      <stop offset=".58" stop-color="#761c1c"/>
      <stop offset=".61" stop-color="#992525"/>
      <stop offset=".65" stop-color="#b72c2c"/>
      <stop offset=".69" stop-color="#cf3232"/>
      <stop offset=".73" stop-color="#e23737"/>
      <stop offset=".79" stop-color="#ef3a3a"/>
      <stop offset=".86" stop-color="#f63c3c"/>
      <stop offset="1" stop-color="#f93d3d"/>
    </linearGradient>
    <linearGradient id="linear-gradient-2" x1="330.69" y1="237.9" x2="381.37" y2="98.67" gradientUnits="userSpaceOnUse">
      <stop offset="0" stop-color="#f93d3d"/>
      <stop offset=".32" stop-color="#f93f3f"/>
      <stop offset=".48" stop-color="#f94646"/>
      <stop offset=".59" stop-color="#f95353"/>
      <stop offset=".69" stop-color="#fa6565"/>
      <stop offset=".77" stop-color="#fa7d7d"/>
      <stop offset=".81" stop-color="#fb8b8b"/>
    </linearGradient>
    <linearGradient id="linear-gradient-3" x1="349.18" y1="194.71" x2="320.53" y2="115.99" gradientUnits="userSpaceOnUse">
      <stop offset="0" stop-color="#fc5656"/>
      <stop offset=".1" stop-color="#fa4d4d"/>
      <stop offset=".3" stop-color="#f94141"/>
      <stop offset=".5" stop-color="#f93d3d"/>
      <stop offset="1" stop-color="#b22c1b"/>
    </linearGradient>
    <linearGradient id="linear-gradient-4" x1="466.03" y1="177.92" x2="428.14" y2="73.83" gradientUnits="userSpaceOnUse">
      <stop offset="0" stop-color="#f93d3d"/>
      <stop offset=".24" stop-color="#f93f3f"/>
      <stop offset=".36" stop-color="#f94646"/>
      <stop offset=".44" stop-color="#f95353"/>
      <stop offset=".51" stop-color="#fa6565"/>
      <stop offset=".58" stop-color="#fa7d7d"/>
      <stop offset=".61" stop-color="#fb8b8b"/>
    </linearGradient>
    <linearGradient id="linear-gradient-5" x1="428.74" y1="66.85" x2="459.04" y2="179.94" gradientUnits="userSpaceOnUse">
      <stop offset="0" stop-color="#b22c1b"/>
      <stop offset=".5" stop-color="#f93d3d"/>
      <stop offset=".7" stop-color="#f94242"/>
      <stop offset=".94" stop-color="#fb5151"/>
      <stop offset="1" stop-color="#fc5656"/>
    </linearGradient>
    <linearGradient id="linear-gradient-6" x1="229.03" y1="110.66" x2="195.68" y2="202.27" gradientUnits="userSpaceOnUse">
      <stop offset=".19" stop-color="#fb8b8b"/>
      <stop offset=".23" stop-color="#fa7d7d"/>
      <stop offset=".31" stop-color="#fa6565"/>
      <stop offset=".41" stop-color="#f95353"/>
      <stop offset=".52" stop-color="#f94646"/>
      <stop offset=".68" stop-color="#f93f3f"/>
      <stop offset="1" stop-color="#f93d3d"/>
    </linearGradient>
    <linearGradient id="linear-gradient-7" x1="225.53" y1="114.59" x2="199.91" y2="198.4" gradientUnits="userSpaceOnUse">
      <stop offset="0" stop-color="#b22c1b"/>
      <stop offset=".5" stop-color="#f93d3d"/>
      <stop offset=".7" stop-color="#f94141"/>
      <stop offset=".93" stop-color="#fb5050"/>
      <stop offset="1" stop-color="#fc5656"/>
    </linearGradient>
    <linearGradient id="linear-gradient-8" x1="126.7" y1="69.8" x2="88.87" y2="173.75" gradientUnits="userSpaceOnUse">
      <stop offset=".17" stop-color="#fb8b8b"/>
      <stop offset=".21" stop-color="#fa7d7d"/>
      <stop offset=".3" stop-color="#fa6565"/>
      <stop offset=".39" stop-color="#f95353"/>
      <stop offset=".51" stop-color="#f94646"/>
      <stop offset=".67" stop-color="#f93f3f"/>
      <stop offset="1" stop-color="#f93d3d"/>
    </linearGradient>
    <linearGradient id="linear-gradient-9" x1="102.06" y1="170.95" x2="117.84" y2="81.44" gradientUnits="userSpaceOnUse">
      <stop offset="0" stop-color="#fc5656"/>
      <stop offset=".01" stop-color="#fb5555"/>
      <stop offset=".29" stop-color="#f94343"/>
      <stop offset=".5" stop-color="#f93d3d"/>
      <stop offset="1" stop-color="#b22c1b"/>
    </linearGradient>
    <linearGradient id="linear-gradient-10" x1="100.53" y1="368.99" x2="100.53" y2="193.47" gradientUnits="userSpaceOnUse">
      <stop offset=".33" stop-color="#acbcff"/>
      <stop offset=".38" stop-color="#8ca2ff"/>
      <stop offset=".44" stop-color="#6f8bff"/>
      <stop offset=".5" stop-color="#5778ff"/>
      <stop offset=".57" stop-color="#4569ff"/>
      <stop offset=".65" stop-color="#385fff"/>
      <stop offset=".76" stop-color="#3159ff"/>
      <stop offset="1" stop-color="#2f58ff"/>
    </linearGradient>
    <linearGradient id="linear-gradient-11" x1="112.78" y1="350.49" x2="83.49" y2="199.78" gradientUnits="userSpaceOnUse">
      <stop offset="0" stop-color="#233e82"/>
      <stop offset=".5" stop-color="#2f58ff"/>
      <stop offset="1" stop-color="#6991e5"/>
    </linearGradient>
    <linearGradient id="linear-gradient-12" x1="282.94" y1="306.06" x2="282.94" y2="228.17" gradientUnits="userSpaceOnUse">
      <stop offset="0" stop-color="#acbcff"/>
      <stop offset=".07" stop-color="#8ca2ff"/>
      <stop offset=".16" stop-color="#6f8bff"/>
      <stop offset=".25" stop-color="#5778ff"/>
      <stop offset=".35" stop-color="#4569ff"/>
      <stop offset=".48" stop-color="#385fff"/>
      <stop offset=".64" stop-color="#3159ff"/>
      <stop offset="1" stop-color="#2f58ff"/>
    </linearGradient>
    <linearGradient id="linear-gradient-13" x1="282.94" y1="305.1" x2="282.94" y2="229.35" xlink:href="#linear-gradient-11"/>
    <linearGradient id="linear-gradient-14" x1="188.62" y1="339.67" x2="210.57" y2="215.19" gradientUnits="userSpaceOnUse">
      <stop offset=".21" stop-color="#acbcff"/>
      <stop offset=".26" stop-color="#8ca2ff"/>
      <stop offset=".33" stop-color="#6f8bff"/>
      <stop offset=".4" stop-color="#5778ff"/>
      <stop offset=".49" stop-color="#4569ff"/>
      <stop offset=".59" stop-color="#385fff"/>
      <stop offset=".72" stop-color="#3159ff"/>
      <stop offset="1" stop-color="#2f58ff"/>
    </linearGradient>
    <linearGradient id="linear-gradient-15" x1="205.54" y1="322.81" x2="187.95" y2="211.73" xlink:href="#linear-gradient-11"/>
    <linearGradient id="linear-gradient-16" x1="368.95" y1="332.94" x2="368.95" y2="210.82" xlink:href="#linear-gradient-12"/>
    <linearGradient id="linear-gradient-17" x1="361.28" y1="321.66" x2="380.66" y2="211.74" xlink:href="#linear-gradient-11"/>
    <linearGradient id="linear-gradient-18" x1="465.92" y1="368.99" x2="465.92" y2="193.32" gradientUnits="userSpaceOnUse">
      <stop offset="0" stop-color="#acbcff"/>
      <stop offset=".2" stop-color="#9db0ff"/>
      <stop offset=".24" stop-color="#8ca2ff"/>
      <stop offset=".31" stop-color="#6f8bff"/>
      <stop offset=".38" stop-color="#5778ff"/>
      <stop offset=".47" stop-color="#4569ff"/>
      <stop offset=".57" stop-color="#385fff"/>
      <stop offset=".71" stop-color="#3159ff"/>
      <stop offset="1" stop-color="#2f58ff"/>
    </linearGradient>
    <linearGradient id="linear-gradient-19" x1="454.41" y1="352.29" x2="481.44" y2="199" xlink:href="#linear-gradient-11"/>
    <linearGradient id="linear-gradient-20" x1="283.26" y1="156.79" x2="283.26" y2="121.16" gradientUnits="userSpaceOnUse">
      <stop offset="0" stop-color="#fccb73"/>
      <stop offset="0" stop-color="#fbca72"/>
      <stop offset=".09" stop-color="#fbc056"/>
      <stop offset=".19" stop-color="#fab73e"/>
      <stop offset=".3" stop-color="#fab12c"/>
      <stop offset=".44" stop-color="#faac1f"/>
      <stop offset=".62" stop-color="#faa918"/>
      <stop offset="1" stop-color="#faa916"/>
    </linearGradient>
    <linearGradient id="linear-gradient-21" x1="283.26" y1="155.74" x2="283.26" y2="122.9" gradientUnits="userSpaceOnUse">
      <stop offset="0" stop-color="#ba6d11"/>
      <stop offset=".11" stop-color="#cc7e12"/>
      <stop offset=".26" stop-color="#e09114"/>
      <stop offset=".43" stop-color="#ef9e15"/>
      <stop offset=".65" stop-color="#f7a615"/>
      <stop offset="1" stop-color="#faa916"/>
    </linearGradient>
    <linearGradient id="linear-gradient-22" x1="283.26" y1="184.54" x2="283.26" y2="154" xlink:href="#linear-gradient-20"/>
    <linearGradient id="linear-gradient-23" x1="283.26" y1="183.39" x2="283.26" y2="155.86" xlink:href="#linear-gradient-21"/>
    <linearGradient id="linear-gradient-24" x1="283.26" y1="216.23" x2="283.26" y2="184.18" xlink:href="#linear-gradient-20"/>
    <linearGradient id="linear-gradient-25" x1="283.26" y1="213.57" x2="283.26" y2="186.83" gradientUnits="userSpaceOnUse">
      <stop offset=".09" stop-color="#ba6d11"/>
      <stop offset=".19" stop-color="#cc7e12"/>
      <stop offset=".33" stop-color="#e09114"/>
      <stop offset=".49" stop-color="#ef9e15"/>
      <stop offset=".68" stop-color="#f7a615"/>
      <stop offset="1" stop-color="#faa916"/>
    </linearGradient>
    <linearGradient id="linear-gradient-26" x1="174.27" y1="199.15" x2="174.27" y2="180.92" xlink:href="#linear-gradient-20"/>
    <linearGradient id="linear-gradient-27" x1="175" y1="197.78" x2="175" y2="183.66" xlink:href="#linear-gradient-21"/>
  </defs>
  <g class="cls-10">
    <g id="logos">
      <g>
        <polygon class="cls-5" points="320.28 317.58 245.61 317.58 0 388.81 99.74 185.62 30.39 20.45 83.23 41.68 65.71 0 282.93 86.68 500.14 0 482.61 41.69 535.49 20.45 466.14 185.62 565.88 388.81 320.28 317.58"/>
        <polygon points="465.28 185.64 533.98 22.02 481.05 43.28 498.6 1.54 282.93 87.6 68.32 1.96 67.26 1.54 84.8 43.27 31.9 22.02 100.61 185.64 1.52 387.49 245.43 316.75 320.45 316.75 564.36 387.49 465.28 185.64"/>
        <g>
          <polygon class="cls-1" points="352.75 171.51 377.62 97.31 327.43 117.51 287.06 222.02 393.72 196.58 408.53 159.81 352.75 171.51"/>
          <polygon class="cls-21" points="328.17 118.24 376.05 98.98 351.31 172.79 406.97 161.12 393.02 195.76 288.61 220.66 328.17 118.24"/>
          <path class="cls-25" d="m387.42,93.7l-23.08,67.17,47.02-8.95,5.57-13.99,9.73-1.74-21.71,57.75,49.07-11.67,58.42-139.15-125.03,50.56Zm43.13,29.02l-8.41,1.53,10.21-28.34,8.31-3.05-10.11,29.87Z"/>
          <path class="cls-16" d="m428.15,134.96l-11.92,2.12-5.57,14-44.88,8.54,22.4-65.2,122.49-49.54-57.34,136.58-46.84,11.14,21.67-57.64Zm3.45-39.8l-10.93,30.33,10.6-1.93,10.94-32.3-10.61,3.9Z"/>
          <path class="cls-9" d="m228.54,176.66l13.79,36.03,36.5,9.18-38.69-103.72-90.82-36.5,44.28,119.87,38.52,9.14-13.05-36.31,9.29,1.82.19.5Zm-14.84-16.71l-12.48-36.56,7.45,2.65,13.34,35.14-8.31-1.23Z"/>
          <path class="cls-17" d="m243.04,211.88l-13.99-36.56-11.47-2.24,13.02,36.23-36.3-8.61-43.35-117.36,88.42,35.54,37.9,101.62-34.24-8.62Zm-30.06-51.07l10.51,1.56-14.08-37.08-9.74-3.46,13.31,38.99Z"/>
          <path class="cls-26" d="m170.77,162.3l-20.46-57.53c-6-16.88-18.98-30.38-35.6-37.05l-61.28-24.59,58.34,138.96,33.97,8.1c7.73,1.84,15.5-.59,20.81-6.5,5.3-5.91,6.88-13.9,4.22-21.39Zm-40.76-16.89l-1.79-.27-15.9-43.83,1.42.51c4.11,1.46,7.4,4.63,9.01,8.69l11.66,29.34c1.16,2.93-1.28,6.02-4.4,5.56Z"/>
          <path class="cls-19" d="m150.82,189.83c-1.62,0-3.25-.19-4.86-.58l-33.5-7.99L55.2,44.88l59.15,23.73c16.37,6.57,29.15,19.86,35.06,36.48l20.46,57.53c2.54,7.15,1.04,14.78-4.03,20.43-3.93,4.37-9.26,6.78-15.01,6.78h0Zm-23.3-43.82l2.35.35c.26.04.51.06.76.06,1.66,0,3.22-.83,4.16-2.22.95-1.4,1.14-3.11.51-4.69l-11.66-29.34c-1.71-4.31-5.2-7.68-9.58-9.23l-3.34-1.19,16.79,46.27Z"/>
        </g>
        <g>
          <polygon class="cls-12" points="151.99 204.06 134.49 212 140.08 200.63 109.77 193.47 23.61 368.99 85.96 350.91 102.3 310.12 104.76 345.46 136.78 336.1 165.55 249.04 142.98 246.8 169.44 232.86 177.45 209.59 151.99 204.06"/>
          <polygon class="cls-11" points="110.29 194.57 138.69 201.29 132.44 213.98 152.1 205.07 176.19 210.3 168.66 232.19 139.71 247.43 164.26 249.88 136.03 335.32 105.63 344.2 103.26 310.05 101.41 309.76 85.24 350.12 25.42 367.47 110.29 194.57"/>
          <path class="cls-27" d="m313.17,228.17l-30.23,7.19-30.23-7.19-10.62,77.89h81.7l-10.62-77.89Zm-30.23,57.91h-3.58l.93-32.41h5.29l.93,32.41h-3.58Z"/>
          <path class="cls-28" d="m243.19,305.1l10.33-75.75,29.42,7,29.42-7,10.33,75.75h-79.5Zm35.19-18.06h9.13l-.99-34.32h-7.15l-.99,34.32Z"/>
          <polygon class="cls-7" points="222.37 219.72 214.32 251.32 206.34 250.91 214.93 217.97 185.79 210.82 149.83 332.83 190.56 320.87 200.63 276.81 209.24 276.28 200.79 317.66 234.21 307.91 247.01 225.71 222.37 219.72"/>
          <polygon class="cls-4" points="186.46 211.97 213.76 218.67 205.11 251.81 215.06 252.32 223.07 220.88 245.93 226.43 233.36 307.16 202.05 316.3 210.43 275.24 199.86 275.9 189.75 320.11 151.25 331.41 186.46 211.97"/>
          <polygon class="cls-13" points="382.15 322.45 418.71 332.94 382.58 210.82 354.72 217.45 367.63 257.97 340.54 220.9 319.19 225.94 331.75 308 366.49 317.91 360.43 289.47 382.15 322.45"/>
          <polygon class="cls-3" points="382.76 321.62 361.23 288.95 359.49 289.67 365.22 316.55 332.61 307.25 320.27 226.67 340.14 221.98 366.86 258.54 368.55 257.68 355.95 218.15 381.92 211.96 417.29 331.54 382.76 321.62"/>
          <path class="cls-6" d="m489.16,353.54l53.12,15.45-86.23-175.67-66.48,15.94,39.13,126.84,47.22,13.4-19.76-51.24,9.83.24,23.17,55.05Zm-39.66-70.74l-20.37-54.16,6.59-1.65,22.98,55.81h-9.2Z"/>
          <path class="cls-24" d="m489.87,352.75l-23.24-55.2-11.88-.29,19.58,50.79-44.87-12.73-38.68-125.36,64.74-15.52,84.94,173.03-50.59-14.72Zm-62.01-124.77l20.98,55.78h11.29l-23.84-57.9-8.44,2.12Z"/>
        </g>
        <g>
          <polygon class="cls-8" points="258.55 145.97 283.26 156.79 307.96 145.97 318.16 121.16 283.26 135.21 248.36 121.16 258.55 145.97"/>
          <polygon class="cls-14" points="259.29 145.24 250.11 122.9 283.26 136.25 316.41 122.9 307.23 145.24 283.26 155.74 259.29 145.24"/>
          <polygon class="cls-20" points="268.51 174.89 283.26 184.54 298.01 174.89 305.72 154 283.26 164.56 260.8 154 268.51 174.89"/>
          <polygon class="cls-23" points="269.3 174.26 262.51 155.86 283.26 165.61 304.01 155.86 297.22 174.26 283.26 183.39 269.3 174.26"/>
          <polygon class="cls-18" points="283.26 216.23 295.62 184.18 283.26 193.07 270.89 184.18 283.26 216.23"/>
          <polygon class="cls-15" points="272.95 186.83 283.26 194.26 293.57 186.83 283.26 213.57 272.95 186.83"/>
          <path class="cls-29" d="m164.55,194.4l19.44,4.76-7.07-18.23c-1.22,4.03-4.4,10.78-12.36,13.47Z"/>
          <path class="cls-22" d="m167.58,194.15c5.14-2.65,7.9-7.02,9.36-10.5l5.48,14.13-14.85-3.63Z"/>
        </g>
        <g>
          <g>
            <path class="cls-2" d="m116.28,47.29l-3.01-1.22-1.81-3.89-10.61-4.29-1.81,2.43-3.03-1.22,8.45-11.18,3.36,1.36,8.45,18.01Zm-10.13-16.49l-3.99,5.34,7.97,3.22-3.99-8.57Z"/>
            <path class="cls-2" d="m133.87,39.8v2.37l-12.71-5.13v4.9l11.46,4.63v2.37l-11.46-4.63v4.96l-2.66-1.07v-14.6l15.36,6.21Z"/>
            <path class="cls-2" d="m151.93,56.17c.37.61.56,1.28.56,2.03v3.72l-2.64-1.07v-3.07c0-.51-.05-.92-.17-1.22-.11-.3-.31-.56-.59-.78s-.71-.44-1.28-.67l-9.03-3.65v4.92l-2.66-1.07v-14.6l10.9,4.4c1.79.72,3.17,1.64,4.16,2.75.99,1.11,1.49,2.42,1.49,3.93,0,1.88-.8,2.83-2.39,2.86.72.4,1.27.91,1.64,1.51Zm-13.14-12.04v5l7.56,3.05c.71.29,1.29.48,1.75.58.46.1.87.04,1.21-.18.35-.23.52-.73.52-1.5s-.17-1.39-.52-1.9c-.35-.51-.75-.89-1.21-1.16-.46-.27-1.05-.55-1.75-.83l-7.56-3.05Z"/>
            <path class="cls-2" d="m155.76,48.64l2.66,1.07v14.6l-2.66-1.07v-14.6Z"/>
            <path class="cls-2" d="m163.48,53.38c1.58-.72,3.91-.45,7,.79,1.79.72,3.31,1.59,4.59,2.6,1.27,1.01,2.26,2.09,2.96,3.22.7,1.13,1.12,2.28,1.28,3.43l-2.86-1.16c-.19-1.13-.8-2.19-1.82-3.18-1.02-.99-2.4-1.84-4.14-2.54-4.33-1.75-6.5-.85-6.5,2.71,0,1.83.56,3.4,1.68,4.73,1.12,1.32,2.73,2.41,4.82,3.25,1.73.7,3.1.96,4.12.77,1.02-.18,1.63-.76,1.84-1.73l2.89,1.17c-.15,1.03-.58,1.84-1.29,2.42-.71.58-1.7.86-2.97.85-1.27-.02-2.8-.38-4.59-1.11-3.09-1.25-5.42-2.87-7-4.87-1.58-2-2.37-4.21-2.37-6.63s.79-3.99,2.37-4.71Z"/>
            <path class="cls-2" d="m200.55,81.34l-3.01-1.22-1.81-3.89-10.61-4.29-1.81,2.43-3.03-1.22,8.45-11.18,3.36,1.36,8.45,18.01Zm-10.13-16.49l-3.99,5.34,7.97,3.22-3.99-8.57Z"/>
            <path class="cls-2" d="m218.29,85.97v-12.06l2.66,1.07v14.6l-3.8-1.54-11.71-16.79v12.06l-2.66-1.07v-14.6l3.8,1.53,11.71,16.79Z"/>
            <path class="cls-2" d="m231.63,82.52c.74-.86,1.81-1.33,3.22-1.39,1.4-.06,3.08.3,5.04,1.09,1.77.72,3.3,1.58,4.58,2.6,1.28,1.02,2.28,2.09,2.99,3.22.71,1.13,1.14,2.26,1.28,3.38l-2.87-1.16c-.21-1.11-.82-2.16-1.84-3.14-1.02-.99-2.4-1.83-4.14-2.53s-3.1-.95-4.06-.75c-.96.21-1.61.64-1.94,1.31-.33.67-.5,1.4-.5,2.19s.18,1.64.55,2.6c.37.96,1.05,1.94,2.04,2.93,1,1,2.38,1.85,4.15,2.57,1.26.51,2.32.85,3.18,1.02.86.17,1.76.25,2.72.22v-2.37l-6.33-2.56v-2.2l9.03,3.65v5.71c-1.55.22-2.98.24-4.29.05s-2.75-.59-4.33-1.23c-1.97-.79-3.67-1.8-5.12-3.01-1.45-1.21-2.55-2.55-3.32-4.02-.77-1.47-1.15-2.98-1.15-4.55s.37-2.78,1.11-3.64Z"/>
            <path class="cls-2" d="m270.69,109.68l-3.01-1.22-1.81-3.89-10.61-4.29-1.81,2.43-3.03-1.22,8.45-11.18,3.36,1.36,8.45,18.01Zm-10.13-16.49l-3.99,5.34,7.97,3.22-3.99-8.57Z"/>
          </g>
          <path class="cls-2" d="m293.46,95.19v14.76l-2.48,1.11v-12.49l-6.91,15.82h-2.27l-6.91-15.82v12.49l-2.48-1.11v-14.76l3.9,1.11,6.64,15.24,6.62-15.24,3.9-1.11Z"/>
          <g>
            <path class="cls-2" d="m296.18,94.19l2.67-1.08v14.67l-2.67,1.08v-14.67Z"/>
            <path class="cls-2" d="m317.6,97.66v-12.12l2.67-1.08v14.67l-3.82,1.54-11.77-7.37v12.12l-2.67,1.08v-14.67l3.82-1.54,11.77,7.37Z"/>
            <path class="cls-2" d="m324.02,86.18c.74-1.47,1.82-2.8,3.23-4.01,1.41-1.2,3.1-2.2,5.06-2.99,1.78-.72,3.31-1.09,4.6-1.11s2.29.25,3.01.81c.72.56,1.14,1.35,1.28,2.36l-2.88,1.16c-.21-.95-.83-1.5-1.85-1.66s-2.41.11-4.16.82c-1.75.71-3.11,1.56-4.08,2.55-.97.99-1.62,1.95-1.95,2.89-.33.94-.5,1.81-.5,2.6s.18,1.5.55,2.17c.37.67,1.05,1.09,2.06,1.29,1,.19,2.39-.07,4.17-.79,1.27-.51,2.33-1.03,3.19-1.55.86-.52,1.77-1.19,2.73-1.99v-2.38l-6.36,2.57v-2.21l9.07-3.67v5.74c-1.56,1.48-2.99,2.66-4.31,3.53-1.31.88-2.76,1.64-4.35,2.28-1.97.8-3.69,1.17-5.14,1.13-1.45-.05-2.57-.49-3.34-1.34s-1.16-2.06-1.16-3.63.37-3.09,1.12-4.56Z"/>
            <path class="cls-2" d="m370.99,78.63l-3.03,1.22-1.81-2.44-10.66,4.31-1.81,3.9-3.05,1.23,8.49-18.1,3.38-1.37,8.49,11.24Zm-10.18-8.34l-4.01,8.61,8.01-3.24-4.01-5.37Z"/>
            <path class="cls-2" d="m389.11,65.76c.38.31.56.84.56,1.59v3.73l-2.65,1.07v-3.09c0-.51-.06-.88-.17-1.09-.11-.21-.31-.31-.59-.3-.29.01-.71.13-1.28.36l-9.07,3.67v4.94l-2.67,1.08v-14.67l10.95-4.43c1.79-.73,3.19-.93,4.18-.62.99.32,1.49,1.23,1.49,2.75,0,1.89-.8,3.49-2.4,4.81.72-.18,1.27-.12,1.65.19Zm-13.21-1.42v5.03l7.59-3.07c.71-.29,1.3-.57,1.76-.84.47-.27.87-.66,1.22-1.17.35-.51.52-1.15.52-1.93s-.17-1.26-.52-1.49c-.35-.23-.76-.29-1.22-.18-.47.1-1.05.3-1.76.59l-7.59,3.07Z"/>
            <path class="cls-2" d="m394.74,55.99c1.59-2,3.93-3.63,7.03-4.88,1.79-.73,3.33-1.1,4.61-1.11,1.28-.02,2.27.26,2.97.83.7.57,1.13,1.38,1.28,2.41l-2.88,1.16c-.19-.98-.8-1.55-1.83-1.72-1.02-.17-2.41.1-4.16.81-4.35,1.76-6.53,4.43-6.53,8,0,1.84.56,2.96,1.69,3.39,1.13.42,2.74.21,4.84-.64,1.74-.7,3.12-1.56,4.14-2.57,1.02-1.01,1.64-2.09,1.85-3.23l2.9-1.17c-.15,1.16-.58,2.32-1.29,3.47-.71,1.16-1.7,2.24-2.98,3.26-1.28,1.02-2.81,1.89-4.61,2.61-3.1,1.25-5.44,1.51-7.03.79s-2.38-2.31-2.38-4.75.79-4.65,2.38-6.66Z"/>
            <path class="cls-2" d="m431.99,53.98l-3.03,1.22-1.81-2.44-10.66,4.31-1.81,3.9-3.05,1.23,8.49-18.1,3.38-1.37,8.49,11.24Zm-10.18-8.34l-4.01,8.61,8.01-3.24-4.01-5.37Z"/>
            <path class="cls-2" d="m448.36,33.52c1.08.1,1.95.57,2.6,1.41.65.84.97,2.06.97,3.68s-.32,3.08-.97,4.44c-.65,1.36-1.51,2.53-2.6,3.51s-2.3,1.74-3.63,2.28l-10.49,4.24v-14.67l10.49-4.24c1.33-.54,2.55-.76,3.63-.65Zm-4.99,13.49c1.33-.54,2.41-1.11,3.22-1.72.81-.61,1.43-1.35,1.85-2.24s.63-1.98.63-3.29-.21-2.26-.63-2.8c-.42-.55-1.03-.8-1.85-.75-.81.05-1.89.35-3.22.89l-6.47,2.61v9.91l6.47-2.61Z"/>
            <path class="cls-2" d="m470.05,23.94v2.34l-12.77,5.16v3.84l12.35-4.99v2.32l-12.35,4.99v3.86l12.77-5.16v2.32l-15.44,6.24v-14.67l15.44-6.24Z"/>
          </g>
        </g>
      </g>
    </g>
  </g>
</svg>