<?xml version="1.0" encoding="UTF-8"?>
<svg id="logos" xmlns="http://www.w3.org/2000/svg" viewBox="0 0 559.98 388.79">
  <defs>
    <style>
      .cls-1 {
        fill: #e1e0de;
      }

      .cls-2 {
        fill: #ed4f24;
      }
    </style>
  </defs>
  <polygon class="cls-1" points="80.64 322.52 38.45 234.54 0 100.77 39.44 118.04 1.98 0 209.48 113.86 313.73 59.6 312.82 142.63 319.41 146.57 348.65 92.01 559.98 2.88 507.9 127.37 540.61 110.09 530.7 231.21 485.6 311.29 311.42 386.52 316.38 331.89 309.09 323.4 273.88 353.45 248.13 347.46 267.86 388.79 80.64 322.52"/>
  <polygon points="25.87 29.06 209.31 129.7 299.5 82.77 298.75 150.5 324.8 166.13 358.64 102.97 533.87 29.06 479.94 157.95 524.6 134.37 517.01 227.03 475.74 300.32 327.46 364.36 330.84 327.28 310.62 303.68 270.17 338.23 223.01 327.28 240.7 364.36 90.74 311.27 51.55 229.56 21.66 125.52 62.09 143.21 25.87 29.06"/>
  <g>
    <g>
      <polygon class="cls-2" points="367.91 119.2 503.58 66.97 452.14 184.91 506.07 153.73 502.16 229.93 358.64 300.32 427.48 147.76 367.91 180.69 367.91 119.2"/>
      <path d="m351.06,308.14l68.5-151.78-55.34,30.58v-70.27l146.26-56.32-50.46,115.74,50.1-28.96-4.37,85.13-154.66,75.85-.02.04Zm84.33-168.97l-69.19,153.32,132.38-64.93,3.44-67.26-57.75,33.38,52.39-120.14-125.09,48.15v52.72l63.82-35.26v.02Z"/>
    </g>
    <g>
      <polygon class="cls-2" points="326.62 180.96 362.86 122.29 362.86 277.85 326.62 266.89 335.7 216.87 321.57 239.94 311.09 223.28 313.99 269.41 272.72 294.7 294.63 160.75 326.62 180.96"/>
      <path d="m267.78,302.03l24.11-147.39,33.57,21.21,41.1-66.56v173.52l-44.13-13.34,6.14-33.88-6.94,11.33-5.95-9.43,2.14,33.92-50.04,30.64v-.02Zm29.59-135.2l-19.71,120.53,32.52-19.91-3.67-58.36,15.03,23.85,21.31-34.82-11.99,66.17,28.32,8.57v-137.61l-31.36,50.8-30.46-19.23h.02Z"/>
    </g>
    <g>
      <polygon class="cls-2" points="51.15 66.97 207.85 144.05 211.64 191.23 181.64 179.85 202.77 302.58 67.77 227.71 48.62 151.84 150.56 214.71 137.07 157.64 79.57 157.11 51.15 66.97"/>
      <path d="m207.71,309.52l-143.13-79.35-21.77-86.23,102.1,62.96-10.77-45.61-57.29-.52-31.82-100.91,166.31,81.82,4.43,55.07-29.39-11.16,21.34,123.93h0Zm-136.76-84.25l126.88,70.35-20.92-121.5,30.56,11.61-3.15-39.29L57.25,74.08l25.04,79.37,57.72.52,16.19,68.54-101.77-62.77,16.54,65.51h-.02Z"/>
    </g>
  </g>
  <path class="cls-1" d="m249.02,152.66l4.43-2.16c0-1.13-.86-1.61-2.04-1.05-1.38.68-2.18,1.77-2.39,3.21m7.97.02c-.02-.12-.02-.29-.02-.43l4.43-2.16c.02.41.21.66.54.8.25.1.68.02,1.24-.25.6-.29,1.57-1.01,1.57-1.71s-.39-.72-2.57-.04c-2.29.74-3.67.8-4.37.21.06.51.12,1.03.12,1.63l-8.92,4.35c.12,1.32.91,1.92,2.37,1.21.74-.37,1.57-1.05,1.96-1.83l3.67-1.79h-.04Zm-18.6,3.5c-1.32.64-1.98,2.1-1.98,3.4,0,1.38.41,2.78,2.1,1.96,1.67-.82,1.91-2.59,1.91-3.93.02-1.36-.64-2.08-2-1.42m-5.17-5.93v-1.13c-.54.54-1.19,1.01-1.83,1.46-1.01.74-1.57,1.26-1.57,2.08,0,.54.6.84,1.46.41,1.05-.51,1.85-1.54,1.92-2.84m52.55-44.56l-56.74,27.68c-2.39,1.17-4.57,3.71-5.52,6.38l-.91,2.59c.58-.37,1.21-.7,1.96-1.07s1.46-.62,2.18-.95v3.36c-.39.14-.78.21-1.19.41-1.19.58-1.57,1.13-1.5,2.24l2.57-1.24v1.71c.31-.45.68-.91,1.11-1.3,1.19-1.13,2.72-2.04,4.16-2.74,5.81-2.84,5.79-.39,5.79,1.94v5c0,.84.06,1.73.45,2.29v-16.5l4.67-2.27v8.11l2.95-4.96,5.27-2.57-4.35,6.73,5.02,5.13-5.6,2.72-2.49-3.21-.84,1.28v3.52l-9.25,4.51c-.12-.27-.19-.74-.18-1.07h-.06c-.99,1.63-2.43,2.66-3.91,3.4-2.33,1.15-4.3.97-4.3-1.59,0-3.85,4.51-5.93,6.88-7.52.64-.43,1.26-.91,1.26-1.69,0-.84-.78-.76-1.52-.39-1.44.7-1.71,1.56-1.73,2.08l-4.33,2.12c.02-.49.12-.93.21-1.34l-1.67.82v9.76l-4.84,2.37v-8.32l-3.62,11.1,7.31-3.56,1.05-.51v6.42c0,1.4.18,2.31,1.52,1.65.8-.39,1.85-1.28,1.85-3.25v-6.42l4.67-2.27v3.3c.66-2.41,2.33-4.74,4.96-6.03,1.34-.66,2.64-.74,3.19.23h.06v-1.52l4.67-2.27v3.85c.86-2.84,3.05-5.66,6.07-7.11,3.29-1.59,5.29-1.34,6.26.49.25-2.9,3.38-5.17,5.73-6.32,2.62-1.28,5.79-2.1,5.93.97l-4.22,2.06c-.02-.37-.25-.6-.54-.64-.27-.12-.66-.04-1.01.14-.66.33-1.4.82-1.4,1.61,0,.35.27.39.54.37.78-.04,2.53-.82,4.08-1.05,1.24-.21,2.37-.08,2.76,1.03v-7.17l4.67-2.27v12.19l-4.67,2.27v-2.84c-.66,2.78-3.48,4.84-6.07,6.1-2.39,1.17-5,1.63-5.81-.08-1.17,2.55-3.42,4.59-5.85,5.77-3.05,1.5-5.54,1.26-6.45-.87v2.16c0,2.43-.64,6.12-6.34,8.9-2.9,1.42-5.95,2.14-6.36-.95l4.61-2.24s.18.19.25.29c.27.27.78.51,1.34.21,1.52-.74,1.83-2.68,1.83-3.67v-1.13h-.06c-.74,1.46-1.87,2.62-3.25,3.29-2.66,1.3-4.24.58-4.88-1.21v4.3l-4.43,2.16v-1.54h-.06c-.87,1.67-2.12,2.92-3.97,3.81-1.52.74-2.95.78-3.69-.21l-4.22,14.5,70.02-34.16v-47.28l-.02-.02Zm-30.21,25.1c0,2.49-.54,4.78-4.33,7.15v-2.04c1.38-.84,1.91-1.92,1.92-3.15l-1.92.93v-4.63l4.33-2.12v3.85Z"/>
  <g>
    <polygon class="cls-2" points="189.11 210.61 291.71 158.86 267.78 302.52 238.41 292.97 247.72 260.88 229.81 257.32 238.41 292.97 207.71 310 189.11 210.61"/>
    <path d="m205.05,315.7l-20.06-107.13,111.56-56.26-25.82,155.05-31.92-10.36-33.75,18.72-.02-.02Zm-11.8-103.05l17.17,91.64,23.76-13.18-9.27-38.51,27.51,5.44-9.45,32.54,21.91,7.11,22.03-132.27-93.64,47.22h0Zm41.52,49.42l3.99,16.54,4.33-14.91-8.32-1.65v.02Z"/>
  </g>
  <g>
    <polygon points="233.22 231.45 244.63 211.31 249 233.95 233.22 231.45"/>
    <path d="m253.61,238.43l-26.24-4.18,18.97-33.46,7.27,37.62v.02Zm-14.58-9.78l5.35.86-1.48-7.66-3.87,6.82v-.02Z"/>
  </g>
</svg>