<?xml version="1.0" encoding="UTF-8"?>
<svg id="Layer_1" data-name="Layer 1" xmlns="http://www.w3.org/2000/svg" viewBox="0 0 1581.01 388.67">
  <defs>
    <style>
      .cls-1 {
        fill: #f9f9f9;
      }
    </style>
  </defs>
  <path class="cls-1" d="M273.95,238.95h36.48c0-9.28-6.96-16.88-16.88-16.88-11.18,0-17.72,5.91-19.62,16.88M339.52,271c-.21-1.05-.21-2.53-.21-3.59h36.48c.21,3.38,1.9,6.33,4.43,8.86,2.11,1.9,5.7,2.95,10.13,2.95,5.06,0,12.87-2.11,12.87-7.8s-3.16-7.38-21.09-10.76c-18.77-3.16-30.15-8.23-36.06-15.82.42,4.22.84,8.86.84,13.92h-73.39c.84,11.39,7.38,19.41,19.41,19.41,6.12,0,12.87-2.32,16.03-7.17h30.58,0ZM186.63,225.24c-10.97,0-16.24,9.28-16.24,20.04,0,11.39,3.37,24.46,17.3,24.46s15.61-13.5,15.61-24.67-5.48-19.83-16.66-19.83M143.83,155.65v-9.28c-4.43,2.32-9.7,3.59-14.98,4.85-8.44,2.11-12.87,4.01-12.87,10.97,0,4.43,5.06,9.28,12.02,9.28,8.65,0,15.19-5.27,15.82-15.82M576.15,0H109.46c-19.83,0-37.54,12.23-45.34,30.36l-7.38,17.72c4.85-.63,9.91-.84,16.03-.84s12.02.63,17.93.84v27.62c-3.16-.42-6.33-1.27-9.7-1.27-9.7,0-12.87,2.95-12.23,12.45h21.09v14.13c2.53-2.53,5.7-4.85,9.07-6.33,9.7-4.43,22.36-5.91,34.16-5.91,47.87,0,47.66,20.04,47.66,39.22v41.12c0,6.75.42,14.55,3.59,20.67V53.78h38.38v66.65l24.04-29.1h43.23l-35.85,37.75,41.33,62.43h-45.97l-20.46-36.27-6.75,7.17v29.1h-76.13c-.84-2.74-1.69-6.75-1.27-9.49h-.42c-8.23,9.28-20.04,12.02-32.26,12.02-19.2,0-35.43-9.28-35.43-30.37,0-31.63,37.11-30.58,56.73-34.16,5.27-.84,10.34-2.53,10.34-8.86,0-6.75-6.33-9.28-12.45-9.28-11.81,0-14.13,5.91-14.34,10.12h-35.43c.21-3.8.84-7.17,1.9-10.12h-13.92v80.14H29.73v-68.32L0,199.93h68.75v52.72c0,11.6,1.27,19.83,12.45,19.83,6.54,0,15.19-3.16,15.19-19.2v-52.94h38.38v27.2c5.48-17.3,19.2-29.73,40.7-29.73,11.18,0,21.73,4.43,26.36,14.77h.42v-12.23h38.17v31.63c6.96-20.04,25.09-34.16,49.77-34.16,26.99,0,43.44,10.13,51.46,29.1,2.11-22.98,27.83-29.1,47.24-29.1,21.52,0,47.66,5.91,48.72,31.63h-34.58c-.21-3.16-2.11-5.91-4.43-7.38-2.32-2.11-5.48-2.95-8.44-2.95-5.48,0-11.6,1.05-11.6,7.8,0,2.95,2.32,4.22,4.43,5.27,6.33,2.74,20.88,3.37,33.53,7.8,10.13,3.16,19.41,8.86,22.56,19.41v-59.05h38.38v100.18h-38.38v-23.4c-5.48,20.25-28.47,25.94-49.77,25.94-19.83,0-41.12-6.54-47.87-24.04-9.49,16.24-28.04,24.04-48.08,24.04-25.09,0-45.55-11.81-52.94-33.11v17.72c0,20.04-5.27,47.87-52.09,47.87-23.83,0-48.93-6.33-52.3-33.32h37.75c.42.84,1.27,2.32,2.11,3.38,2.32,3.38,6.33,7.17,11.18,7.17,12.45,0,14.98-14.77,14.98-22.98v-9.28h-.42c-6.12,8.86-15.4,13.92-26.78,13.92-21.94,0-35.01-12.23-40.07-29.52v35.43h-36.69v-12.66h-.42c-7.17,9.91-17.51,15.19-32.69,15.19-12.45,0-24.25-5.48-30.36-16.45L0,388.67h575.94l.21-388.67ZM327.73,85.2c0,20.46-4.43,37.11-35.64,41.54v-16.88c11.39-1.27,15.61-8.23,15.82-18.14h-15.82v-37.96h35.64v31.42h0Z"/>
  <g>
    <path class="cls-1" d="M889.43,72.09c15.74,7.37,27.93,17.96,36.56,31.8,8.63,13.84,12.95,30.15,12.95,48.93s-4.32,35.1-12.95,48.94c-8.63,13.84-20.82,24.5-36.56,31.99-15.75,7.49-34.15,11.23-55.22,11.23h-162.99v82.64h-22.09V61.05h185.08c21.07,0,39.48,3.68,55.22,11.04ZM828.12,224.42c25.64,0,46.65-5.65,63.03-16.95,16.38-11.29,24.56-29.52,24.56-54.65s-8.19-43.35-24.56-54.65c-16.38-11.29-37.39-16.95-63.03-16.95h-156.9v143.19h156.9Z"/>
    <path class="cls-1" d="M1227.03,222.14c7.24,8.38,10.85,19.3,10.85,32.75v72.74h-22.09v-68.93c0-12.69-3.37-21.96-10.09-27.8-6.73-5.84-16.95-8.76-30.66-8.76h-193.46v105.49h-22.09V61.05h182.8c33,0,57.82,6.28,74.45,18.85,16.62,12.57,24.94,31.8,24.94,57.7,0,34.79-14.98,57.76-44.94,68.93,12.95,2.03,23.04,7.24,30.28,15.61ZM981.59,81.23v120.34h156.9c26.15,0,46.01-4.57,59.6-13.71,13.58-9.14,20.37-25,20.37-47.6s-6.67-37.76-19.99-46.27c-13.33-8.5-33.32-12.76-59.98-12.76h-156.9Z"/>
    <path class="cls-1" d="M1328.33,317.91c-24.5-11.55-43.1-27.99-55.79-49.32-12.7-21.33-19.04-46.21-19.04-74.64s6.34-53.18,19.04-74.26c12.69-21.07,31.29-37.38,55.79-48.93,24.5-11.55,54.14-17.33,88.93-17.33s64.1,5.78,88.73,17.33c24.62,11.56,43.28,27.93,55.98,49.13,12.69,21.2,19.04,45.89,19.04,74.07s-6.35,53.26-19.04,74.45c-12.7,21.2-31.36,37.64-55.98,49.32-24.63,11.68-54.21,17.52-88.73,17.52s-64.43-5.78-88.93-17.33ZM1492.66,300.4c21.07-9.77,37.13-23.74,48.18-41.89,11.04-18.15,16.56-39.66,16.56-64.55s-5.52-46.33-16.56-64.36c-11.05-18.02-27.04-31.86-47.98-41.51-20.95-9.65-46.15-14.47-75.59-14.47s-54.72,4.83-75.79,14.47c-21.08,9.65-37.13,23.49-48.17,41.51-11.05,18.03-16.57,39.48-16.57,64.36s5.52,46.78,16.57,64.93c11.04,18.16,27.1,32.05,48.17,41.7,21.07,9.65,46.33,14.47,75.79,14.47s54.33-4.89,75.4-14.66Z"/>
  </g>
</svg>