<?xml version="1.0" encoding="UTF-8"?>
<svg id="Layer_1" data-name="Layer 1" xmlns="http://www.w3.org/2000/svg" width="570.07996" height="532.44" viewBox="0 0 570.07996 532.44">
  <g id="Layer_1-2" data-name="Layer 1-2">
    <g>
      <polygon points="229.37 130.00999 205.52 130.00999 205.52 49.77 178.13 49.77 179.74001 30.11 255.78999 30.11 255.78999 49.77 229.37 49.77 229.37 130.00999" fill="#fff"/>
      <path d="m335.59,102c0-14.18-43.34-19.49-43.34-42.37,0-15.79,18.53-32.55,60.41998-30.46l1.29001,21c-30-2.1-36.89999.32-36.89999,6.44,0,12.57,43.34,19,43.34,42.7,0,16.44-17.23999,33.36-67.35001,32.07001v-21c31.42001,2.09,42.54001-1.29,42.54001-8.38" fill="#fff"/>
      <polygon points="439.79999 88.76 418.20001 88.76 418.20001 130.00999 394.04001 130.00999 394.04001 30.11 418.20001 30.11 418.20001 70.71 439.79999 70.71 439.79999 30.11 464.13 30.11 464.13 130.00999 439.79999 130.00999 439.79999 88.76" fill="#fff"/>
      <polygon points="546.76001 111.8 569 111.8 567.38 130.00999 501.81 130.00999 501.81 111.8 523.08002 111.8 523.08002 48.32 501.81 48.32 501.81 30.11 568.03003 30.11 568.03003 48.32 546.76001 48.32 546.76001 111.8" fill="#fff"/>
      <polygon points="252.92 160.00999 252.92 259.98999 231.14999 259.98999 232.44 204.19 231.8 204.19 222.28 237.74001 210.83 237.74001 201.32001 204.19 200.67 204.19 201.96001 259.98999 181 259.98999 181 160.00999 201.96001 160.00999 216.8 212.25999 217.44 212.25999 232.12 160.00999 252.92 160.00999" fill="#fff"/>
      <path d="m287.34,213.55c0-36.61,16.12-56.12,41.44-56.12,23.22,0,36,17.25,36,49,0,36.61-16.13,56.12001-41.44,56.12001-23.22,0-36-17.25-36-49m24.51001-5.32001c0,23.54001,5.32001,35,15,35s13.39001-9.67999,13.39001-31.45c0-23.53999-5.32001-35-15-35s-13.38,9.68001-13.38,31.45" fill="#fff"/>
      <polygon points="401.79001 260.48999 401.79001 160.50999 425.64999 160.50999 425.64999 240.82001 467.26001 240.82001 465.32001 260.48999 401.79001 260.48999" fill="#fff"/>
      <path d="m494.94,211.77c0-32.41,14.82999-54,38.85999-54,24.66998,0,36.27997,19,36.27997,50.48,0,32.41-14.83002,54-38.85999,54-24.67001,0-36.28-19-36.28-50.48m21.60001-2.09l30.32001-15.68001c-2.26001-11.13-7.09998-17.91-14.66998-17.91-10.81,0-15.65002,11.28999-15.65002,31.61v1.98001Zm31.92999,2.58v-1.13l-30.15002,15.48c2.26001,10.8,7.09003,17.25,14.51001,17.25,10.81,0,15.64001-11.28,15.64001-31.60001" fill="#fff"/>
      <path d="m177.73,342.66c0-29.67001,15.81-53.22,66.45-54.35001l1.45,22.57999c-38.86-3.06-43.7,9.19-43.7,28.06,0,21.94,7.74001,33.06,27.74001,34-.49001-9.35001-1-23.06-1.13-33.06h21.46001c0,20.48001.16,35.48001.16,48.54999-47.89999,10.64001-72.42-8.87-72.42-45.81" fill="#fff"/>
      <path d="m287,343.47c0-36.61002,16.12-56.13,41.45001-56.13,23.22,0,36,17.26001,36,49,0,36.61002-16.13,56.13-41.45001,56.13-23.22,0-36-17.26001-36-49m24.51001-5.32001c0,23.54001,5.32001,35,15,35s13.39001-9.67001,13.39001-31.45001c0-23.54001-5.32999-35-15-35s-13.39001,9.67001-13.39001,31.45001" fill="#fff"/>
      <polygon points="415.64999 334.26999 414.84 334.26999 415.81 389.92001 394.04001 389.92001 394.04001 289.92001 414.67999 289.92001 442.42001 345.56 443.07001 345.56 442.10001 289.92001 463.87 289.92001 463.87 389.92001 444.67999 389.92001 415.64999 334.26999" fill="#fff"/>
      <path d="m496.29999,342.66c0-29.67001,15.81-53.22,66.45001-54.35001l1.45001,22.57999c-38.87-3.06-43.71002,9.19-43.71002,28.06,0,21.94,7.73999,33.06,27.73999,34-.47998-9.35001-1-23.06-1.13-33.06h21.45001c0,20.48001.16998,35.48001.16998,48.54999-47.90002,10.64001-72.41998-8.87-72.41998-45.81" fill="#fff"/>
      <rect x="56.07" width="18.69" height="18.69" fill="#fff"/>
      <polygon points="93.45 149.52 93.45 112.14 74.76 112.14 74.76 93.45 56.07 93.45 56.07 74.76 37.38 74.76 37.38 56.07 56.07 56.07 56.07 18.69 37.38 18.69 37.38 37.38 18.69 37.38 18.69 93.45 37.38 93.45 37.38 130.83 56.07 130.83 56.07 168.21001 74.76 168.21001 74.76 224.28 56.07 224.28 56.07 242.97 37.38 242.97 37.38 261.67001 18.69 261.67001 18.69 280.35999 0 280.35999 0 336.42999 18.69 336.42999 18.69 373.81 37.38 373.81 37.38 392.5 112.14 392.5 112.14 373.81 93.45 373.81 93.45 336.42999 74.76 336.42999 74.76 317.73999 56.07 317.73999 56.07 280.35999 74.76 280.35999 74.76 261.67001 93.45 261.67001 93.45 242.97 112.14 242.97 112.14 149.52 93.45 149.52" fill="#fff"/>
      <rect x=".61" y="445.45001" width="568.98998" height="4" fill="#fff"/>
      <rect x=".61" y="528.44" width="568.98998" height="4" fill="#fff"/>
      <path d="m47,512.40002h-4.9l-11.61-34.65002-11.59,34.65002h-4.84l-12.65-42,5.71-1.23999,9.67,34,10.91-33.60001h5.83l10.91,33.60001,9.48-33.60001h6l-12.92,42.84Z" fill="#fff"/>
      <path d="m72.53,512.40002v-42.77002h5.82v42.77002h-5.82Z" fill="#fff"/>
      <path d="m110.35,475v37.40002h-5.83v-37.40002h-13.64v-5.32999h32.61l.87,5.32999h-14.01Z" fill="#fff"/>
      <path d="m145.44,512.90002c-4.16609.04797-8.28236-.90909-12-2.79001l.87-5.95001c3.31325,2.26746,7.20703,3.53763,11.22,3.66,4.47,0,7.63-2.35999,7.63-6.51001,0-3.91-1.74001-5.51999-8.19-8.44-8.06-3.64999-11.09-6.32001-11.09-12.45999,0-6.88,5.27-11.28,13-11.28,3.40216-.08502,6.76405.75113,9.73,2.42001l-.92999,5.82999c-2.58093-1.99722-5.73712-3.10892-9-3.17001-4.89999,0-7.07001,2.60999-7.07001,5.76999s1.61,4.82999,8.12,7.81c8.31,3.78,11.16,6.63,11.16,13.07999.11,7.38004-5.45,12.03006-13.45,12.03006Z" fill="#fff"/>
      <path d="m206.75,513.21002c-10.35001,0-16.55-6.57001-16.55-17v-26.58002h5.8v25.85001c0,7.44,3.35001,12.39999,10.72,12.39999s10.92-4.47,10.92-12.22v-26h5.82001v26.28c.03,10.76001-6.35001,17.27002-16.71001,17.27002Z" fill="#fff"/>
      <path d="m267.20001,512.40002l-23.49001-33.29001v33.29001h-5.39999v-42.77002h5.21001l22.69,32.04999v-32.04999h5.39999v42.77002h-4.41Z" fill="#fff"/>
      <path d="m287.23001,512.40002v-42.77002h5.82999v42.77002h-5.82999Z" fill="#fff"/>
      <path d="m327,512.59003h-5.20001l-16.5-42.16,5.82999-1.23999,13.32999,35.59,13.07999-35.14999h6.14001l-16.67996,42.95999Z" fill="#fff"/>
      <path d="m355.60999,512.40002v-42.77002h23.07001v5.37h-17.23999v12.39999h13.39001l.87,5.32999h-14.26001v14.38h17.85999v5.33002l-23.69-.03998Z" fill="#fff"/>
      <path d="m420.89999,511.54001l-5.89001,1.30002-13.07999-18.48001h-4.39999v17.99997h-5.82999v-42.72998h11.64999c8.75,0,14.20001,4.34,14.20001,12.14999,0,6.44-3.78,10.29001-9.35999,11.84l12.70996,17.92001Zm-17.79001-36.76999h-5.57999v14.69h5c5.64001,0,9.23001-2.54001,9.23001-7.37-.04001-4.65002-2.95001-7.32004-8.65002-7.32004v.00003Z" fill="#fff"/>
      <path d="m442.10001,512.90002c-4.16641.05072-8.28333-.90646-12-2.79001l.87-5.95001c3.31323,2.26746,7.20703,3.53763,11.22,3.66,4.45999,0,7.62-2.35999,7.62-6.51001,0-3.91-1.73001-5.51999-8.17999-8.44-8.06-3.64999-11.10001-6.32001-11.10001-12.45999,0-6.88,5.26999-11.28,13-11.28,3.40543-.08582,6.77075.75034,9.73999,2.42001l-.92999,5.82999c-2.58093-1.99722-5.73712-3.10892-9-3.17001-4.89999,0-7.07001,2.60999-7.07001,5.76999s1.60999,4.82999,8.12,7.81c8.31,3.78,11.16,6.63,11.16,13.07999.07001,7.38004-5.44998,12.03006-13.44998,12.03006Z" fill="#fff"/>
      <path d="m469.07001,512.40002v-42.77002h5.82999v42.77002h-5.82999Z" fill="#fff"/>
      <path d="m506.89001,475v37.40002h-5.82001v-37.40002h-13.64001v-5.32999h32.57001l.85999,5.32999h-13.96997Z" fill="#fff"/>
      <path d="m550,495.42001v17.00003h-5.82001v-17l-15.13-25,5.83002-1.23999,12.27002,20.89999,12-20.45999h6.44l-15.59003,25.79996Z" fill="#fff"/>
    </g>
  </g>
</svg>