<svg id="Layer_2" data-name="Layer 2" xmlns="http://www.w3.org/2000/svg" viewBox="0 0 212.6 85.04"><defs><style>.cls-1{fill:#701129;}.cls-2{fill:#503228;}.cls-3{fill:#ae2424;}</style></defs><title>JiweStudios_Final</title><path class="cls-1" d="M50.92,44.81,47.1,33.15,43,21.46,34,7.87l-6.58,3.32L20,21.9l-7.7,10.48,1.58,20.89.52.21L20.9,71.7l11.44.91,9-6.32,4.41-2.36ZM37.26,59.25,33.7,57,28.13,45.45l2.93-15.87,8.54,7.59,8.85,7.9Zm3.43-36.58L47,40.6,31.74,26.5l2.47-13.45ZM29,12.94l2.72-1.19L28.41,28.11,25.33,44.48l-4.25.76-6.71-12.6,7.33-9.91ZM14.88,38.49l4,7.89-2.43,3.53Zm6.12,9,4.73-.39L30.9,57.78,22.38,67.84l-5.84-14.5ZM31.7,70.32l-7.17-.89,8.54-9.64,3.42,2L39.13,65Zm12.34-8-2.85,1.16-1.94-2.7L47.06,50.5Z"/><path class="cls-2" d="M62.36,71.24l1.39-1.66a4.7,4.7,0,0,0,2.93,1.08c.69,0,1-.23,1-.62s-.31-.49-1.54-.77c-1.92-.44-3.4-.94-3.4-2.79s1.39-2.92,3.49-2.92A5.67,5.67,0,0,1,70,64.76l-1.25,1.77a4.47,4.47,0,0,0-2.53-.89c-.61,0-.9.25-.9.58s.31.59,1.57.87c2.07.43,3.36,1,3.36,2.68,0,1.87-1.44,3-3.66,3A6.29,6.29,0,0,1,62.36,71.24Z"/><path class="cls-2" d="M86.41,66H83.79V63.72h7.74V66H88.91v6.64h-2.5Z"/><path class="cls-2" d="M105.36,68.65V63.72h2.51v4.8a1.73,1.73,0,1,0,3.43,0v-4.8h2.51v4.93a4.23,4.23,0,0,1-8.45,0Z"/><path class="cls-2" d="M128.42,63.72h3.31c3.1,0,5.29,1.83,5.29,4.42s-2.19,4.45-5.29,4.45h-3.31Zm3.72,6.59a2.16,2.16,0,1,0,0-4.32h-1.21v4.32Z"/><path class="cls-2" d="M151.29,63.72h2.51v8.87h-2.51Z"/><path class="cls-2" d="M168,68.14a4.84,4.84,0,1,1,4.83,4.6A4.77,4.77,0,0,1,168,68.14Zm7.08,0a2.25,2.25,0,1,0-2.25,2.33A2.31,2.31,0,0,0,175.11,68.14Z"/><path class="cls-2" d="M191.14,71.24l1.39-1.66a4.7,4.7,0,0,0,2.93,1.08c.69,0,1-.23,1-.62s-.31-.49-1.54-.77c-1.92-.44-3.4-.94-3.4-2.79s1.39-2.92,3.49-2.92a5.67,5.67,0,0,1,3.72,1.2l-1.25,1.77a4.47,4.47,0,0,0-2.53-.89c-.61,0-.9.25-.9.58s.31.59,1.57.87c2.07.43,3.36,1,3.36,2.68,0,1.87-1.44,3-3.65,3A6.3,6.3,0,0,1,191.14,71.24Z"/><polygon class="cls-3" points="89.5 42.84 85.2 42.89 81 42.42 76.8 42.72 72.6 42.84 68.56 42.56 68.2 38.97 68.54 35.39 73 34.96 73.07 30.85 68.55 30.57 63.71 30.5 63.64 34.83 64.21 38.97 64.19 43.11 64.04 47.09 68.17 47.37 72.46 47.28 76.75 47.35 81.04 47.26 85.33 47.44 89.62 46.95 93.83 47.17 93.75 42.99 93.8 38.74 93.95 34.48 94.11 30.23 93.82 25.97 93.6 21.71 93.85 17.45 93.89 13.21 89.19 12.97 89.64 17.41 89.55 21.63 89.23 25.85 89.47 30.07 89.08 34.29 89.25 38.52 89.5 42.84"/><polygon class="cls-3" points="78.65 23.04 73.86 22.92 69.03 23.08 64.1 22.89 64.21 27.48 69.02 27.51 73.86 27.44 78.78 27.59 78.65 23.04"/><path class="cls-3" d="M102.14,17.68l3.46-.22,3.53.37v4.11l-.07,4.16-.1,4.16.42,4.16L109,38.58l0,4.05-3.44.19-3.72-.18.38,4.38,4.17.49,4.41-.19,4.42-.1,4.41-.11,4.42,0,4.42.18.2-4.68-3.82,0-3.58.09,0-4.12-.09-4.15.32-4.16-.21-4.16L121.29,22l.12-4,3.48.18,3.5-.41.32-4.61-4.61,0-4.42.55-4.41-.6-4.42.29-4.42.11-4.35-.06Zm14.75,25.16-3.46.09.33-4.35,0-4.15.06-4.16.11-4.16L113.48,22l.35-4.06h2.78l.22,4.05-.25,4.16.51,4.16-.6,4.16.19,4.16Z"/><polygon class="cls-3" points="145.3 37.57 142.59 40.28 141.88 35.57 145.28 32.66 145.29 32.67 145.26 26.12 141.34 29.8 140.78 25.91 140.43 21.75 139.58 17.65 139.43 13.36 134.77 13.89 135.45 18.12 135.61 22.33 136.7 26.41 136.84 30.62 137.41 34.78 138.15 38.91 138.6 43.09 139.16 47.17 142.48 45.7 145.34 43.9 145.3 37.57"/><polygon class="cls-3" points="156.26 44.3 153.17 41.01 151.13 38.49 148.38 40.78 145.34 43.9 145.3 37.57 148.27 34.93 150.9 31.81 152.98 34.59 156.25 38.46 156.26 44.3"/><polygon class="cls-3" points="156.36 32.73 153.5 29.93 151.26 27.56 145.28 32.66 145.26 26.11 150.78 21.7 156.46 27.12 156.36 32.73"/><polygon class="cls-3" points="161.66 13.25 161.07 17.55 161.05 21.7 160.21 25.77 159.96 29.81 156.46 27.12 156.36 32.73 159.09 35.46 158.82 40.19 156.25 38.46 156.26 44.3 159.25 45.52 162.31 47.47 162.8 43.11 163.35 38.95 163.79 34.78 164.22 30.61 164.76 26.45 165.35 22.29 165.62 18.1 166.17 14.09 161.66 13.25"/><polygon class="cls-3" points="175.01 42.9 175.27 37.17 179.04 36.92 182.84 37.26 186.64 37.23 190.51 37.21 190.67 32.45 186.64 32.78 182.84 32.32 179.04 32.37 175.41 32.41 175.31 29.98 179.04 29.97 182.84 30.01 186.64 29.56 190.59 30.02 190.41 25.4 186.64 25.63 182.84 25.49 179.04 25.13 175.12 25.5 174.96 21.61 175.05 17.61 179.66 17.9 184.08 17.98 188.5 18.01 192.93 17.75 197.51 17.99 197.28 13.4 192.92 13.38 188.48 13.21 184.04 13.16 179.61 13.48 175.17 13.21 170.7 13.3 170.8 17.57 170.73 21.81 170.85 26.05 170.92 30.29 171 34.53 170.87 38.77 170.69 43.01 170.74 47.24 174.68 47.23 178.64 47.39 182.59 47.26 186.55 47.05 190.5 47.1 194.46 47.27 198.49 47.32 198.28 42.86 194.55 42.87 190.69 42.51 186.83 42.85 182.97 42.6 179.11 42.96 175.01 42.9"/></svg>