<?xml version="1.0" encoding="UTF-8"?>
<svg id="Layer_1" xmlns="http://www.w3.org/2000/svg" version="1.1" viewBox="0 0 621.1 122.5">
  <!-- Generator: Adobe Illustrator 30.2.1, SVG Export Plug-In . SVG Version: 2.1.1 Build 1)  -->
  <defs>
    <style>
      .st0 {
        fill-rule: evenodd;
      }

      .st0, .st1 {
        fill: #0d2442;
      }
    </style>
  </defs>
  <path class="st0" d="M0,20.3c0-2.8.5-5.4,1.6-7.9,1.1-2.5,2.5-4.6,4.4-6.5,1.9-1.8,4-3.3,6.5-4.3,2.5-1.1,5.1-1.6,7.9-1.6h31.7v46.3h-6.1v-17.2H14.6v-6.2h31.4V6.1h-25.6c-2,0-3.8.4-5.5,1.1-1.7.7-3.2,1.8-4.5,3.1-1.3,1.3-2.3,2.8-3.1,4.5-.7,1.7-1.1,3.5-1.1,5.5v26H0v-26Z"/>
  <path class="st0" d="M66.6,17.7c-1.5,0-2.8.5-3.9,1.6-1.1,1.1-1.6,2.4-1.6,3.9s.5,2.8,1.6,3.9c1.1,1.1,2.4,1.6,3.9,1.6h40.4v6.2h-31.8c-2,0-3.8.4-5.5,1.1-1.7.7-3.2,1.7-4.5,3-1.3,1.3-2.3,2.8-3,4.5-.7,1.7-1.1,3.5-1.1,5.5v8.8h-6.2v-8.8c0-3,.6-5.8,1.9-8.4,1.2-2.6,2.9-4.9,5-6.7-2-.9-3.7-2.4-4.9-4.3-1.3-1.9-1.9-4-1.9-6.4s.3-3.1.9-4.5c.6-1.4,1.5-2.7,2.5-3.7,1.1-1.1,2.3-1.9,3.7-2.5,1.4-.6,2.9-.9,4.5-.9h40.4v6.2h-40.4Z"/>
  <path class="st0" d="M141.1,11.4v6.2h-11.4c-2,0-3.8.4-5.5,1.1-1.7.7-3.2,1.7-4.5,3-1.3,1.3-2.3,2.8-3.1,4.5-.7,1.7-1.1,3.6-1.1,5.5v14.5h-6.2v-14.5c0-2.8.5-5.5,1.6-7.9s2.5-4.6,4.4-6.5c1.9-1.9,4-3.3,6.5-4.4,2.5-1.1,5.1-1.6,7.9-1.6h11.4Z"/>
  <path class="st0" d="M143.9,11.4v34.9h6.2V11.4h-6.2ZM143.9,0v6.3h6.2V0h-6.2Z"/>
  <path class="st0" d="M159.2,17.7v11.3c0,1.5.3,3,.9,4.3.6,1.4,1.4,2.6,2.4,3.6,1,1,2.2,1.8,3.6,2.4,1.4.6,2.8.9,4.3.9h24v6.1h-24c-2.4,0-4.7-.5-6.8-1.4-2.1-.9-4-2.2-5.5-3.7-1.6-1.6-2.8-3.4-3.7-5.5-.9-2.1-1.4-4.4-1.4-6.7V11.4h41.5v6.2h-35.3Z"/>
  <path class="st0" d="M242.7,40.2v-14.3c0-1.1-.2-2.2-.7-3.2-.4-1-1-1.9-1.8-2.6-.7-.7-1.6-1.3-2.6-1.8-1-.4-2.1-.7-3.3-.7h-7.5l-21.9,14.5c-1.3.8-2,2-2,3.6s.4,2.2,1.3,3.1c.9.9,1.9,1.3,3.1,1.3h35.4ZM234.3,11.4c2,0,3.9.4,5.6,1.2,1.7.8,3.3,1.8,4.6,3.1,1.3,1.3,2.3,2.8,3.1,4.6.8,1.7,1.2,3.6,1.2,5.6v20.4h-41.5c-1.4,0-2.8-.3-4.1-.8-1.3-.6-2.4-1.3-3.4-2.3-.9-.9-1.7-2.1-2.3-3.3-.6-1.3-.8-2.6-.8-4.1s.4-3.4,1.2-5c.8-1.5,2-2.8,3.5-3.8l23.5-15.5h9.3Z"/>
  <path class="st0" d="M286.4,11.4c2.4,0,4.7.5,6.8,1.4,2.1.9,3.9,2.2,5.5,3.7,1.6,1.6,2.8,3.4,3.7,5.5.9,2.1,1.4,4.4,1.4,6.8v17.4h-6.1v-17.4c0-1.6-.3-3.1-.9-4.4-.6-1.4-1.4-2.5-2.4-3.5-1-1-2.2-1.8-3.6-2.4-1.4-.6-2.9-.9-4.4-.9h-28.5v28.7h-6.2V11.4h34.7Z"/>
  <rect class="st1" x="130.6" y="64.4" width="6.3" height="46.6"/>
  <path class="st0" d="M166,82.1c-3,0-5.5,1.1-7.7,3.2l-12.3,12.3v13.4h-6.3v-16l14.2-14.1c3.3-3.3,7.4-5,12.1-5h8.7c3,0,5.8.7,8.4,2.1,2.5,1.4,4.6,3.2,6.1,5.5,1.5-2.3,3.6-4.2,6.1-5.5,2.5-1.4,5.3-2.1,8.3-2.1h17.3c2.4,0,4.7.5,6.8,1.4,2.1.9,4,2.2,5.5,3.8,1.6,1.6,2.8,3.4,3.8,5.6.9,2.1,1.4,4.4,1.4,6.9v17.5h-6.2v-17.5c0-1.6-.3-3.1-.9-4.5-.6-1.4-1.4-2.6-2.4-3.6-1-1-2.2-1.8-3.6-2.4-1.4-.6-2.9-.9-4.4-.9h-17.3c-1.5,0-3,.3-4.4.9-1.4.6-2.6,1.4-3.6,2.4-1,1-1.9,2.2-2.5,3.6-.6,1.4-.9,2.9-.9,4.5v17.5h-6.2v-17.5c0-1.6-.3-3.1-.9-4.5-.6-1.4-1.4-2.6-2.4-3.6-1-1-2.2-1.9-3.6-2.5-1.4-.6-2.9-.9-4.4-.9h-8.7Z"/>
  <path class="st0" d="M286.9,104.8v-14.4c0-1.1-.2-2.2-.7-3.2-.4-1-1-1.9-1.8-2.6-.7-.7-1.6-1.3-2.6-1.8-1-.4-2.1-.7-3.3-.7h-7.6l-22.1,14.6c-1.3.8-2,2.1-2,3.7s.4,2.2,1.3,3.1c.9.9,1.9,1.3,3.1,1.3h35.6ZM278.5,75.9c2,0,3.9.4,5.7,1.2,1.8.8,3.3,1.8,4.6,3.1,1.3,1.3,2.4,2.8,3.1,4.6.8,1.8,1.2,3.6,1.2,5.7v20.5h-41.8c-1.4,0-2.8-.3-4.1-.8-1.3-.6-2.4-1.3-3.4-2.3-1-1-1.7-2.1-2.3-3.3-.6-1.3-.8-2.7-.8-4.2s.4-3.5,1.3-5c.8-1.5,2-2.8,3.6-3.8l23.7-15.6h9.4Z"/>
  <path class="st0" d="M341.6,82.2h-34.5c-1.5,0-2.9.5-3.9,1.6s-1.6,2.4-1.6,3.9.5,2.9,1.6,3.9c1.1,1.1,2.4,1.6,3.9,1.6h26.1c1.2,0,2.3-.2,3.3-.7s1.9-1,2.6-1.8c.7-.7,1.3-1.6,1.8-2.7.4-1,.7-2.1.7-3.3v-2.7ZM347.7,75.9v32c0,2-.4,3.9-1.2,5.7-.8,1.8-1.8,3.3-3.1,4.6-1.3,1.3-2.9,2.4-4.6,3.1-1.8.8-3.7,1.2-5.7,1.2h-23.1v-6.2h23.1c2.4,0,4.4-.8,6-2.5,1.6-1.6,2.5-3.6,2.5-6v-11.1c-1.2.8-2.5,1.5-3.9,2-1.4.5-2.9.7-4.5.7h-26.1c-1.6,0-3.1-.3-4.6-.9-1.4-.6-2.7-1.5-3.8-2.5-1.1-1.1-1.9-2.3-2.5-3.8-.6-1.4-.9-2.9-.9-4.6s.3-3.1.9-4.6c.6-1.4,1.5-2.7,2.5-3.8,1.1-1.1,2.3-1.9,3.8-2.5,1.4-.6,2.9-.9,4.6-.9h40.6Z"/>
  <path class="st0" d="M350.7,75.9v35.1h6.3v-35.1h-6.3ZM350.7,64.4v6.3h6.3v-6.3h-6.3Z"/>
  <path class="st0" d="M350.7,75.9v35.1h6.3v-35.1h-6.3ZM350.7,64.4v6.3h6.3v-6.3h-6.3Z"/>
  <rect class="st1" x="406.7" y="64.4" width="6.3" height="6.3"/>
  <path class="st0" d="M395.5,75.9c2.4,0,4.7.5,6.8,1.4,2.1.9,4,2.2,5.5,3.8,1.6,1.6,2.8,3.4,3.8,5.6.9,2.1,1.4,4.4,1.4,6.9v17.5h-6.2v-17.5c0-1.6-.3-3.1-.9-4.5-.6-1.4-1.4-2.6-2.4-3.6-1-1-2.2-1.8-3.6-2.4-1.4-.6-2.9-.9-4.4-.9h-28.7v28.9h-6.3v-35.1h34.9Z"/>
  <path class="st0" d="M461.5,104.8v-14.4c0-1.1-.2-2.2-.7-3.2-.4-1-1-1.9-1.8-2.6-.7-.7-1.6-1.3-2.6-1.8-1-.4-2.1-.7-3.3-.7h-7.6l-22.1,14.6c-1.3.8-2,2.1-2,3.7s.4,2.2,1.3,3.1c.9.9,1.9,1.3,3.1,1.3h35.6ZM453.1,75.9c2,0,3.9.4,5.7,1.2,1.8.8,3.3,1.8,4.6,3.1,1.3,1.3,2.4,2.8,3.1,4.6.8,1.8,1.2,3.6,1.2,5.7v20.5h-41.8c-1.4,0-2.8-.3-4.1-.8-1.3-.6-2.4-1.3-3.4-2.3-1-1-1.7-2.1-2.3-3.3-.6-1.3-.8-2.7-.8-4.2s.4-3.5,1.2-5c.8-1.5,2-2.8,3.6-3.8l23.7-15.6h9.4Z"/>
  <path class="st0" d="M501.9,75.9v6.3h-11.5c-2,0-3.8.4-5.5,1.1-1.7.7-3.2,1.8-4.6,3-1.3,1.3-2.3,2.8-3.1,4.6-.7,1.8-1.1,3.6-1.1,5.6v14.6h-6.3v-14.6c0-2.9.5-5.5,1.6-8,1.1-2.5,2.5-4.6,4.4-6.5,1.9-1.9,4-3.4,6.5-4.4,2.5-1.1,5.1-1.6,8-1.6h11.5Z"/>
  <path class="st0" d="M504.8,75.9v35.1h6.3v-35.1h-6.3ZM504.8,64.4v6.3h6.3v-6.3h-6.3Z"/>
  <path class="st0" d="M520.3,93.5c0,1.5.3,3,.9,4.4.6,1.4,1.4,2.6,2.5,3.6,1,1,2.2,1.9,3.6,2.5,1.4.6,2.8.9,4.4.9h34.8v6.2h-34.8c-2.4,0-4.7-.5-6.9-1.4-2.1-.9-4-2.2-5.6-3.8-1.6-1.6-2.8-3.4-3.8-5.6-.9-2.1-1.4-4.4-1.4-6.8s.5-4.7,1.4-6.9c.9-2.1,2.2-4,3.8-5.6,1.6-1.6,3.4-2.8,5.6-3.8,2.1-.9,4.4-1.4,6.9-1.4h23.1c1.6,0,3.1.3,4.6.9,1.4.6,2.7,1.5,3.7,2.5,1,1.1,1.9,2.3,2.5,3.8.6,1.4.9,2.9.9,4.6s-.3,3.1-.9,4.6c-.6,1.4-1.5,2.7-2.5,3.8-1,1.1-2.3,1.9-3.7,2.5-1.4.6-2.9.9-4.6.9h-25.4v-6.3h25.4c1.5,0,2.9-.5,3.9-1.6,1.1-1.1,1.6-2.4,1.6-3.9s-.5-2.9-1.6-3.9c-1.1-1.1-2.4-1.6-3.9-1.6h-23.1c-1.5,0-3,.3-4.4.9s-2.6,1.4-3.6,2.4c-1,1-1.9,2.2-2.5,3.6-.6,1.4-.9,2.9-.9,4.5Z"/>
  <path class="st0" d="M577.6,82.2c-.8,0-1.4.3-1.9.8-.5.5-.8,1.1-.8,1.8s.3,1.4.8,1.9c.5.5,1.1.8,1.9.8h31.8c1.6,0,3.1.3,4.6.9,1.4.6,2.7,1.5,3.7,2.5,1,1.1,1.9,2.3,2.5,3.8.6,1.4.9,2.9.9,4.6s-.3,3.1-.9,4.6c-.6,1.4-1.5,2.7-2.5,3.8-1,1.1-2.3,1.9-3.7,2.5-1.4.6-2.9.9-4.6.9h-40.7v-6.2h40.7c1.5,0,2.9-.6,3.9-1.7,1.1-1.1,1.6-2.4,1.6-4s-.5-2.9-1.6-3.9c-1.1-1.1-2.4-1.6-3.9-1.6h-31.8c-2.5,0-4.6-.9-6.3-2.6-1.7-1.7-2.6-3.8-2.6-6.3s.2-2.3.7-3.4c.5-1.1,1.1-2,1.9-2.8.8-.8,1.7-1.4,2.8-1.9,1.1-.5,2.2-.7,3.5-.7h43.5v6.3h-43.5Z"/>
  <rect class="st1" x="275.9" y="63.6" width="2.6" height="5.2"/>
  <rect class="st1" x="268.8" y="63.6" width="5.2" height="5.2"/>
  <rect class="st1" x="265.7" y="63.6" width=".6" height="5.2"/>
  <rect class="st1" x="266.6" y="63.6" width=".6" height="5.2"/>
  <rect class="st1" x="267.6" y="63.6" width=".6" height="5.2"/>
  <rect class="st1" x="274.7" y="63.6" width=".6" height="5.2"/>
  <rect class="st1" x="279.2" y="63.6" width=".6" height="5.2"/>
  <rect class="st1" x="280.2" y="63.6" width=".6" height="5.2"/>
  <rect class="st1" x="281.1" y="63.6" width=".6" height="5.2"/>
  <polygon class="st0" points="247.8 63.6 250.4 68.8 245.2 68.8 247.8 63.6"/>
  <rect class="st1" x="589.3" y="64.7" width="6.4" height="6.4"/>
  <rect class="st1" x="595.7" y="58.3" width="6.4" height="6.4"/>
  <rect class="st1" x="602" y="64.7" width="6.4" height="6.4"/>
  <rect class="st1" x="608.4" y="58.3" width="6.4" height="6.4"/>
  <rect class="st1" x="614.8" y="64.7" width="6.4" height="6.4"/>
  <path class="st0" d="M258.2,63.6c1.4,0,2.6,1.2,2.6,2.6s-1.2,2.6-2.6,2.6-2.6-1.2-2.6-2.6,1.2-2.6,2.6-2.6Z"/>
  <path class="st0" d="M296.9,63.6c1.4,0,2.6,1.2,2.6,2.6s-1.2,2.6-2.6,2.6-2.6-1.2-2.6-2.6,1.2-2.6,2.6-2.6Z"/>
  <path class="st0" d="M307.3,63.6c1.4,0,2.6,1.2,2.6,2.6s-1.2,2.6-2.6,2.6-2.6-1.2-2.6-2.6,1.2-2.6,2.6-2.6Z"/>
</svg>