<?xml version="1.0" encoding="utf-8"?>
<!-- Generator: Adobe Illustrator 27.3.1, SVG Export Plug-In . SVG Version: 6.00 Build 0)  -->
<svg version="1.1" id="Layer_1" xmlns="http://www.w3.org/2000/svg" xmlns:xlink="http://www.w3.org/1999/xlink" x="0px" y="0px"
	 viewBox="0 0 699.2 468.4" style="enable-background:new 0 0 699.2 468.4;" xml:space="preserve">
<style type="text/css">
	.st0{clip-path:url(#SVGID_00000163781167583640930650000017575012386346425219_);fill:#043673;}
	.st1{clip-path:url(#SVGID_00000163781167583640930650000017575012386346425219_);fill:#B58E53;}
</style>
<g>
	<defs>
		<rect id="SVGID_1_" width="699.2" height="468.4"/>
	</defs>
	<clipPath id="SVGID_00000071546126257630897480000010749582781802432907_">
		<use xlink:href="#SVGID_1_"  style="overflow:visible;"/>
	</clipPath>
	<path style="clip-path:url(#SVGID_00000071546126257630897480000010749582781802432907_);fill:#043673;" d="M374.1,172L215.6,371.9
		c-6.9,8.7-19.5,10.1-28.2,3.3c-8.7-6.9-10.1-19.5-3.3-28.2l158.5-199.9c6.9-8.7,19.5-10.1,28.2-3.3
		C379.5,150.7,380.9,163.4,374.1,172"/>
	<path style="clip-path:url(#SVGID_00000071546126257630897480000010749582781802432907_);fill:#043673;" d="M374.1,172L215.6,371.9
		c-6.9,8.7-19.5,10.1-28.2,3.3c-8.7-6.9-10.1-19.5-3.3-28.2l158.5-199.9c6.9-8.7,19.5-10.1,28.2-3.3
		C379.5,150.7,380.9,163.4,374.1,172"/>
	<path style="clip-path:url(#SVGID_00000071546126257630897480000010749582781802432907_);fill:#043673;" d="M376.5,146l136.9,204
		c6.2,9.2,3.7,21.7-5.5,27.8c-9.2,6.2-21.7,3.7-27.8-5.5l-136.9-204c-6.2-9.2-3.7-21.7,5.5-27.8C357.8,134.3,370.3,136.8,376.5,146"
		/>
	<path style="clip-path:url(#SVGID_00000071546126257630897480000010749582781802432907_);fill:#043673;" d="M213,145.2L364,339
		c6.8,8.7,5.2,21.3-3.5,28.1c-8.7,6.8-21.3,5.2-28.1-3.5l-151-193.8c-6.8-8.7-5.2-21.3,3.5-28.1C193.6,134.9,206.2,136.4,213,145.2"
		/>
	<path style="clip-path:url(#SVGID_00000071546126257630897480000010749582781802432907_);fill:#043673;" d="M625.7,42.4
		L367.6,367.9c-6.9,8.7-19.5,10.1-28.2,3.3c-8.7-6.9-10.1-19.5-3.3-28.2L594.3,17.5c6.9-8.7,19.5-10.1,28.2-3.3h0
		C631.1,21.1,632.6,33.7,625.7,42.4"/>
	<path style="clip-path:url(#SVGID_00000071546126257630897480000010749582781802432907_);fill:#B58E53;" d="M373.7,233.4
		c14.4,11.4,16.8,32.4,5.4,46.8c-11.4,14.4-32.4,16.8-46.8,5.4c-14.4-11.4-16.8-32.4-5.4-46.8C338.3,224.4,359.3,222,373.7,233.4"/>
	<polygon style="clip-path:url(#SVGID_00000071546126257630897480000010749582781802432907_);fill:#043673;" points="17.8,400.8 
		26.1,400.8 32.5,429 40.4,400.8 47.4,400.8 55.4,429 61.7,400.8 70,400.8 60,445 51.9,445 43.8,416.4 35.8,445 27.8,445 	"/>
	<path style="clip-path:url(#SVGID_00000071546126257630897480000010749582781802432907_);fill:#043673;" d="M78.8,398.8
		c1.4,0,2.7,0.5,3.7,1.6c1,1,1.5,2.3,1.5,3.8c0,1.5-0.5,2.7-1.5,3.7c-1,1-2.2,1.5-3.7,1.5c-1.5,0-2.7-0.5-3.7-1.6
		c-1-1.1-1.5-2.3-1.5-3.8c0-1.4,0.5-2.7,1.5-3.7C76.2,399.4,77.4,398.8,78.8,398.8 M74.7,412.3h8.2V445h-8.2V412.3z"/>
	<polygon style="clip-path:url(#SVGID_00000071546126257630897480000010749582781802432907_);fill:#043673;" points="91.4,400.3 
		99.6,400.3 99.6,412.3 104.4,412.3 104.4,419.4 99.6,419.4 99.6,445 91.4,445 91.4,419.4 87.2,419.4 87.2,412.3 91.4,412.3 	"/>
	<path style="clip-path:url(#SVGID_00000071546126257630897480000010749582781802432907_);fill:#043673;" d="M128.8,416.9l-5.1,5.1
		c-2.1-2-3.9-3.1-5.6-3.1c-0.9,0-1.6,0.2-2.2,0.6c-0.5,0.4-0.8,0.9-0.8,1.5c0,0.4,0.2,0.8,0.5,1.2c0.3,0.4,1.1,0.9,2.4,1.5l3,1.5
		c3.2,1.6,5.3,3.2,6.5,4.8c1.2,1.6,1.8,3.5,1.8,5.7c0,2.9-1.1,5.3-3.2,7.3c-2.1,1.9-5,2.9-8.6,2.9c-4.8,0-8.6-1.9-11.4-5.6l5-5.5
		c1,1.1,2.1,2,3.4,2.7c1.3,0.7,2.4,1,3.4,1c1.1,0,2-0.3,2.6-0.8c0.7-0.5,1-1.1,1-1.8c0-1.3-1.2-2.5-3.6-3.7l-2.8-1.4
		c-5.3-2.7-7.9-6-7.9-10c0-2.6,1-4.8,3-6.6c2-1.8,4.5-2.7,7.6-2.7c2.1,0,4.1,0.5,6,1.4C126,413.8,127.5,415.1,128.8,416.9"/>
	
		<rect x="153.4" y="400.8" style="clip-path:url(#SVGID_00000071546126257630897480000010749582781802432907_);fill:#043673;" width="8.4" height="44.2"/>
	<path style="clip-path:url(#SVGID_00000071546126257630897480000010749582781802432907_);fill:#043673;" d="M170.3,412.3h8.2v3.4
		c1.9-1.6,3.5-2.7,5.1-3.3c1.5-0.6,3.1-0.9,4.6-0.9c3.2,0,6,1.1,8.2,3.4c1.9,1.9,2.9,4.8,2.9,8.5V445h-8.1v-14.3
		c0-3.9-0.2-6.5-0.5-7.8c-0.3-1.3-1-2.3-1.8-2.9c-0.9-0.7-1.9-1-3.2-1c-1.7,0-3.1,0.6-4.3,1.7c-1.2,1.1-2,2.6-2.5,4.6
		c-0.2,1-0.4,3.2-0.4,6.6V445h-8.2V412.3z"/>
	<path style="clip-path:url(#SVGID_00000071546126257630897480000010749582781802432907_);fill:#043673;" d="M207.3,412.3h8.2v3.4
		c1.9-1.6,3.5-2.7,5.1-3.3c1.5-0.6,3.1-0.9,4.6-0.9c3.2,0,6,1.1,8.2,3.4c1.9,1.9,2.9,4.8,2.9,8.5V445h-8.1v-14.3
		c0-3.9-0.2-6.5-0.5-7.8c-0.3-1.3-1-2.3-1.8-2.9c-0.9-0.7-1.9-1-3.2-1c-1.7,0-3.1,0.6-4.3,1.7c-1.2,1.1-2,2.6-2.5,4.6
		c-0.2,1-0.4,3.2-0.4,6.6V445h-8.2V412.3z"/>
	<path style="clip-path:url(#SVGID_00000071546126257630897480000010749582781802432907_);fill:#043673;" d="M259.5,411.5
		c3.1,0,6,0.8,8.7,2.3c2.7,1.5,4.8,3.6,6.4,6.3c1.5,2.6,2.3,5.5,2.3,8.6c0,3.1-0.8,6-2.3,8.7c-1.5,2.7-3.6,4.8-6.3,6.3
		c-2.6,1.5-5.6,2.3-8.7,2.3c-4.7,0-8.7-1.7-12-5c-3.3-3.3-5-7.4-5-12.2c0-5.1,1.9-9.4,5.6-12.8C251.5,412.9,255.3,411.5,259.5,411.5
		 M259.7,419.2c-2.5,0-4.7,0.9-6.4,2.7c-1.7,1.8-2.5,4-2.5,6.8c0,2.8,0.8,5.1,2.5,6.9c1.7,1.8,3.8,2.6,6.4,2.6
		c2.6,0,4.7-0.9,6.4-2.7c1.7-1.8,2.6-4.1,2.6-6.9c0-2.8-0.8-5.1-2.5-6.8C264.4,420.1,262.3,419.2,259.7,419.2"/>
	<polygon style="clip-path:url(#SVGID_00000071546126257630897480000010749582781802432907_);fill:#043673;" points="280.1,412.3 
		288.4,412.3 296.7,431.6 304.9,412.3 313.2,412.3 299.3,445 294,445 	"/>
	<path style="clip-path:url(#SVGID_00000071546126257630897480000010749582781802432907_);fill:#043673;" d="M342.2,412.3h8.2V445
		h-8.2v-3.5c-1.6,1.5-3.2,2.6-4.8,3.3c-1.6,0.7-3.4,1-5.2,1c-4.2,0-7.9-1.6-11-4.9s-4.6-7.3-4.6-12.2c0-5,1.5-9.2,4.5-12.4
		c3-3.2,6.6-4.8,10.9-4.8c2,0,3.8,0.4,5.5,1.1c1.7,0.7,3.3,1.9,4.8,3.3V412.3z M333.5,419c-2.5,0-4.6,0.9-6.3,2.7
		c-1.7,1.8-2.5,4.1-2.5,6.9c0,2.8,0.9,5.1,2.6,7c1.7,1.8,3.8,2.7,6.3,2.7c2.6,0,4.7-0.9,6.4-2.7c1.7-1.8,2.5-4.1,2.5-7
		c0-2.8-0.8-5.1-2.5-6.9C338.3,419.9,336.1,419,333.5,419"/>
	<polygon style="clip-path:url(#SVGID_00000071546126257630897480000010749582781802432907_);fill:#043673;" points="359.6,400.3 
		367.8,400.3 367.8,412.3 372.7,412.3 372.7,419.4 367.8,419.4 367.8,445 359.6,445 359.6,419.4 355.4,419.4 355.4,412.3 
		359.6,412.3 	"/>
	<path style="clip-path:url(#SVGID_00000071546126257630897480000010749582781802432907_);fill:#043673;" d="M380.3,398.8
		c1.4,0,2.7,0.5,3.7,1.6c1,1,1.5,2.3,1.5,3.8c0,1.5-0.5,2.7-1.5,3.7c-1,1-2.2,1.5-3.7,1.5c-1.5,0-2.7-0.5-3.7-1.6
		c-1-1.1-1.5-2.3-1.5-3.8c0-1.4,0.5-2.7,1.5-3.7C377.6,399.4,378.9,398.8,380.3,398.8 M376.2,412.3h8.2V445h-8.2V412.3z"/>
	<path style="clip-path:url(#SVGID_00000071546126257630897480000010749582781802432907_);fill:#043673;" d="M407.2,411.5
		c3.1,0,6,0.8,8.7,2.3c2.7,1.5,4.8,3.6,6.4,6.3c1.5,2.6,2.3,5.5,2.3,8.6c0,3.1-0.8,6-2.3,8.7c-1.5,2.7-3.6,4.8-6.3,6.3
		c-2.6,1.5-5.6,2.3-8.7,2.3c-4.7,0-8.7-1.7-12-5c-3.3-3.3-5-7.4-5-12.2c0-5.1,1.9-9.4,5.6-12.8C399.2,412.9,402.9,411.5,407.2,411.5
		 M407.3,419.2c-2.5,0-4.7,0.9-6.4,2.7c-1.7,1.8-2.5,4-2.5,6.8c0,2.8,0.8,5.1,2.5,6.9c1.7,1.8,3.8,2.6,6.4,2.6
		c2.6,0,4.7-0.9,6.4-2.7c1.7-1.8,2.6-4.1,2.6-6.9c0-2.8-0.8-5.1-2.5-6.8C412.1,420.1,409.9,419.2,407.3,419.2"/>
	<path style="clip-path:url(#SVGID_00000071546126257630897480000010749582781802432907_);fill:#043673;" d="M431.2,412.3h8.2v3.4
		c1.9-1.6,3.5-2.7,5.1-3.3c1.5-0.6,3.1-0.9,4.6-0.9c3.2,0,6,1.1,8.2,3.4c1.9,1.9,2.9,4.8,2.9,8.5V445h-8.1v-14.3
		c0-3.9-0.2-6.5-0.5-7.8c-0.3-1.3-1-2.3-1.8-2.9c-0.9-0.7-1.9-1-3.2-1c-1.7,0-3.1,0.6-4.3,1.7c-1.2,1.1-2,2.6-2.5,4.6
		c-0.2,1-0.4,3.2-0.4,6.6V445h-8.2V412.3z"/>
	<path style="clip-path:url(#SVGID_00000071546126257630897480000010749582781802432907_);fill:#043673;" d="M526.9,408.6l-5.9,5.6
		c-4-4.2-8.5-6.3-13.5-6.3c-4.2,0-7.8,1.4-10.7,4.3c-2.9,2.9-4.3,6.4-4.3,10.7c0,2.9,0.6,5.6,1.9,7.9c1.3,2.3,3.1,4.1,5.4,5.4
		c2.3,1.3,4.9,2,7.8,2c2.4,0,4.7-0.5,6.7-1.4c2-0.9,4.2-2.6,6.7-5l5.7,6c-3.3,3.2-6.3,5.4-9.3,6.6c-2.9,1.2-6.2,1.8-9.9,1.8
		c-6.9,0-12.5-2.2-16.9-6.5c-4.4-4.4-6.6-9.9-6.6-16.8c0-4.4,1-8.3,3-11.7c2-3.4,4.8-6.2,8.6-8.3c3.7-2.1,7.7-3.1,12-3.1
		c3.6,0,7.2,0.8,10.5,2.3C521.5,403.5,524.5,405.7,526.9,408.6"/>
	<path style="clip-path:url(#SVGID_00000071546126257630897480000010749582781802432907_);fill:#043673;" d="M566.1,431h-26.3
		c0.4,2.3,1.4,4.2,3,5.5c1.7,1.4,3.8,2.1,6.3,2.1c3.1,0,5.7-1.1,7.9-3.2l6.9,3.2c-1.7,2.4-3.8,4.3-6.2,5.4c-2.4,1.2-5.3,1.8-8.6,1.8
		c-5.1,0-9.3-1.6-12.5-4.9c-3.2-3.2-4.8-7.3-4.8-12.2c0-5,1.6-9.1,4.8-12.4c3.2-3.3,7.2-4.9,12.1-4.9c5.1,0,9.3,1.6,12.6,4.9
		c3.2,3.3,4.8,7.6,4.8,13.1L566.1,431z M557.9,424.6c-0.5-1.8-1.6-3.3-3.2-4.4c-1.6-1.1-3.4-1.7-5.6-1.7c-2.3,0-4.3,0.6-6,1.9
		c-1.1,0.8-2.1,2.2-3,4.2H557.9z"/>
	<path style="clip-path:url(#SVGID_00000071546126257630897480000010749582781802432907_);fill:#043673;" d="M572.8,412.3h8.2v3.4
		c1.9-1.6,3.5-2.7,5.1-3.3c1.5-0.6,3.1-0.9,4.6-0.9c3.2,0,6,1.1,8.2,3.4c1.9,1.9,2.9,4.8,2.9,8.5V445h-8.1v-14.3
		c0-3.9-0.2-6.5-0.5-7.8c-0.3-1.3-1-2.3-1.8-2.9c-0.9-0.7-1.9-1-3.2-1c-1.7,0-3.1,0.6-4.3,1.7c-1.2,1.1-2,2.6-2.5,4.6
		c-0.2,1-0.4,3.2-0.4,6.6V445h-8.2V412.3z"/>
	<polygon style="clip-path:url(#SVGID_00000071546126257630897480000010749582781802432907_);fill:#043673;" points="610.7,400.3 
		618.9,400.3 618.9,412.3 623.7,412.3 623.7,419.4 618.9,419.4 618.9,445 610.7,445 610.7,419.4 606.5,419.4 606.5,412.3 
		610.7,412.3 	"/>
	<path style="clip-path:url(#SVGID_00000071546126257630897480000010749582781802432907_);fill:#043673;" d="M626.2,412.3h7v4.1
		c0.8-1.6,1.8-2.9,3-3.7c1.3-0.8,2.6-1.3,4.1-1.3c1.1,0,2.2,0.3,3.3,0.8l-2.6,7.1c-1-0.5-1.8-0.7-2.4-0.7c-1.3,0-2.3,0.8-3.2,2.3
		c-0.9,1.6-1.3,4.6-1.3,9.2l0,1.6V445h-8.1V412.3z"/>
	<path style="clip-path:url(#SVGID_00000071546126257630897480000010749582781802432907_);fill:#043673;" d="M680.5,431h-26.3
		c0.4,2.3,1.4,4.2,3,5.5c1.7,1.4,3.8,2.1,6.3,2.1c3.1,0,5.7-1.1,7.9-3.2l6.9,3.2c-1.7,2.4-3.8,4.3-6.2,5.4s-5.3,1.8-8.6,1.8
		c-5.1,0-9.3-1.6-12.5-4.9c-3.2-3.2-4.8-7.3-4.8-12.2c0-5,1.6-9.1,4.8-12.4c3.2-3.3,7.2-4.9,12.1-4.9c5.1,0,9.3,1.6,12.6,4.9
		c3.2,3.3,4.8,7.6,4.8,13.1L680.5,431z M672.3,424.6c-0.5-1.8-1.6-3.3-3.2-4.4c-1.6-1.1-3.4-1.7-5.6-1.7c-2.3,0-4.3,0.6-6,1.9
		c-1.1,0.8-2.1,2.2-3,4.2H672.3z"/>
</g>
</svg>
