<?xml version="1.0" encoding="utf-8"?>
<!-- Generator: Adobe Illustrator 28.0.0, SVG Export Plug-In . SVG Version: 6.00 Build 0)  -->
<svg version="1.1" id="Layer_1" xmlns="http://www.w3.org/2000/svg" xmlns:xlink="http://www.w3.org/1999/xlink" x="0px" y="0px"
	 viewBox="0 0 294.95 200.28" style="enable-background:new 0 0 294.95 200.28;" xml:space="preserve">
<rect style="fill:#FFFFFF;" width="294.95" height="200.28"/>
<rect x="5.67" y="5.49" style="fill:#034EA2;" width="283.6" height="189.07"/>
<polyline style="fill:#FFF200;" points="141.43,46.69 147.41,42.32 153.4,46.69 151.12,39.62 157.2,35.26 149.71,35.26 
	147.41,28.11 145.12,35.27 137.63,35.26 143.71,39.62 141.43,46.69 "/>
<polyline style="fill:#FFF200;" points="110.46,55.01 116.44,50.64 122.43,55.01 120.15,47.95 126.23,43.58 118.73,43.58 
	116.44,36.42 114.15,43.59 106.66,43.58 112.73,47.95 110.46,55.01 "/>
<polyline style="fill:#FFF200;" points="93.79,59.13 91.49,66.3 84,66.29 90.08,70.66 87.8,77.72 93.79,73.35 99.77,77.72 
	97.49,70.66 103.57,66.29 96.08,66.29 93.79,59.13 "/>
<polyline style="fill:#FFF200;" points="85.47,104.28 91.45,108.65 89.18,101.59 95.25,97.22 87.77,97.22 85.47,90.06 83.18,97.24 
	75.69,97.22 81.77,101.59 79.49,108.65 85.47,104.28 "/>
<polyline style="fill:#FFF200;" points="96.08,128.24 93.78,121.09 91.49,128.25 84,128.24 90.08,132.61 87.8,139.67 93.78,135.3 
	99.77,139.67 97.49,132.61 103.57,128.24 96.08,128.24 "/>
<polyline style="fill:#FFF200;" points="118.78,150.94 116.49,143.8 114.2,150.95 106.71,150.94 112.78,155.31 110.51,162.38 
	116.49,158.01 122.47,162.38 120.2,155.31 126.27,150.94 118.78,150.94 "/>
<polyline style="fill:#FFF200;" points="149.71,159.17 147.42,152.02 145.13,159.18 137.64,159.17 143.71,163.54 141.44,170.6 
	147.42,166.24 153.4,170.6 151.12,163.54 157.2,159.17 149.71,159.17 "/>
<polyline style="fill:#FFF200;" points="180.64,150.94 178.35,143.8 176.05,150.95 168.57,150.94 174.64,155.31 172.37,162.38 
	178.35,158.01 184.34,162.38 182.05,155.31 188.13,150.94 180.64,150.94 "/>
<polyline style="fill:#FFF200;" points="203.35,128.24 201.05,121.09 198.76,128.25 191.27,128.24 197.35,132.61 195.07,139.67 
	201.05,135.3 207.04,139.67 204.76,132.61 210.84,128.24 203.35,128.24 "/>
<polyline style="fill:#FFF200;" points="219.06,97.13 211.57,97.13 209.27,89.98 206.99,97.14 199.49,97.13 205.57,101.5 
	203.3,108.56 209.27,104.19 215.26,108.56 212.99,101.5 219.06,97.13 "/>
<polyline style="fill:#FFF200;" points="195.07,77.62 201.05,73.26 207.04,77.62 204.76,70.56 210.84,66.2 203.35,66.2 
	201.05,59.05 198.76,66.21 191.27,66.2 197.35,70.56 195.07,77.62 "/>
<polyline style="fill:#FFF200;" points="178.44,36.43 176.15,43.59 168.66,43.58 174.73,47.95 172.45,55.02 178.45,50.64 
	184.42,55.02 182.15,47.95 188.23,43.58 180.73,43.58 178.44,36.43 "/>
</svg>
