<?xml version="1.0" encoding="utf-8"?>
<!-- Generator: Adobe Illustrator 27.3.1, SVG Export Plug-In . SVG Version: 6.00 Build 0)  -->
<svg version="1.1" id="Layer_1" xmlns="http://www.w3.org/2000/svg" xmlns:xlink="http://www.w3.org/1999/xlink" x="0px" y="0px"
	 viewBox="0 0 872.3 274.3" style="enable-background:new 0 0 872.3 274.3;" xml:space="preserve">
<style type="text/css">
	.st0{fill:#2448C5;}
</style>
<path class="st0" d="M844.3,199.8l-4.6,0.9c0.6,2.7,2,4.7,4.1,6c2.1,1.3,5.1,1.9,9,1.9c4,0,7.1-0.8,9.3-2.4c2.2-1.6,3.3-3.9,3.3-6.8
	c0-1.2-0.2-2.3-0.6-3.2c-0.4-0.9-0.9-1.8-1.6-2.5c-0.7-0.7-1.7-1.4-2.9-1.9c-1.2-0.6-3.2-1.2-5.9-1.9c-2.9-0.7-4.8-1.3-5.7-1.7
	c-0.9-0.4-1.6-0.9-2-1.5c-0.5-0.6-0.7-1.3-0.7-2.2c0-1.4,0.6-2.5,1.7-3.2c1.1-0.7,2.8-1.1,5.2-1.1c2.1,0,3.8,0.4,5.1,1.1
	c1.3,0.7,2,1.8,2.3,3.2l4.7-0.6c-0.5-2.7-1.8-4.6-3.9-5.8c-2-1.2-4.8-1.8-8.2-1.8c-3.9,0-6.8,0.7-8.9,2.2c-2,1.5-3,3.7-3,6.5
	c0,1.5,0.4,2.8,1.1,3.9c0.7,1.1,1.7,2,3,2.7c1.3,0.7,3.4,1.5,6.4,2.3l3.7,1c1.9,0.5,3.2,1.1,4.1,1.9c0.8,0.8,1.3,1.8,1.3,3
	c0,1.6-0.6,2.8-1.8,3.6c-1.2,0.8-3.1,1.2-5.8,1.2c-2.5,0-4.4-0.4-5.8-1.2C845.6,202.7,844.7,201.5,844.3,199.8 M813.2,189.5
	c0.1-2.9,0.9-5.3,2.4-6.9c1.5-1.7,3.5-2.5,6-2.5c2.6,0,4.6,0.8,6,2.3c1.4,1.5,2.2,3.9,2.5,7.2H813.2z M811.3,180.4
	c-2.4,2.7-3.6,6.7-3.6,11.8c0,5.4,1.2,9.5,3.6,12.3c2.4,2.7,5.9,4.1,10.5,4.1c6.6,0,10.8-2.5,12.7-7.4l-4.6-1.3
	c-0.5,1.4-1.4,2.5-2.8,3.4c-1.4,0.9-3.2,1.4-5.4,1.4c-2.8,0-5-1-6.5-2.9c-1.5-1.9-2.2-4.7-2.2-8.3h22.3v-0.7
	c0-11-4.6-16.6-13.8-16.6C817.2,176.2,813.7,177.6,811.3,180.4 M793.5,176.8h-3.8v3.8h3.6v20.8c0,4.7,2.1,7.1,6.2,7.1
	c1.8,0,3.5-0.2,5.2-0.7v-3.8c-1.3,0.3-2.3,0.4-3,0.4c-1.2,0-2.1-0.3-2.5-0.9s-0.7-1.7-0.7-3.2v-19.7h5.8v-3.8h-5.8v-7H795
	L793.5,176.8z M765,176.8h-5.2v20.8c0,3.9,0.8,6.7,2.4,8.4c1.6,1.7,4.1,2.5,7.5,2.5c2.3,0,4.3-0.4,5.8-1.3c1.6-0.9,2.9-2.4,4.1-4.6
	h0.1c0,1.5,0.1,2.5,0.1,3.1c0,0.5,0.1,1,0.1,1.5c0,0.4,0,0.7,0.1,0.8h4.9c-0.1-0.8-0.2-3-0.2-6.7v-24.5h-5.2v18.1
	c0,3-0.7,5.4-2.2,7.1c-1.4,1.7-3.4,2.6-5.9,2.6c-1.7,0-3-0.3-3.9-0.8c-0.9-0.5-1.5-1.3-1.9-2.5c-0.4-1.1-0.6-2.7-0.6-4.8V176.8z
	 M714.7,176.8h-3.8v3.8h3.6v20.8c0,4.7,2.1,7.1,6.2,7.1c1.8,0,3.5-0.2,5.2-0.7v-3.8c-1.3,0.3-2.3,0.4-3,0.4c-1.2,0-2.1-0.3-2.5-0.9
	c-0.5-0.6-0.7-1.7-0.7-3.2v-19.7h5.8v-3.8h-5.8v-7h-3.5L714.7,176.8z M642.2,167.4h-5.5V208h5.5V167.4z M610.9,165.2h-5.2V208h5.2
	V165.2z M576.8,199.4c0-1.6,0.3-2.8,1-3.8c0.7-1,1.6-1.7,2.9-2.1c1.3-0.5,3.1-0.7,5.6-0.8l5.7-0.1v2.6c0,1.6-0.4,3.1-1.3,4.7
	c-0.9,1.5-2,2.7-3.5,3.6c-1.5,0.9-3.2,1.3-5.1,1.3c-1.7,0-3-0.5-3.9-1.4C577.2,202.4,576.8,201.1,576.8,199.4 M571.4,199.3
	c0,2.9,0.8,5.2,2.4,6.8c1.6,1.7,3.9,2.5,7.1,2.5c2.5,0,4.7-0.5,6.4-1.5c1.8-1,3.3-2.7,4.6-5.1h0.2c0.1,2.2,0.6,3.7,1.5,4.7
	c0.9,1,2.3,1.5,4.2,1.5c1.4,0,2.7-0.2,4-0.5v-3.2c-0.6,0.1-1.2,0.2-1.7,0.2c-1.1,0-1.9-0.4-2.3-1.2c-0.4-0.8-0.6-1.9-0.6-3.5v-13.4
	c0-3.4-1-6-3-7.8c-2-1.8-4.9-2.7-8.9-2.7c-7.5,0-11.6,2.8-12.5,8.4l5.4,0.5c0.2-1.7,0.8-3,1.9-3.8c1.1-0.8,2.7-1.2,5.1-1.2
	c2.3,0,4,0.5,5.1,1.6c1.1,1.1,1.6,2.9,1.6,5.5v1.7l-7,0.1c-4.7,0.1-8.2,1-10.3,2.8C572.5,193.6,571.4,196.1,571.4,199.3
	 M550.6,255.3c0.1-2.9,0.9-5.3,2.4-6.9c1.5-1.7,3.5-2.5,6-2.5c2.6,0,4.6,0.8,6,2.3c1.4,1.5,2.2,3.9,2.5,7.2H550.6z M548.8,246.1
	c-2.4,2.7-3.6,6.7-3.6,11.8c0,5.4,1.2,9.5,3.6,12.3c2.4,2.7,5.9,4.1,10.5,4.1c6.6,0,10.8-2.5,12.7-7.4l-4.6-1.3
	c-0.5,1.4-1.4,2.5-2.8,3.4c-1.4,0.9-3.2,1.4-5.4,1.4c-2.8,0-5-1-6.5-2.9c-1.5-1.9-2.2-4.7-2.2-8.3h22.3v-0.7
	c0-11-4.6-16.6-13.8-16.6C554.6,242,551.2,243.3,548.8,246.1 M531.8,242.5h-4.9c0.1,2.7,0.2,5.1,0.2,7.3v23.9h5.2v-16.3
	c0-3.5,0.6-6.1,1.7-8c1.1-1.9,2.8-2.8,4.9-2.8c1.2,0,2.1,0.1,2.8,0.3v-4.8c-0.7-0.2-1.4-0.3-2.1-0.3c-2,0-3.5,0.5-4.6,1.5
	c-1.1,1-2,2.8-2.9,5.5H532C532,248.2,531.9,246.1,531.8,242.5 M511.2,192.4c0-4.2,0.7-7.3,2-9.3c1.4-2,3.6-3,6.6-3
	c3,0,5.2,1,6.4,2.9c1.3,2,1.9,5.1,1.9,9.4c0,4.2-0.7,7.4-2,9.4c-1.3,2-3.6,3-6.7,3c-2.9,0-5-1-6.3-3.1
	C511.8,199.6,511.2,196.5,511.2,192.4 M509.2,204.4c2.3,2.8,5.8,4.2,10.3,4.2c4.6,0,8.1-1.3,10.5-4c2.4-2.7,3.6-6.7,3.6-12.2
	c0-5.5-1.1-9.6-3.4-12.2c-2.3-2.6-5.8-3.9-10.5-3.9c-9.3,0-14,5.4-14,16.1C505.7,197.6,506.9,201.6,509.2,204.4 M499.2,242.5H494
	v20.8c0,3.9,0.8,6.7,2.4,8.4c1.6,1.7,4.1,2.6,7.5,2.6c2.3,0,4.3-0.4,5.8-1.3c1.6-0.9,2.9-2.4,4.1-4.6h0.1c0,1.5,0.1,2.5,0.1,3.1
	c0,0.5,0.1,1,0.1,1.5c0,0.4,0,0.7,0.1,0.8h4.9c-0.1-0.8-0.2-3-0.2-6.7v-24.5h-5.2v18.1c0,3-0.7,5.4-2.2,7.1
	c-1.4,1.7-3.4,2.6-5.9,2.6c-1.7,0-3-0.3-3.9-0.8c-0.9-0.5-1.5-1.3-1.9-2.4c-0.4-1.1-0.6-2.7-0.6-4.8V242.5z M499.3,176.8h-5.2V208
	h5.2V176.8z M494.1,170.2h5.2v-5h-5.2V170.2z M478.4,242.5h-3.8v3.8h3.6v20.8c0,4.7,2.1,7.1,6.2,7.1c1.8,0,3.5-0.2,5.2-0.7v-3.8
	c-1.3,0.3-2.3,0.4-3,0.4c-1.2,0-2.1-0.3-2.5-0.9c-0.5-0.6-0.7-1.7-0.7-3.2v-19.7h5.8v-3.8h-5.8v-7H480L478.4,242.5z M478.4,176.8
	h-3.8v3.8h3.6v20.8c0,4.7,2.1,7.1,6.2,7.1c1.8,0,3.5-0.2,5.2-0.7v-3.8c-1.3,0.3-2.3,0.4-3,0.4c-1.2,0-2.1-0.3-2.5-0.9
	c-0.5-0.6-0.7-1.7-0.7-3.2v-19.7h5.8v-3.8h-5.8v-7H480L478.4,176.8z M469.8,231h-5.2v42.8h5.2V231z M454,204.7c-1.7,0-3-0.5-3.9-1.4
	c-0.9-0.9-1.4-2.2-1.4-3.9c0-1.6,0.3-2.8,1-3.8c0.7-1,1.6-1.7,2.9-2.1c1.3-0.5,3.1-0.7,5.6-0.8l5.7-0.1v2.6c0,1.6-0.4,3.1-1.3,4.7
	c-0.9,1.5-2,2.7-3.5,3.6C457.6,204.3,455.9,204.7,454,204.7 M452.8,208.6c2.5,0,4.7-0.5,6.4-1.5c1.8-1,3.3-2.7,4.6-5.1h0.2
	c0.1,2.2,0.6,3.7,1.5,4.7c0.9,1,2.3,1.5,4.2,1.5c1.4,0,2.7-0.2,4-0.5v-3.2c-0.6,0.1-1.2,0.2-1.7,0.2c-1.1,0-1.9-0.4-2.3-1.2
	c-0.4-0.8-0.6-1.9-0.6-3.5v-13.4c0-3.4-1-6-3-7.8c-2-1.8-4.9-2.7-8.9-2.7c-7.5,0-11.6,2.8-12.5,8.4l5.4,0.5c0.2-1.7,0.8-3,1.9-3.8
	c1.1-0.8,2.7-1.2,5.1-1.2c2.3,0,4,0.5,5.1,1.6c1.1,1.1,1.6,2.9,1.6,5.5v1.7l-7,0.1c-4.7,0.1-8.2,1-10.3,2.8
	c-2.1,1.7-3.2,4.2-3.2,7.4c0,2.9,0.8,5.2,2.4,6.8C447.3,207.8,449.7,208.6,452.8,208.6 M436.8,242.5h-5.2v20.8
	c0,3.9,0.8,6.7,2.4,8.4c1.6,1.7,4.1,2.6,7.5,2.6c2.3,0,4.3-0.4,5.8-1.3c1.6-0.9,2.9-2.4,4.1-4.6h0.1c0,1.5,0.1,2.5,0.1,3.1
	c0,0.5,0.1,1,0.1,1.5s0,0.7,0.1,0.8h4.9c-0.1-0.8-0.2-3-0.2-6.7v-24.5h-5.2v18.1c0,3-0.7,5.4-2.2,7.1c-1.4,1.7-3.4,2.6-5.9,2.6
	c-1.7,0-3-0.3-3.9-0.8c-0.9-0.5-1.5-1.3-1.9-2.4c-0.4-1.1-0.6-2.7-0.6-4.8V242.5z M407.7,173.4l21.7,34.6h6.6v-40.6h-5V194
	c0,1.7,0.1,4.4,0.3,8.2l-22-34.8h-6.4V208h4.9v-27l-0.1-4.8L407.7,173.4z M393.4,238c-3.5,3.7-5.2,8.7-5.2,15.2
	c0,4.3,0.8,8.1,2.3,11.2c1.6,3.2,3.8,5.6,6.8,7.3c3,1.7,6.5,2.6,10.6,2.6c4,0,7.5-0.9,10.5-2.7c3-1.8,5.4-4.5,7.1-8l-4.5-2.3
	c-2.9,5.6-7.1,8.4-12.8,8.4c-4.4,0-8-1.5-10.6-4.5c-2.6-3-3.9-7-3.9-12c0-5,1.2-9,3.7-11.9c2.5-2.9,6-4.3,10.5-4.3
	c2.9,0,5.3,0.6,7.4,1.9c2.1,1.2,3.6,3.1,4.5,5.4l5.2-1.7c-1.4-3.3-3.5-5.8-6.4-7.5c-2.9-1.7-6.5-2.5-10.8-2.5
	C401.7,232.5,396.9,234.3,393.4,238 M357.9,242.5H353c0.1,2.7,0.2,5.1,0.2,7.3v23.9h5.2v-16.3c0-3.5,0.6-6.1,1.7-8
	c1.1-1.9,2.8-2.8,4.9-2.8c1.2,0,2.1,0.1,2.8,0.3v-4.8c-0.7-0.2-1.4-0.3-2.1-0.3c-2,0-3.5,0.5-4.6,1.5c-1.1,1-2,2.8-2.9,5.5h-0.1
	C358.1,248.2,358,246.1,357.9,242.5 M345.8,201.5c1.4,2.3,3.3,4.1,5.8,5.3c2.5,1.2,5.4,1.8,8.7,1.8c3.5,0,6.5-0.6,9-1.9
	c2.5-1.3,4.5-3.1,5.9-5.5c1.4-2.4,2.1-5.2,2.1-8.5v-25.3h-5.5v25c0,3.8-1,6.7-3,8.7c-2,2-4.9,3-8.5,3c-3.6,0-6.3-1-8.2-2.9
	c-1.9-1.9-2.8-4.7-2.8-8.4v-25.4h-5.5v25.9C343.8,196.4,344.4,199.2,345.8,201.5 M324.2,258.1c0-4.2,0.7-7.3,2-9.3
	c1.4-2,3.6-3,6.6-3c3,0,5.2,1,6.4,2.9c1.3,2,1.9,5.1,1.9,9.4c0,4.2-0.7,7.4-2,9.4c-1.3,2-3.6,3-6.7,3c-2.9,0-5-1-6.3-3.1
	C324.8,265.3,324.2,262.2,324.2,258.1 M318.7,258.1c0,5.2,1.2,9.3,3.5,12c2.3,2.8,5.8,4.2,10.3,4.2c4.6,0,8.1-1.3,10.5-4
	c2.4-2.7,3.6-6.7,3.6-12.2c0-5.5-1.1-9.6-3.4-12.2c-2.2-2.6-5.8-3.9-10.5-3.9C323.4,242,318.7,247.3,318.7,258.1 M13.9,212.5
	c0.5-0.7,1-1.5,1.6-2.1c4.3-5.3,8.6-10.7,13-16c1.1-1.3,1.7-2.6,1.6-4.3c-0.1-2.6,0-5.3,0-7.9c0-3.2,0-3.2,3-4c3.6-1,7.2-2,10.9-2.8
	c1.7-0.4,3.1-1.2,4.3-2.5c4.8-4.9,9.7-9.7,14.6-14.5c0.6-0.6,1.3-1.2,2-1.8c0.2,0.1,0.4,0.2,0.5,0.3c-1.9,5.3-3.8,10.6-5.8,16.1
	c3.7,0.4,7.1,0.8,11.2,1.2c-1,1-1.6,1.6-2.2,2.1c-5.5,4.5-11.1,9-16.7,13.5c-1.6,1.3-2.8,2.7-3.8,4.5c-2.6,4.7-5.3,9.3-8,13.9
	c-0.5,0.8-1,1.6-1.7,2.7c-2.2-2.8-4.1-5.4-6.3-8.2c-5.9,3.5-11.9,7-17.8,10.5C14.1,212.9,14,212.7,13.9,212.5 M45.7,260.4
	c0.8-1,1.5-2.1,2.3-3.1c6.1-7.6,12.3-15.2,18.5-22.8c1.5-1.9,2.4-3.7,2.3-6.2c-0.2-3.7,0-7.5,0-11.2c0-4.6,0-4.6,4.3-5.7
	c5.2-1.4,10.3-2.8,15.5-4.1c2.5-0.6,4.4-1.8,6.1-3.5c6.9-7,13.8-13.8,20.8-20.7c0.9-0.9,1.9-1.8,2.9-2.6c0.3,0.1,0.5,0.3,0.8,0.4
	c-2.7,7.6-5.4,15.2-8.2,23c5.3,0.6,10.2,1.1,16,1.7c-1.5,1.4-2.2,2.2-3.1,2.9c-7.9,6.4-15.8,12.9-23.7,19.2c-2.3,1.8-4,3.9-5.4,6.4
	c-3.7,6.6-7.6,13.2-11.5,19.8c-0.7,1.1-1.4,2.2-2.4,3.9c-3.1-4-5.9-7.7-9-11.7c-8.5,5-16.9,10-25.3,14.9
	C46.1,260.9,45.9,260.7,45.7,260.4 M129.8,35.5c-1.5,2.5-2.9,5-4.4,7.5c-0.3,0.5-0.6,0.9-1,1.7c-1.2-1.6-2.3-3-3.4-4.5
	c-3.2,1.9-6.4,3.8-9.5,5.6c-0.1-0.1-0.2-0.2-0.2-0.2c0.2-0.3,0.4-0.7,0.7-1c2.3-2.9,4.7-5.8,7-8.7c0.6-0.7,0.9-1.5,0.9-2.5
	c0-1.9,0.1-3.9,0.1-5.9c1.3-0.4,2.6-0.7,3.8-1.1c1.6-0.5,3.4-0.6,4.8-1.4c1.4-0.8,2.4-2.2,3.5-3.3c1.8-1.8,3.6-3.6,5.4-5.4
	c0.4-0.4,0.7-0.7,1.2-0.9c-0.7,3-2,5.8-3,8.8c2,0.2,3.9,0.4,6.1,0.7c-0.7,0.6-1.1,1-1.5,1.3c-2.9,2.4-5.9,4.7-8.8,7.1
	C130.9,34,130.3,34.7,129.8,35.5 M150.3,220c1-1.3,1.9-2.7,3-4c8.1-10.1,16.2-20.2,24.5-30.1c2-2.4,3.2-4.9,3-8.1
	c-0.2-5,0-9.9,0-14.9c0-6.1,0-6.1,5.6-7.6c6.8-1.8,13.6-3.8,20.5-5.4c3.2-0.8,5.8-2.3,8.1-4.7c9.1-9.2,18.3-18.3,27.5-27.4
	c1.2-1.2,2.5-2.3,3.8-3.5c0.3,0.2,0.7,0.4,1,0.6c-3.6,10-7.2,20.1-10.9,30.4c7,0.8,13.5,1.5,21.1,2.3c-2,1.9-3,3-4.1,3.9
	c-10.4,8.5-20.9,17-31.4,25.4c-3,2.4-5.3,5.1-7.1,8.4c-5,8.8-10.1,17.5-15.1,26.2c-0.9,1.5-1.8,3-3.2,5.1
	c-4.1-5.3-7.8-10.1-11.9-15.4c-11.2,6.6-22.4,13.2-33.5,19.8C150.8,220.7,150.6,220.3,150.3,220 M97,66.7c2.6,0.3,5.1,0.6,8,0.9
	c-0.9,0.8-1.5,1.3-2,1.8c-3.9,3.1-7.7,6.2-11.5,9.4c-0.9,0.8-1.8,1.8-2.4,2.9c-2,3.3-3.8,6.6-5.8,9.9c-0.4,0.6-0.8,1.2-1.3,2.2
	c-1.6-2.1-3-3.9-4.5-5.9c-4.2,2.5-8.4,4.9-12.5,7.4c-0.1-0.1-0.2-0.2-0.3-0.3c0.3-0.5,0.6-0.9,0.9-1.4c3.1-3.8,6.1-7.6,9.2-11.4
	c0.8-1,1.2-2,1.2-3.3c0-2.5,0.1-5.1,0.1-7.8c1.7-0.5,3.4-0.9,5.1-1.4c2.1-0.6,4.5-0.8,6.3-1.9c1.8-1,3.1-2.9,4.7-4.4
	c2.4-2.4,4.7-4.7,7.1-7.1c0.5-0.5,1-0.9,1.6-1.2C99.9,59.1,98.3,62.7,97,66.7 M55.9,121.1c3.4-3.5,6.9-6.9,10.4-10.4
	c0.5-0.5,1-0.9,1.4-1.3c0.1,0.1,0.3,0.1,0.4,0.2c-1.4,3.8-2.7,7.6-4.1,11.5c2.6,0.3,5.1,0.6,8,0.9c-0.7,0.7-1.1,1.1-1.6,1.5
	c-3.9,3.2-7.9,6.4-11.9,9.6c-1.1,0.9-2,1.9-2.7,3.2c-1.9,3.3-3.8,6.6-5.7,9.9c-0.3,0.6-0.7,1.1-1.2,1.9c-1.5-2-3-3.8-4.5-5.8
	c-4.2,2.5-8.4,5-12.6,7.5c-0.1-0.1-0.2-0.2-0.3-0.4c0.4-0.5,0.7-1,1.1-1.5c3.1-3.8,6.1-7.6,9.2-11.4c0.8-0.9,1.2-1.8,1.1-3.1
	c-0.1-1.9,0-3.7,0-5.6c0-2.3,0-2.3,2.1-2.9c2.6-0.7,5.2-1.4,7.8-2C54.1,122.6,55,122,55.9,121.1 M0,273.9h271.4V2.6H0V273.9z
	 M305.1,242.5h-4.4v3.8h4.4v27.4h5.2v-27.4h6.1v-3.8h-6.1v-2.8c0-1.8,0.3-3,0.9-3.7c0.6-0.7,1.6-1,2.9-1c0.7,0,1.4,0.1,2.3,0.2v-4
	c-1-0.2-2.2-0.3-3.7-0.3c-2.6,0-4.5,0.6-5.7,1.9s-1.9,3.3-1.9,6.1V242.5z M335.5,167.4h-30.8V208h32v-4.5h-26.5v-14.2h23.6v-4.4
	h-23.6v-13h25.3V167.4z M305,130.9h105.2V110H332V76h68.8V55.2H332V22.8h74.4V1.9H305V130.9z M541.4,81.2V1.9h-27v77.6
	c0,10.3-2.6,18.2-7.8,23.7c-5.2,5.5-12.6,8.3-22.2,8.3c-9.4,0-16.5-2.6-21.4-7.9c-4.9-5.3-7.3-13-7.3-23.2V1.9h-27v80.6
	c0,16.1,4.7,28.5,14.1,37.2c9.4,8.7,23,13,40.8,13c18.3,0,32.5-4.5,42.6-13.5C536.3,110.2,541.4,97.5,541.4,81.2 M559.9,208h5.2
	v-20.8c0-3.9-0.8-6.7-2.4-8.4c-1.6-1.7-4.1-2.6-7.5-2.6c-2.3,0-4.3,0.4-5.8,1.3c-1.6,0.9-2.9,2.4-4.1,4.6h-0.1
	c0-1.5-0.1-2.6-0.1-3.1c0-0.5-0.1-1-0.1-1.5c0-0.4,0-0.7-0.1-0.8H540c0.1,0.8,0.2,3,0.2,6.7V208h5.2v-18.1c0-3,0.7-5.4,2.2-7.1
	c1.4-1.7,3.4-2.6,5.9-2.6c1.7,0,3,0.3,3.9,0.8c0.9,0.5,1.5,1.3,1.9,2.5c0.4,1.1,0.6,2.7,0.6,4.8V208z M643.9,130.9h31.7V1.9h-24v75
	c0,7.6,0.6,16,1.6,25.2l-57-100.1h-30.8v128.9h24v-76c0-5.9-0.5-13.6-1.6-23.2L643.9,130.9z M671.5,208h5.2v-20.8
	c0-3.9-0.8-6.7-2.4-8.4c-1.6-1.7-4.1-2.6-7.5-2.6c-2.3,0-4.3,0.4-5.8,1.3c-1.6,0.9-2.9,2.4-4.1,4.6h-0.1c0-1.5-0.1-2.6-0.1-3.1
	c0-0.5-0.1-1-0.1-1.5c0-0.4,0-0.7-0.1-0.8h-4.9c0.1,0.8,0.2,3,0.2,6.7V208h5.2v-18.1c0-3,0.7-5.4,2.2-7.1c1.4-1.7,3.4-2.6,5.9-2.6
	c1.7,0,3,0.3,3.9,0.8c0.9,0.5,1.5,1.3,1.9,2.5c0.4,1.1,0.6,2.7,0.6,4.8V208z M703.5,178.1c-2-1.2-4.8-1.8-8.2-1.8
	c-3.9,0-6.8,0.7-8.9,2.2c-2,1.5-3,3.7-3,6.5c0,1.5,0.4,2.8,1.1,3.9c0.7,1.1,1.7,2,3,2.7c1.3,0.7,3.4,1.5,6.4,2.3l3.7,1
	c1.9,0.5,3.2,1.1,4.1,1.9c0.8,0.8,1.3,1.8,1.3,3c0,1.6-0.6,2.8-1.8,3.6c-1.2,0.8-3.1,1.2-5.8,1.2c-2.5,0-4.4-0.4-5.8-1.2
	c-1.4-0.8-2.3-2-2.7-3.7l-4.6,0.9c0.6,2.7,2,4.7,4.1,6c2.1,1.3,5.1,1.9,9,1.9c4,0,7.1-0.8,9.3-2.4c2.2-1.6,3.3-3.9,3.3-6.8
	c0-1.2-0.2-2.3-0.6-3.2c-0.4-0.9-0.9-1.8-1.6-2.5c-0.7-0.7-1.7-1.4-2.9-1.9c-1.2-0.6-3.2-1.2-5.9-1.9c-2.9-0.7-4.8-1.3-5.7-1.7
	c-0.9-0.4-1.6-0.9-2-1.5c-0.5-0.6-0.7-1.3-0.7-2.2c0-1.4,0.6-2.5,1.7-3.2c1.1-0.7,2.8-1.1,5.2-1.1c2.1,0,3.8,0.4,5.1,1.1
	c1.3,0.7,2,1.8,2.3,3.2l4.7-0.6C706.8,181.3,705.5,179.3,703.5,178.1 M702.6,130.9h27V1.9h-27V130.9z M730.4,170.2h5.2v-5h-5.2
	V170.2z M730.4,208h5.2v-31.2h-5.2V208z M755,176.8h-5.8v-7h-3.5l-1.5,7h-3.8v3.8h3.6v20.8c0,4.7,2.1,7.1,6.2,7.1
	c1.8,0,3.5-0.2,5.2-0.7v-3.8c-1.3,0.3-2.3,0.4-3,0.4c-1.2,0-2.1-0.3-2.6-0.9c-0.5-0.6-0.7-1.7-0.7-3.2v-19.7h5.8V176.8z M846.9,42.4
	l23.8-6.5c-3.8-11.8-10.5-20.7-20-26.8C841.1,3,828.8,0,813.7,0c-20.7,0-36.6,5.7-47.5,17c-10.9,11.3-16.4,27.6-16.4,48.8
	c0,21.1,5.7,37.5,17,49.3c11.3,11.7,27.3,17.6,48.1,17.6c13.7,0,25.4-3,35.2-9.1c9.8-6.1,17.2-15.3,22.3-27.8l-23.5-8.9
	c-6.3,16.4-17.7,24.5-34,24.5c-12.3,0-21.6-3.9-28.1-11.7c-6.5-7.8-9.7-19.1-9.7-34c0-14.6,3.2-25.7,9.5-33.2
	c6.3-7.6,15.6-11.3,27.8-11.3c8,0,14.9,1.9,20.8,5.7C840.9,30.8,844.9,35.9,846.9,42.4"/>
</svg>
