<?xml version="1.0" encoding="utf-8"?>
<!-- Generator: Adobe Illustrator 26.0.2, SVG Export Plug-In . SVG Version: 6.00 Build 0)  -->
<svg version="1.1" xmlns="http://www.w3.org/2000/svg" xmlns:xlink="http://www.w3.org/1999/xlink" x="0px" y="0px"
	 viewBox="0 0 206.9291 76.5354" style="enable-background:new 0 0 206.9291 76.5354;" xml:space="preserve">
<style type="text/css">
	.st0{fill:#D10074;}
	.st1{fill:#FFFFFF;}
	.st2{display:none;}
	.st3{display:inline;fill:none;stroke:#009FE3;stroke-width:0.25;stroke-miterlimit:10;}
	.st4{display:inline;opacity:0.4;fill:#009640;}
	.st5{display:inline;fill:none;stroke:#1D71B8;stroke-width:0.25;stroke-miterlimit:10;}
</style>
<g id="Layer_1">
	<g>
		<g>
			<g>
				<path class="st0" d="M93.4587,31.1824c-0.0762,0.1045-0.2563,0.3233-0.3896,0.418c-0.1519,0.1142-0.3799,0.1806-0.5796,0.1806
					h-1.1397c-0.1997,0-0.4277-0.0664-0.5796-0.1806c-0.1333-0.0947-0.3423-0.3418-0.4179-0.4463
					c-0.0474-0.0762-0.1143-0.1719-0.1333-0.2188l0.4941-0.1709c0.0762,0.1612,0.2944,0.3985,0.4468,0.4844
					c0.0473,0.0283,0.1045,0.0381,0.1709,0.0381h1.1494c0.0664,0,0.1138-0.0098,0.1616-0.0381
					c0.1519-0.0859,0.3325-0.2666,0.418-0.4277c0.019-0.0381,0.0283-0.0947,0.0283-0.1612v-0.3417
					c0-0.1905-0.1616-0.3331-0.3608-0.3516l-1.5674-0.1143c-0.4658-0.0381-0.8267-0.3994-0.8267-0.8642v-0.2852
					c0-0.1904,0.0474-0.3613,0.1426-0.5039c0.0757-0.1045,0.2563-0.3232,0.3892-0.418c0.1523-0.1142,0.3803-0.1806,0.5795-0.1806
					h0.9883c0.1992,0,0.4273,0.0664,0.5796,0.1806c0.1328,0.0948,0.3511,0.3516,0.4273,0.4561
					c0.0571,0.0762,0.1142,0.1611,0.1328,0.209l-0.4937,0.1709c-0.0761-0.1612-0.3042-0.3985-0.456-0.4844
					c-0.0474-0.0283-0.0952-0.0381-0.1617-0.0381h-1.0068c-0.0664,0-0.1235,0.0098-0.1709,0.0381
					c-0.1523,0.0859-0.3232,0.2568-0.4087,0.418c-0.019,0.0381-0.0283,0.0947-0.0283,0.1611v0.2852
					c0,0.1904,0.1611,0.333,0.3608,0.3515l1.5674,0.124c0.4654,0.0381,0.8267,0.3985,0.8267,0.8643v0.3418
					C93.6013,30.8689,93.5539,31.0398,93.4587,31.1824z"/>
				<path class="st0" d="M99.092,31.7332h-0.7124l-1.0068-3.4863l-0.9693,3.4863h-0.7124l-1.1875-4.085h0.5513l0.9687,3.5342h0.0572
					l0.9311-3.5342h0.7315l0.9687,3.5342h0.0572l0.9311-3.5342h0.5415L99.092,31.7332z"/>
				<path class="st0" d="M101.1911,26.5935v-0.6074h0.5894v0.6074H101.1911z M101.2292,31.7332v-4.085h0.5132v4.085H101.2292z"/>
				<path class="st0" d="M106.1599,31.1824c-0.0762,0.1045-0.2564,0.3233-0.3897,0.418c-0.1518,0.1142-0.3799,0.1806-0.5796,0.1806
					h-1.1396c-0.1997,0-0.4277-0.0664-0.5796-0.1806c-0.1333-0.0947-0.3423-0.3418-0.418-0.4463
					c-0.0473-0.0762-0.1142-0.1719-0.1333-0.2188l0.4942-0.1709c0.0761,0.1612,0.2944,0.3985,0.4468,0.4844
					c0.0473,0.0283,0.1044,0.0381,0.1708,0.0381h1.1495c0.0664,0,0.1137-0.0098,0.1616-0.0381
					c0.1518-0.0859,0.3325-0.2666,0.418-0.4277c0.019-0.0381,0.0283-0.0947,0.0283-0.1612v-0.3417
					c0-0.1905-0.1616-0.3331-0.3609-0.3516l-1.5673-0.1143c-0.4659-0.0381-0.8267-0.3994-0.8267-0.8642v-0.2852
					c0-0.1904,0.0474-0.3613,0.1426-0.5039c0.0757-0.1045,0.2563-0.3232,0.3891-0.418c0.1524-0.1142,0.3804-0.1806,0.5796-0.1806
					h0.9883c0.1992,0,0.4272,0.0664,0.5796,0.1806c0.1328,0.0948,0.3511,0.3516,0.4272,0.4561
					c0.0572,0.0762,0.1143,0.1611,0.1328,0.209L105.78,28.617c-0.0762-0.1612-0.3042-0.3985-0.4561-0.4844
					c-0.0473-0.0283-0.0952-0.0381-0.1616-0.0381h-1.0068c-0.0664,0-0.1236,0.0098-0.1709,0.0381
					c-0.1524,0.0859-0.3233,0.2568-0.4087,0.418c-0.019,0.0381-0.0283,0.0947-0.0283,0.1611v0.2852
					c0,0.1904,0.1611,0.333,0.3608,0.3515l1.5674,0.124c0.4653,0.0381,0.8267,0.3985,0.8267,0.8643v0.3418
					C106.3025,30.8689,106.2551,31.0398,106.1599,31.1824z"/>
				<path class="st0" d="M110.5964,31.1824c-0.0762,0.1045-0.2563,0.3233-0.3896,0.418c-0.1519,0.1142-0.3799,0.1806-0.5796,0.1806
					h-1.1397c-0.1997,0-0.4277-0.0664-0.5796-0.1806c-0.1333-0.0947-0.3423-0.3418-0.4179-0.4463
					c-0.0474-0.0762-0.1143-0.1719-0.1333-0.2188l0.4941-0.1709c0.0762,0.1612,0.2944,0.3985,0.4468,0.4844
					c0.0473,0.0283,0.1045,0.0381,0.1709,0.0381h1.1494c0.0664,0,0.1138-0.0098,0.1616-0.0381
					c0.1519-0.0859,0.3325-0.2666,0.418-0.4277c0.019-0.0381,0.0283-0.0947,0.0283-0.1612v-0.3417
					c0-0.1905-0.1616-0.3331-0.3608-0.3516l-1.5674-0.1143c-0.4658-0.0381-0.8267-0.3994-0.8267-0.8642v-0.2852
					c0-0.1904,0.0474-0.3613,0.1426-0.5039c0.0757-0.1045,0.2563-0.3232,0.3892-0.418c0.1523-0.1142,0.3803-0.1806,0.5795-0.1806
					h0.9883c0.1992,0,0.4273,0.0664,0.5796,0.1806c0.1328,0.0948,0.3511,0.3516,0.4273,0.4561
					c0.0571,0.0762,0.1142,0.1611,0.1328,0.209l-0.4937,0.1709c-0.0762-0.1612-0.3042-0.3985-0.456-0.4844
					c-0.0474-0.0283-0.0952-0.0381-0.1617-0.0381h-1.0068c-0.0664,0-0.1235,0.0098-0.1709,0.0381
					c-0.1523,0.0859-0.3232,0.2568-0.4087,0.418c-0.019,0.0381-0.0283,0.0947-0.0283,0.1611v0.2852
					c0,0.1904,0.1611,0.333,0.3608,0.3515l1.5674,0.124c0.4654,0.0381,0.8267,0.3985,0.8267,0.8643v0.3418
					C110.739,30.8689,110.6916,31.0398,110.5964,31.1824z"/>
				<path class="st0" d="M116.8098,31.7332l-0.0567-0.4746c-0.1152,0.123-0.2578,0.2471-0.3613,0.3222
					c-0.1426,0.1045-0.3047,0.2002-0.4658,0.2002h-0.8359c-0.2188,0-0.4278-0.0664-0.5791-0.1806
					c-0.1241-0.1045-0.3428-0.3418-0.418-0.4463c-0.0957-0.1426-0.1426-0.3135-0.1426-0.5039v-0.1904
					c0-0.1993,0.0469-0.3604,0.1426-0.503c0.0752-0.1045,0.2939-0.3418,0.418-0.4463c0.1513-0.1142,0.3603-0.1806,0.5791-0.1806
					h1.6533v-0.5801c0-0.0752-0.0098-0.1231-0.0196-0.1514c-0.0859-0.1621-0.3037-0.3799-0.456-0.4658
					c-0.0479-0.0283-0.1045-0.0381-0.1709-0.0381h-0.8926c-0.0664,0-0.1142,0.0098-0.1621,0.0381
					c-0.1523,0.0859-0.3516,0.3135-0.4551,0.4746l-0.4941-0.1611c0.0273-0.0479,0.0752-0.1328,0.1426-0.2188
					c0.0849-0.123,0.2939-0.3515,0.4267-0.456c0.1524-0.1133,0.3516-0.1709,0.5703-0.1709h0.8741
					c0.2187,0,0.4365,0.0664,0.5888,0.1806c0.1426,0.086,0.3516,0.3418,0.4268,0.4463c0.1055,0.1426,0.1338,0.3233,0.1338,0.5137
					v2.3174l0.0664,0.6748H116.8098z M116.7434,30.6785V29.824h-1.6446c-0.0664,0-0.123,0.0088-0.1699,0.0381
					c-0.1523,0.085-0.3515,0.2842-0.4375,0.4463c-0.0195,0.0381-0.0283,0.0849-0.0283,0.1514v0.1904
					c0,0.0664,0.0088,0.1142,0.0283,0.1523c0.086,0.1612,0.2852,0.3604,0.4375,0.4463c0.0469,0.0283,0.1035,0.0381,0.1699,0.0381
					h0.7989c0.0468,0,0.0947-0.0098,0.1328-0.0283C116.1828,31.1824,116.6194,30.907,116.7434,30.6785z"/>
				<path class="st0" d="M121.132,28.6072c-0.0957-0.1416-0.3046-0.3887-0.456-0.4746c-0.0479-0.0283-0.1045-0.0381-0.1709-0.0381
					h-0.4658c-0.0479,0-0.1045,0.0098-0.1426,0.0283c-0.1611,0.086-0.5889,0.3428-0.7217,0.5801v3.0303h-0.5137V28.323
					l-0.0566-0.6748h0.5137l0.0566,0.4844c0.1231-0.123,0.2461-0.2568,0.3613-0.332c0.1329-0.0957,0.3125-0.2002,0.4747-0.2002
					h0.4746c0.2089,0,0.4277,0.0664,0.58,0.1806c0.1329,0.0948,0.3418,0.3516,0.418,0.4561
					c0.0567,0.0762,0.1133,0.1611,0.1426,0.209L121.132,28.6072z"/>
				<path class="st0" d="M123.4582,28.1424v2.4316c0,0.0664,0.0098,0.1426,0.0293,0.1807c0.086,0.1611,0.2754,0.3613,0.4278,0.4463
					c0.0468,0.0283,0.123,0.038,0.1894,0.038h0.5986v0.4942h-0.6084c-0.2089,0-0.4277-0.0664-0.5791-0.1807
					c-0.1328-0.0947-0.3515-0.3515-0.4267-0.456c-0.0957-0.1426-0.1426-0.3135-0.1426-0.503v-2.4511h-0.6758v-0.4942h0.6758V26.033
					h0.5117v1.6152h1.2549v0.4942H123.4582z"/>
				<path class="st0" d="M128.8176,31.1824c-0.0762,0.1045-0.2568,0.3233-0.3906,0.418c-0.1514,0.1142-0.3789,0.1806-0.5791,0.1806
					h-1.1397c-0.1992,0-0.4277-0.0664-0.5801-0.1806c-0.1328-0.0947-0.3418-0.3418-0.4179-0.4463
					c-0.0469-0.0762-0.1133-0.1719-0.1328-0.2188l0.4941-0.1709c0.0762,0.1612,0.2949,0.3985,0.4473,0.4844
					c0.0468,0.0283,0.1035,0.0381,0.1699,0.0381h1.1504c0.0664,0,0.1133-0.0098,0.1611-0.0381
					c0.1514-0.0859,0.333-0.2666,0.418-0.4277c0.0185-0.0381,0.0283-0.0947,0.0283-0.1612v-0.3417
					c0-0.1905-0.1621-0.3331-0.3613-0.3516l-1.5664-0.1143c-0.4668-0.0381-0.8272-0.3994-0.8272-0.8642v-0.2852
					c0-0.1904,0.0479-0.3613,0.1426-0.5039c0.0752-0.1045,0.2568-0.3232,0.3896-0.418c0.1524-0.1142,0.3799-0.1806,0.5791-0.1806
					h0.9883c0.1992,0,0.4268,0.0664,0.5791,0.1806c0.1328,0.0948,0.3516,0.3516,0.4278,0.4561
					c0.0566,0.0762,0.1142,0.1611,0.1328,0.209l-0.4942,0.1709c-0.0761-0.1612-0.3037-0.3985-0.455-0.4844
					c-0.0479-0.0283-0.0957-0.0381-0.1622-0.0381h-1.0068c-0.0664,0-0.124,0.0098-0.1709,0.0381
					c-0.1523,0.0859-0.3232,0.2568-0.4082,0.418c-0.0195,0.0381-0.0293,0.0947-0.0293,0.1611v0.2852
					c0,0.1904,0.1621,0.333,0.3613,0.3515l1.5674,0.124c0.4658,0.0381,0.8272,0.3985,0.8272,0.8643v0.3418
					C128.9602,30.8689,128.9123,31.0398,128.8176,31.1824z"/>
				<path class="st0" d="M135.0578,31.6004c-0.1523,0.1142-0.3701,0.1806-0.5791,0.1806h-0.9697
					c-0.209,0-0.4365-0.0664-0.5879-0.1806c-0.1328-0.0947-0.3516-0.3516-0.4277-0.4561c-0.0957-0.1426-0.1328-0.3135-0.1328-0.5039
					V28.741c0-0.1904,0.0371-0.3613,0.1328-0.5039c0.0761-0.1045,0.2949-0.3613,0.4277-0.4561
					c0.1514-0.1142,0.3789-0.1806,0.5879-0.1806h0.9414c0.209,0,0.4277,0.0664,0.5791,0.1806
					c0.2373,0.1709,0.4365,0.4756,0.5606,0.6748l-0.4942,0.1612c-0.0752-0.1612-0.3037-0.3985-0.456-0.4844
					c-0.0469-0.0283-0.1036-0.0381-0.1709-0.0381h-0.9502c-0.0664,0-0.1231,0.0098-0.17,0.0381
					c-0.1523,0.0859-0.3613,0.3037-0.4472,0.4658c-0.0196,0.0381-0.0283,0.0948-0.0283,0.1612v1.8623
					c0,0.0664,0.0087,0.123,0.0283,0.1611c0.0859,0.1621,0.2851,0.3799,0.4375,0.4658c0.0469,0.0283,0.1035,0.0381,0.1699,0.0381
					h0.9883c0.0664,0,0.124-0.0098,0.1719-0.0381c0.1513-0.0859,0.3789-0.3232,0.4453-0.4658l0.0097-0.0186l0.4942,0.1709
					C135.5051,31.1443,135.2863,31.4383,135.0578,31.6004z"/>
				<path class="st0" d="M139.8078,31.1443c-0.0752,0.1045-0.2939,0.3614-0.4267,0.4561c-0.1514,0.1142-0.3799,0.1806-0.5889,0.1806
					h-0.9502c-0.209,0-0.4365-0.0664-0.5889-0.1806c-0.1328-0.0947-0.3515-0.3516-0.4277-0.4561
					c-0.0947-0.1426-0.1328-0.3135-0.1328-0.5039V28.741c0-0.1904,0.0381-0.3613,0.1328-0.5039
					c0.0762-0.1045,0.2949-0.3613,0.4277-0.4561c0.1524-0.1142,0.3799-0.1806,0.5889-0.1806h0.9502
					c0.209,0,0.4375,0.0664,0.5889,0.1806c0.1328,0.0948,0.3515,0.3516,0.4267,0.4561c0.0957,0.1426,0.1338,0.3135,0.1338,0.5039
					v1.8994C139.9416,30.8308,139.9035,31.0017,139.8078,31.1443z M139.4289,28.7596c0-0.0664,0-0.1231-0.0195-0.1612
					c-0.0859-0.1621-0.3037-0.3799-0.4561-0.4658c-0.0478-0.0283-0.1045-0.0381-0.1709-0.0381h-0.9316
					c-0.0664,0-0.123,0.0098-0.1699,0.0381c-0.1524,0.0859-0.3614,0.3037-0.4473,0.4658c-0.0185,0.0381-0.0283,0.0948-0.0283,0.1612
					v1.8623c0,0.0664,0.0098,0.123,0.0283,0.1611c0.0859,0.1621,0.2949,0.3799,0.4473,0.4658
					c0.0469,0.0283,0.1035,0.0381,0.1699,0.0381h0.9316c0.0664,0,0.1231-0.0098,0.1709-0.0381
					c0.1524-0.0859,0.3702-0.3037,0.4561-0.4658c0.0195-0.0381,0.0195-0.0947,0.0195-0.1611V28.7596z"/>
				<path class="st0" d="M143.9309,31.7332l-0.0567-0.4746c-0.1132,0.123-0.247,0.2471-0.3515,0.3222
					c-0.1328,0.0957-0.3135,0.2002-0.4746,0.2002h-0.7129c-0.209,0-0.4366-0.0664-0.5889-0.1806
					c-0.1328-0.0947-0.3516-0.3516-0.4268-0.4561c-0.0957-0.1426-0.1337-0.3135-0.1337-0.5039v-2.9922h0.5127v2.9737
					c0,0.0664,0,0.123,0.0195,0.1611c0.0859,0.1621,0.3037,0.3799,0.456,0.4658c0.0479,0.0283,0.1045,0.0381,0.1709,0.0381h0.6739
					c0.0488,0,0.0957-0.0098,0.1338-0.0283c0.1611-0.086,0.5693-0.3428,0.7119-0.5703v-3.0401h0.5136v3.4102l0.0664,0.6748H143.9309
					z"/>
				<path class="st0" d="M148.4719,31.7332v-2.9736c0-0.0664,0-0.1231-0.0186-0.1612c-0.0849-0.1621-0.3037-0.3799-0.456-0.4658
					c-0.0469-0.0283-0.1045-0.0381-0.1709-0.0381h-0.6748c-0.0469,0-0.0947,0.0098-0.1328,0.0283
					c-0.1621,0.086-0.5703,0.3428-0.7129,0.5704v3.04h-0.5127V28.323l-0.0664-0.6748h0.5127l0.0566,0.4746
					c0.1152-0.123,0.2481-0.247,0.3516-0.3222c0.1338-0.0957,0.3144-0.2002,0.4756-0.2002h0.7119
					c0.209,0,0.4375,0.0664,0.5898,0.1806c0.1328,0.0948,0.3516,0.3516,0.4278,0.4561c0.0947,0.1426,0.1328,0.3135,0.1328,0.5039
					v2.9922H148.4719z"/>
				<path class="st0" d="M152.9944,31.6004c-0.1524,0.1142-0.3702,0.1806-0.5791,0.1806h-0.9698
					c-0.209,0-0.4365-0.0664-0.5888-0.1806c-0.1329-0.0947-0.3516-0.3516-0.4278-0.4561c-0.0947-0.1426-0.1328-0.3135-0.1328-0.5039
					V28.741c0-0.1904,0.0381-0.3613,0.1328-0.5039c0.0762-0.1045,0.2949-0.3613,0.4278-0.4561
					c0.1523-0.1142,0.3798-0.1806,0.5888-0.1806h0.9405c0.2089,0,0.4277,0.0664,0.58,0.1806
					c0.2373,0.1709,0.4366,0.4756,0.5606,0.6748l-0.4942,0.1612c-0.0761-0.1612-0.3046-0.3985-0.456-0.4844
					c-0.0479-0.0283-0.1045-0.0381-0.1709-0.0381h-0.9502c-0.0664,0-0.124,0.0098-0.1709,0.0381
					c-0.1524,0.0859-0.3613,0.3037-0.4473,0.4658c-0.0185,0.0381-0.0273,0.0948-0.0273,0.1612v1.8623
					c0,0.0664,0.0088,0.123,0.0273,0.1611c0.086,0.1621,0.2852,0.3799,0.4375,0.4658c0.0469,0.0283,0.1045,0.0381,0.1709,0.0381
					h0.9883c0.0664,0,0.124-0.0098,0.1709-0.0381c0.1523-0.0859,0.3799-0.3232,0.4463-0.4658l0.0098-0.0186l0.4941,0.1709
					C153.4406,31.1443,153.2219,31.4383,152.9944,31.6004z"/>
				<path class="st0" d="M154.7229,26.5935v-0.6074h0.5888v0.6074H154.7229z M154.761,31.7332v-4.085h0.5136v4.085H154.761z"/>
				<path class="st0" d="M156.7746,31.7332c-0.0185-0.1611-0.0849-0.3701-0.0849-0.5322v-5.168h0.5127v5.0537
					c0,0.21,0.0664,0.4375,0.0859,0.6465H156.7746z"/>
			</g>
		</g>
		<g>
			<path class="st0" d="M84.6775,50.448h-2.4224v-2.4355h-2.8628v0.375c0,1.7607,1.2305,2.9922,2.9932,2.9922h2.1474
				c1.7642,0,2.9947-1.2315,2.9947-2.9922v-0.375h-2.8501V50.448z M84.5329,42.4051h-2.1474c-1.7627,0-2.9932,1.2343-2.9932,2.9931
				v0.3428h2.8413v-2.4023h2.4439v2.4023h2.8501v-0.3428C87.5276,43.6394,86.2971,42.4051,84.5329,42.4051z"/>
			<path class="st0" d="M66.5798,49.4451h-2.1484c-0.711,0-1.0572-0.3447-1.0572-1.0576v-2.9893
				c0-0.7119,0.3462-1.0556,1.0572-1.0556h2.1484c0.6914,0,1.0562,0.3652,1.0562,1.0556v2.9893
				C67.636,49.0779,67.2712,49.4441,66.5798,49.4451z M66.5798,42.3562h-2.1484c-1.792,0-3.0415,1.252-3.0415,3.042v9.4502
				l1.9843,0.002c0,0,0-3.6114,0-3.624c0.0049,0.0185,0.083,0.0439,0.083,0.0439c0.3619,0.1074,0.6705,0.1582,0.9742,0.1582h2.1484
				c1.7915,0,3.0415-1.249,3.0415-3.041v-2.9893C69.6213,43.6082,68.3713,42.3562,66.5798,42.3562z"/>
			<path class="st0" d="M95.591,42.3562h-2.1479c-0.2798,0-0.6001,0.0567-0.9727,0.17l-0.104,0.0283v-3.4502h-1.9497
				l-0.0141,12.3242h1.9638v-6.0303c0-0.6797,0.3828-1.0556,1.0767-1.0556h2.1479c0.7124,0,1.0576,0.3437,1.0576,1.0556v6.0303
				h1.9844v-6.0303C98.633,43.6082,97.383,42.3562,95.591,42.3562z"/>
			<path class="st0" d="M149.3459,51.4285h1.9678v-9.0703l-1.9688-0.002L149.3459,51.4285z M151.3137,39.116h-1.9678l-0.001,2.0869
				h1.9688V39.116z"/>
			<path class="st0" d="M146.2678,44.3426l0.0029-1.9844l-2.6982-0.002V39.116h-1.9815l-0.0029,3.2422l-1.7344-0.002v1.9864h1.7373
				l-0.0029,4.0449c0,1.8183,1.2236,3.041,3.0439,3.041h1.6036v-1.9687l-1.6036,0.0009c-0.7128,0-1.0595-0.3603-1.0595-1.0732
				v-4.0449H146.2678z"/>
			<path class="st0" d="M115.5627,49.4607c-0.7109,0-1.0557-0.3603-1.0557-1.0732v-9.2637h-1.9707l-0.0019,9.2637
				c0,1.8183,1.208,3.041,3.0283,3.041h1.6289v-1.9687L115.5627,49.4607z"/>
			<path class="st0" d="M75.1828,42.364c-1.8193,0-3.0429,1.2247-3.0429,3.0411v6.0234h1.9853v-6.0234
				c0-0.711,0.3467-1.0567,1.0576-1.0567h2.3853V42.366L75.1828,42.364z"/>
			<path class="st0" d="M125.3606,42.365l-0.8848,3.1416l-0.9453,3.4063c-0.1602,0.5449-0.1719,0.5898-0.5654,0.5898
				c-0.3868,0-0.4053-0.0342-0.5323-0.4824l-1.8554-6.6553h-2.0704l1.9961,7.1026c0.4278,1.4902,1.0723,2.0195,2.462,2.0195
				c1.3896,0,2.0371-0.5391,2.4658-2.0586l1.9844-7.0635H125.3606z"/>
			<path class="st0" d="M104.5197,44.2293h2.1485c0.7773,0,1.1719,0.3945,1.1719,1.1689v0.6065h-4.4893v-0.6065
				C103.3508,44.6433,103.7658,44.2293,104.5197,44.2293z M106.6682,42.3562h-2.1485c-1.79,0-3.04,1.252-3.04,3.042v2.9893
				c0,1.792,1.25,3.041,3.04,3.041h4.7256v-1.9687l-4.8154,0.0009c-0.6924,0-1.0576-0.3828-1.0576-1.0732V47.867h4.9531
				c0.668,0,1.3848-0.5244,1.3848-1.3955v-1.0733C109.7102,43.6082,108.4602,42.3562,106.6682,42.3562z"/>
			<path class="st0" d="M131.3352,45.5848c0-0.8243,0.459-1.3555,1.1699-1.3555h2.1484c0.7754,0,1.169,0.3945,1.169,1.1689v0.6065
				h-4.4873V45.5848z M134.6535,42.3562h-2.1484c-1.792,0-3.043,1.252-3.043,3.042v2.9893c0,1.792,1.251,3.041,3.043,3.041h4.7236
				v-1.9687l-4.8134,0.0009c-0.6915,0-1.0567-0.3828-1.0567-1.0732v-0.5283h4.9531c0.6661,0,1.3848-0.5166,1.3848-1.3877v-1.0733
				C137.6965,43.6082,136.4445,42.3562,134.6535,42.3562z"/>
			<path class="st0" d="M159.7395,49.5594h-2.6748c-1.0498,0-1.169-0.5127-1.169-0.8985c0-0.6465,0.1924-0.8144,1.0362-0.8984
				l3.083-0.333c0.0019,0,0.3857-0.0869,0.4043-0.0908l0.0019,1.5546C160.4211,49.3592,160.2043,49.5594,159.7395,49.5594z
				 M159.2707,42.3562h-3.9824v1.9864h3.9824c0.6035,0,0.9414,0.2812,1.002,0.8369v0.1357
				c-0.0215,0.1192-0.1153,0.208-0.5049,0.2656l-3.0156,0.3096c-2.375,0.2569-2.7295,1.8438-2.7295,2.7705
				c0,1.9121,1.5263,2.7676,3.042,2.7676h2.6748c1.4941,0,2.5332-1.043,2.5332-2.5352v-3.4951
				C162.2727,43.6082,161.0403,42.3562,159.2707,42.3562z"/>
		</g>
	</g>
</g>
<g id="Guides" class="st2">
</g>
</svg>
