<?xml version="1.0" encoding="UTF-8"?>
<svg id="Layer_1" data-name="Layer 1" xmlns="http://www.w3.org/2000/svg" viewBox="0 0 576.27 388.81">
  <defs>
    <style>
      .cls-1 {
        fill: #fff;
      }
    </style>
  </defs>
  <path class="cls-1" d="m274.08,238.96h36.5c0-9.29-7.03-16.78-16.78-16.78-11.34,0-17.91,5.89-19.72,16.78m65.52,32.19c-.23-1.13-.23-2.49-.23-3.63h36.5c.23,3.4,1.81,6.35,4.53,8.84,2.04,1.81,5.67,2.95,10.2,2.95,4.99,0,12.92-2.04,12.92-7.71s-3.17-7.48-21.08-10.65c-18.82-3.17-30.15-8.16-36.05-15.87.45,4.31.91,8.84.91,13.83h-73.45c.91,11.34,7.48,19.5,19.5,19.5,6.12,0,12.92-2.27,16.1-7.25h30.15Zm-153.02-45.79c-10.88,0-16.32,9.29-16.32,19.95,0,11.34,3.4,24.48,17.23,24.48s15.64-13.6,15.64-24.71c.23-11.11-5.21-19.72-16.55-19.72m-42.62-69.6v-9.29c-4.53,2.27-9.75,3.63-14.96,4.76-8.39,2.04-12.92,4.08-12.92,10.88,0,4.53,4.99,9.29,12.02,9.29,8.61,0,15.19-5.21,15.87-15.64M576.27,0H109.5c-19.72,0-37.63,12.26-45.34,30.4l-7.48,17.68c4.76-.68,9.97-.91,16.1-.91s12.02.68,17.91.91v27.66c-3.17-.45-6.35-1.36-9.75-1.36-9.75,0-12.92,2.95-12.24,12.47h21.08v14.06c2.49-2.49,5.67-4.76,9.07-6.35,9.75-4.53,22.44-5.89,34.23-5.89,47.83,0,47.61,19.95,47.61,39.22v41.03c0,6.8.45,14.51,3.63,20.63V53.75h38.31v66.65l24.26-29.02h43.3l-35.82,37.86,41.26,62.34h-46.02l-20.4-36.27-6.8,7.25v29.02h-76.17c-.91-2.72-1.59-6.8-1.36-9.52h-.45c-8.16,9.29-19.95,12.02-32.19,12.02-19.27,0-35.37-9.29-35.37-30.38,0-31.74,37.18-30.6,56.68-34.23,5.21-.91,10.43-2.49,10.43-8.84,0-6.8-6.35-9.29-12.47-9.29-11.79,0-14.06,5.89-14.28,10.2h-35.59c.23-3.85.91-7.25,1.81-10.2h-13.83v80.25H29.7v-68.46L0,199.97h68.69v52.82c0,11.56,1.36,19.72,12.47,19.72,6.57,0,15.19-3.17,15.19-19.27v-52.82h38.31v27.2c5.44-17.23,19.27-29.7,40.81-29.7,11.11,0,21.76,4.53,26.3,14.74h.45v-12.24h38.31v31.74c7.03-19.95,25.16-34.23,49.87-34.23,26.98,0,43.53,10.2,51.46,29.02,2.04-22.9,27.88-29.02,47.15-29.02,21.54,0,47.61,5.89,48.74,31.74h-34.69c-.23-3.17-2.04-5.89-4.53-7.48-2.27-2.04-5.44-2.95-8.39-2.95-5.44,0-11.56,1.13-11.56,7.71,0,2.95,2.27,4.31,4.53,5.21,6.35,2.72,20.86,3.4,33.55,7.71,10.2,3.17,19.5,8.84,22.67,19.5v-58.94h38.31v100.2h-38.31v-23.35c-5.44,20.18-28.56,25.84-49.87,25.84-19.72,0-41.03-6.57-47.83-24.03-9.52,16.32-28.11,24.03-48.06,24.03-25.16,0-45.57-11.79-53.05-33.1v17.68c0,19.95-5.21,47.83-52.14,47.83-23.8,0-48.97-6.35-52.37-33.32h37.86c.45.91,1.36,2.27,2.04,3.4,2.27,3.4,6.35,7.25,11.11,7.25,12.47,0,14.96-14.74,14.96-22.9v-9.29h-.45c-6.12,8.84-15.42,13.83-26.75,13.83-21.99,0-34.91-12.24-40.13-29.47v35.37h-36.5v-12.7h-.45c-7.25,9.97-17.46,15.19-32.64,15.19-12.47,0-24.26-5.44-30.38-16.55L0,388.81h576.05l.23-388.81Zm-248.46,85.26c0,20.4-4.53,37.18-35.59,41.49v-16.78c11.34-1.36,15.64-8.16,15.87-18.14h-15.87v-38.09h35.59v31.51Z"/>
</svg>