<?xml version="1.0" encoding="UTF-8"?>
<svg id="Layer_1" data-name="Layer 1" xmlns="http://www.w3.org/2000/svg" viewBox="0 0 841.89 493.63">
  <defs>
    <style>
      .cls-1 {
        fill: #043673;
      }
    </style>
  </defs>
  <path class="cls-1" d="M157.2,329.49c1.82,0,2.67-2.02,6.97-14.3,6.49-18.63,23.28-71.52,30.62-92.63,3.14-9.15,5.81-16.12,10.79-17.95,1.84-.68,4.98-.84,5.66-.84.99,0,1.51-.5,1.51-1.33,0-.67-.85-1.01-2.34-1.01-5.14,0-12.31.5-13.46.5-1.49,0-8.48-.5-16.98-.5-1.98,0-2.82.34-2.82,1.17,0,.66.66,1.17,1.5,1.17,7.63,0,9.47,2,9.47,4.98,0,2.17-.15,4.5-1.84,10.65-5.83,21.3-21.12,69.51-25.59,84.81h-.7l-33.08-94.29c-2-5.65-3.01-7.81-4.15-7.81-1.02,0-1.65.83-4.18,7.65l-35.23,94.79h-.36c-2.47-8.81-19.76-69.85-22.26-80.49-1.67-7.32-3.18-13.13-3.18-15.3s1.17-3.48,2.19-3.98c1.97-1,5.15-1,6.47-1,.84,0,1.66-.18,1.66-1.17,0-.67-.66-1.17-2.98-1.17-8.34,0-15.64.5-17.13.5-1.85,0-10.97-.5-19.62-.5-1.66,0-2.67.34-2.67,1.17,0,.98.68,1.17,1.52,1.17,1.15,0,5.31.16,7.49,1,4.29,1.67,6.47,4.16,9.15,12.98l29.58,98.61c3.34,11.3,4.16,13.13,5.83,13.13,2,0,2.8-1.83,5.46-8.82,6.02-15.48,28.79-76.33,34.79-92.3h.3l32.6,92.46c2.34,6.49,3.32,8.66,5,8.66Z"/>
  <path class="cls-1" d="M273.63,324.83c-1.5,0-5.13-.32-7.47-.66-4.99-.66-5.99-4.35-6.48-9.16-.85-6.97-.85-20.11-.85-36.08v-29.26c0-25.95,0-30.6.33-35.91.32-5.83,1.66-8.66,6.15-9.5,2.01-.34,2.99-.48,4.16-.48.68,0,1.31-.34,1.31-1.02,0-.97-.81-1.31-2.63-1.31-5,0-15.48.49-16.3.49s-11.31-.49-16.79-.49c-1.85,0-2.69.34-2.69,1.31,0,.68.67,1.02,1.35,1.02,1.14,0,3.31.14,5.14.65,3.67.84,5.33,3.65,5.69,9.33.32,5.31.32,9.96.32,35.91v29.26c0,15.97,0,29.11-.85,36.08-.67,4.81-1.49,8.5-4.81,9.16-1.52.33-3.49.66-5.01.66-.99,0-1.32.51-1.32,1.01,0,.99.84,1.32,2.66,1.32,5,0,15.46-.5,16.31-.5s11.3.5,20.45.5c1.82,0,2.67-.5,2.67-1.32,0-.5-.34-1.01-1.35-1.01Z"/>
  <path class="cls-1" d="M395.29,200.29c-1.32,0-5.81,1.67-16.45,1.67h-62.34c-2.03,0-8.34-.34-13.16-.84-4.49-.31-6.16-1.99-7.31-1.99-.68,0-1.33,2.17-1.68,3.17-.32,1.32-3.65,15.61-3.65,17.29,0,1,.34,1.48.8,1.48.69,0,1.18-.33,1.7-1.66.49-1.17.98-2.31,2.82-5.14,2.65-3.99,6.64-5.17,16.95-5.31l24.62-.35v70.33c0,15.97,0,29.11-.85,36.09-.65,4.83-1.48,8.48-4.8,9.15-1.5.33-3.49.67-5.01.67-.98,0-1.31.51-1.31,1,0,.99.82,1.33,2.66,1.33,5.01,0,15.47-.49,16.29-.49s11.31.49,20.46.49c1.83,0,2.63-.49,2.63-1.33,0-.49-.3-1-1.31-1-1.5,0-5.13-.34-7.47-.67-5.01-.67-6.02-4.32-6.51-9.15-.82-6.97-.82-20.11-.82-36.09v-70.33l20.96.35c15.95.32,19.77,4.14,20.44,9.12l.19,1.83c.15,2.33.48,2.82,1.32,2.82.66,0,1.13-.65,1.13-2.14,0-1.85.51-13.29.51-18.29,0-1,0-2.01-.83-2.01Z"/>
  <path class="cls-1" d="M493.55,294.9c0-13.32-7.8-23-34.43-38.47l-6.33-3.66c-21.19-12.8-26.04-19.07-26.04-28.55,0-12.15,10.39-19.29,25.98-19.29,20.76,0,23.86,7,25.23,8.83,1.34,1.8,2.69,6.3,2.91,8.3.25,1.32,2.22,2.16,3.59,2.16,1.12,0-.2-1.17-.2-3.81,0-11.32.9-16.8.9-17.64s-.46-1.16-2.25-1.16-3.61-.15-7.89-.82c-5.65-1.02-9.2-1.67-18.01-1.67-28.66,0-44.93,12.14-44.93,29.93,0,11.29,6.03,20.78,29.96,35.26l10.14,6.15c19.4,11.81,25.32,19.3,25.32,30.77,0,10.65-5.04,22.13-26.71,22.13-15.12,0-26.35-4.68-29.76-16.96-.69-2.33-.69-4.66-.69-6.16,0-1.32-.23-1.83-1.58-1.83-1.1,0-1.55.85-1.8,2.67-.22,2.64-1.11,9.3-1.11,17.6,0,4.5.21,5.16,3.36,6.34,9.27,3.33,16,4.49,26.6,4.49,12.19,0,18.82-2,28.5-6.98,15.61-8.15,19.21-20.78,19.21-27.61Z"/>
  <path class="cls-1" d="M82.19,373.97c-1.27,0-3.01.08-4.16.14-.53.02-.92.05-1.05.05-.09,0-.39-.02-.83-.03-1.28-.06-3.66-.16-5.74-.16-1.02,0-1.54.35-1.54,1.05,0,.52.45.91,1.04.91s1.58.07,2.01.18c1.64.34,2.12.99,2.23,3.02.13,1.99.13,3.73.13,13.38v7.74c0,7.28-1.07,11.86-3.48,14.84-2.2,2.64-5.77,4.27-9.32,4.27s-6.08-.55-8.98-3.25c-2.21-2.14-4.47-5.59-4.47-14.93v-8.68c0-9.65,0-11.39.12-13.38.14-2.34.72-2.85,1.84-3.01.7-.12,1.06-.18,1.45-.18.59,0,1.04-.39,1.04-.91,0-.7-.51-1.05-1.53-1.05-1.21,0-3.18.08-4.61.14-.75.03-1.34.05-1.53.05-.17,0-.64-.02-1.29-.04-1.46-.06-3.91-.15-5.85-.15-1.01,0-1.53.35-1.53,1.05,0,.52.45.91,1.05.91.55,0,1.56.06,1.99.18,1.63.35,2.12.99,2.24,3.02.12,1.99.12,3.73.12,13.38v9.05c0,10.09,2.98,14.23,5.57,16.71,4.2,3.96,10.03,4.55,13.13,4.55,3.35,0,8.36-.49,13.14-4.73,5.22-4.63,5.89-12.56,5.89-18.94v-6.64c0-9.65,0-11.39.11-13.38.13-2.28.72-2.8,1.87-3.02.7-.17,1-.17,1.42-.17.6,0,1.05-.39,1.05-.91,0-.7-.52-1.05-1.54-1.05Z"/>
  <path class="cls-1" d="M142.34,373.97c-1.7,0-3.18.08-4.16.14-.5.03-.89.05-1.12.05-.22,0-.68-.02-1.3-.05-1.3-.06-3.26-.14-5.14-.14-.53,0-1.78,0-1.78.98,0,.63.37.99,1.05.99.41,0,1.83.05,2.9.3,1.44.37,1.94,1.19,2,5.38l.66,30.07c-1.1-1.18-2.73-2.97-4.66-5.08-2.76-3.02-6.09-6.68-9.26-10.08-9.27-9.93-18.74-20.16-19.73-21.28-.16-.16-.35-.37-.55-.59-.87-.96-1.43-1.55-2-1.55-1.15,0-1.23,1.44-1.23,3.63l-.06,35.54c0,5.45-.31,7.02-1.49,7.34-.74.25-1.71.34-2.38.34-.6,0-1.03.38-1.03.92,0,1.06,1.12,1.06,1.54,1.06,1.93,0,3.81-.1,4.93-.16.5-.02.85-.04,1.02-.04.15,0,.46.01.89.04,1.09.06,3.13.16,5.69.16,1.1,0,1.66-.36,1.66-1.06,0-.46-.32-.92-1.05-.92s-1.98-.09-2.94-.35c-1.25-.37-1.91-1.5-2.03-6.68l-.76-28.19c2.82,3.17,8.94,9.94,15.2,16.67,6.47,7,15.48,16.17,16.18,16.83,3.49,3.5,4.17,4.12,4.91,4.12,1.07,0,1.11-.95,1.11-4.95l.1-36.33c0-3.82.32-4.66,1.9-4.99.68-.17,1.06-.17,1.36-.17.84,0,1.22-.51,1.22-.99,0-.98-1.21-.98-1.66-.98Z"/>
  <path class="cls-1" d="M171.35,419.97c-.52,0-1.87-.12-2.72-.22-1.41-.2-1.75-1.12-1.96-2.96-.3-2.57-.3-7.58-.3-13.38v-10.9c0-9.65,0-11.39.11-13.38.12-2.07.56-2.78,1.85-3.01.73-.13,1.07-.18,1.44-.18.6,0,1.05-.39,1.05-.91,0-.7-.52-1.05-1.54-1.05-1.32,0-3.65.09-5.05.15-.55.02-.94.04-1.02.04-.08,0-.43-.02-.94-.04-1.34-.06-3.83-.15-5.32-.15-1.01,0-1.53.35-1.53,1.05,0,.52.45.91,1.05.91.46,0,1.21.07,1.79.23.91.21,1.55.8,1.69,2.96.13,1.99.13,3.72.13,13.37v10.9c0,5.8,0,10.82-.32,13.38-.23,1.79-.52,2.79-1.35,2.97-.75.14-1.34.22-1.75.22-.72,0-1.05.48-1.05.92,0,.71.51,1.06,1.53,1.06,1.34,0,3.68-.1,5.09-.16.53-.03.9-.04.99-.04.07,0,.33.01.72.02,1.39.06,4.29.17,6.91.17,1.38,0,1.53-.75,1.53-1.06,0-.45-.32-.92-1.03-.92Z"/>
  <path class="cls-1" d="M228.3,373.97c-1.27,0-2.95.09-3.96.15-.44.03-.76.04-.86.04-.26,0-.79-.02-1.47-.06-1.27-.06-3.01-.13-4.61-.13-.67,0-1.92,0-1.92,1.05,0,.27.12.91,1.23.91.65,0,1.53,0,2.1.18.46.24.51.75.51.95,0,.42-.18,1.15-.54,2.2-1.32,4.35-9,24.32-12.71,33.1l-11.42-30.46-.18-.47c-.79-2.06-1.47-3.84-1.47-4.49,0-.32.08-.56.5-.74.35-.16,1.2-.27,2.13-.27,1.04,0,1.15-.69,1.15-.99,0-.98-1.44-.98-2.21-.98-1.58,0-3.34.08-4.51.14-.6.03-1.05.05-1.26.05-.24,0-.79-.02-1.52-.05-1.49-.06-3.73-.14-5.73-.14-.86,0-2.16,0-2.16.98,0,.6.42.99,1.06.99.33,0,1.34,0,2.19.22,1.93.55,2.78,1.08,4.09,4.47l15.19,37.99.1.24c1.19,3.03,1.55,3.94,2.66,3.94.81,0,1.1-.64,2.06-2.75.28-.61.61-1.36,1.05-2.28,1.34-2.89,3.88-8.96,7.39-17.37l2.9-6.96c2.25-5.42,4.14-9.97,4.67-11.28,1.62-4.09,2.5-5.1,3.19-5.57,1.05-.66,2.27-.66,2.67-.66,1.17,0,1.3-.69,1.3-.99,0-.44-.28-.98-1.6-.98Z"/>
  <path class="cls-1" d="M328.79,419.97c-.36,0-1.19,0-2.32-.17-1.62-.26-4.13-.98-7.25-4.3-3.09-3.3-6.67-7.89-10.82-13.2l-1.75-2.23c4.99-4.71,7.31-9.28,7.31-14.36,0-4.51-2.84-7.71-4.5-8.88-3.46-2.52-7.84-2.85-11.66-2.85-1.2,0-3.5.07-5.22.13-1.02.03-1.84.06-2.1.06-.07,0-.37-.02-.8-.03-1.33-.05-4.1-.16-6.21-.16-1.01,0-1.53.35-1.53,1.05,0,.52.45.91,1.04.91.53,0,1.55.06,2,.18,1.65.34,2.1.96,2.23,3.02.12,1.99.12,3.73.12,13.38v10.9c0,5.8,0,10.82-.3,13.37-.24,1.79-.53,2.79-1.36,2.97-.77.14-1.34.22-1.75.22-.73,0-1.06.48-1.06.92,0,.71.52,1.06,1.55,1.06s2.93-.07,5.58-.19h.24c.07-.01.33,0,.73.01,1.39.06,4.27.17,6.9.17,1.43,0,1.54-.82,1.54-1.06,0-.46-.36-.92-1.05-.92-.51,0-1.86-.12-2.71-.22-1.42-.21-1.75-1.08-1.97-2.95-.29-2.57-.29-7.58-.29-13.39v-1.43s7.51.12,7.51.12c.16,0,.22.02.36.16.55.71,1.42,1.92,2.45,3.33,1.3,1.8,2.85,3.94,4.3,5.84l.8,1.05c3.12,4.12,5.19,6.84,7.75,8.21,1.75.96,3.43,1.27,6.91,1.27h4.39c.76,0,2.03,0,2.03-1.06,0-.5-.5-.92-1.1-.92ZM293.39,377.62c0-.16.08-.21.12-.22.55-.17,2.14-.35,3.99-.35,6.37,0,10.17,4.43,10.17,11.86,0,4.17-1.33,7.57-3.55,9.1-1.41.96-3.15,1.08-4.34,1.08-2.9,0-5.49-.47-6.23-.92-.12-.07-.16-.13-.16-.27v-20.28Z"/>
  <path class="cls-1" d="M350.13,394.36l-1.73-1.35c-5.92-4.84-7.36-6.81-7.36-9.99,0-3.98,2.85-6.66,7.08-6.66,5.01,0,6.75,2.1,7.25,2.98.32.64.7,2.25.76,2.94.06.48.17,1.29,1.03,1.29.99,0,.99-1.28.99-1.97,0-3.32.15-5.28.22-6.12.02-.24.03-.39.03-.46,0-.65-.4-.98-1.18-.98-.44,0-.96-.08-2.04-.31-1.79-.42-3.66-.62-5.89-.62-7.99,0-13.35,4.71-13.35,11.71,0,4.26,1.4,8.25,8.25,13.87l2.79,2.27c5.44,4.51,6.92,6.82,6.92,10.76s-2.86,7.7-8.33,7.7c-2.24,0-7.55-.58-8.64-5.91-.2-.82-.2-1.63-.2-2.16,0-.41,0-1.25-.96-1.25-.89,0-.99,1.05-1.04,1.51l-.05.71c-.09,1.26-.25,3.36-.25,5.9,0,1.74.05,2.26,1.23,2.85,2.39,1.17,5.18,1.74,8.55,1.74,3.79,0,7.13-.94,9.67-2.7,4.06-2.89,5.5-7.44,5.5-10.74,0-4.89-1.52-8.91-9.26-15Z"/>
  <path class="cls-1" d="M390.19,419.97c-.52,0-1.86-.12-2.71-.22-1.42-.21-1.76-1.12-1.96-2.96-.31-2.57-.31-7.58-.31-13.38v-10.9c0-9.65,0-11.39.13-13.38.13-2.1.54-2.78,1.84-3.01.73-.13,1.07-.18,1.44-.18.62,0,1.06-.38,1.06-.91,0-.7-.52-1.05-1.54-1.05-1.33,0-3.66.09-5.05.15-.55.02-.94.04-1.03.04s-.45-.02-.97-.04c-1.33-.06-3.81-.15-5.31-.15-1.01,0-1.52.35-1.52,1.05,0,.52.44.91,1.03.91.36,0,1.13.05,1.8.23.92.21,1.56.8,1.69,2.96.13,1.99.13,3.72.13,13.37v10.9c0,5.8,0,10.82-.31,13.37-.24,1.79-.53,2.8-1.34,2.97-.79.14-1.37.22-1.78.22-.71,0-1.03.48-1.03.92,0,.71.52,1.06,1.54,1.06,1.33,0,3.66-.1,5.05-.16.55-.03.93-.04,1.02-.04.07,0,.33.01.73.02,1.38.06,4.26.17,6.9.17,1.42,0,1.53-.82,1.53-1.06,0-.45-.32-.92-1.04-.92Z"/>
  <path class="cls-1" d="M440.18,373.53c-.15,0-.4.04-.77.12-.88.18-2.53.51-5.38.51h-23.23c-.67,0-2.99-.11-4.87-.3-.98-.08-1.55-.33-1.97-.52-.28-.12-.53-.23-.8-.23-.62,0-.87.78-1.14,1.57-.07.25-1.4,5.86-1.4,6.61s.43,1.1.86,1.1c.77,0,1.05-.73,1.13-.96.15-.36.32-.77,1-1.83.87-1.3,2.19-1.7,5.88-1.74l8.62-.13v25.67c0,5.8,0,10.82-.34,13.38-.23,1.78-.51,2.79-1.32,2.96-.76.14-1.37.22-1.78.22-.68,0-1.03.46-1.03.92,0,.71.52,1.06,1.54,1.06,1.33,0,3.66-.1,5.05-.16.55-.03.93-.04,1.02-.04.07,0,.31.01.7.02,1.39.06,4.28.17,6.92.17,1.43,0,1.54-.82,1.54-1.06,0-.45-.32-.92-1.03-.92-.54,0-1.88-.12-2.73-.22-1.41-.21-1.76-1.15-1.94-2.96-.31-2.56-.31-7.58-.31-13.38v-25.67l7.25.13c5.94.11,6.92,1.54,7.1,2.92l.07.65c.04.59.11,1.56,1.03,1.56.45,0,.98-.35.98-1.35,0-.26.03-1.01.06-1.96.06-1.59.13-3.7.13-4.86,0-.35,0-1.29-.85-1.29Z"/>
  <path class="cls-1" d="M492.74,373.97c-.76,0-2.87.08-4.39.13-.84.03-1.49.06-1.62.06-.17,0-.52-.02-.97-.05-.87-.06-2.05-.14-3.11-.14-1.35,0-1.55.57-1.55.91,0,.7.65.92,1.35,1.15.18.05.6.15.6,1.23,0,.82-.34,1.79-1,2.88-1,1.64-7.79,13.33-9.87,17.36-2.28-3.84-10.01-17.15-10.87-18.71-.45-.85-.74-1.54-.74-2.15,0-.18.06-.41.48-.63.14-.06.26-.11.37-.15.4-.15.89-.35.89-.91,0-.44-.24-.98-1.36-.98-1.71,0-3.37.09-4.37.15-.41.03-.71.04-.84.04-.1,0-.69-.02-1.47-.05-1.57-.06-3.89-.14-4.67-.14-1,0-1.35.52-1.35.98,0,.57.5.99,1.18.99.4,0,1.48.32,2.36.89,1.22.82,2.74,2.48,4.06,4.45,2.21,3.28,10.47,16.85,10.87,17.77.8,1.77,1.37,3.05,1.37,6.28v5.32c0,.98,0,3.59-.16,6.16-.08,1.21-.41,2.7-1.48,2.94-.78.14-1.36.22-1.77.22-.68,0-1.04.46-1.04.92,0,.71.52,1.06,1.54,1.06,1.33,0,3.66-.1,5.05-.16.55-.03.93-.04,1.02-.04.07,0,.33.01.73.02,1.39.06,4.27.17,6.9.17,1.39,0,1.54-.75,1.54-1.06,0-.46-.35-.92-1.03-.92-.53,0-1.87-.12-2.72-.22-1.35-.19-1.95-1.04-2.07-2.94-.2-2.58-.2-5.18-.2-6.16v-5.32c0-1.99,0-3.86.87-5.98,1.1-2.59,9.74-17.12,11.78-19.59,1.36-1.69,2-2.36,3.14-3.05.87-.54,1.94-.78,2.57-.78,1,0,1.36-.57,1.36-1.05,0-.42-.35-.91-1.36-.91Z"/>
  <path class="cls-1" d="M271.17,412.61c-.81,0-.97.83-1.08,1.41-.4,2.39-1.05,3.45-2.48,4.04-1.5.64-4.15.64-5.73.64-12.62,0-14.04-.93-14.2-4.58-.06-.92-.03-4.93-.01-7.84,0-1.14.01-2.13.01-2.71v-5.35c1.65,0,10.67.13,12.21.31,2.34.24,2.61,1.23,2.76,1.79.22.71.22,1.27.22,1.86,0,.82.53,1.11.99,1.11.98,0,.98-1.16.98-1.71,0-.4.11-2.66.25-3.92.11-1.26.27-2.13.38-2.71.07-.39.11-.65.11-.81,0-.77-.46-1.05-.86-1.05-.51,0-.88.44-1.34.99-.4.46-1.12.56-2.56.68-1.02.08-7.67.11-13.15.12v-17.18s0-.04,0-.06c2.08,0,14.88.07,15.81.18,3.35.37,3.67,1.11,3.95,1.77.27.65.35,1.58.35,2.03,0,1.17.66,1.35,1.06,1.35.48,0,.84-.42.95-1.13.08-.51.17-1.85.24-2.92.04-.55.06-1.01.09-1.22.1-1.03.25-1.68.35-2.16.08-.34.13-.59.13-.82,0-.99-.55-1.09-.79-1.09-.3,0-.54.12-.74.21-.1.05-.19.09-.28.11-.45.12-1.39.22-2.55.29-1.4.05-20.91.05-21.74.05-.08,0-.38,0-.83-.03-1.32-.05-4.07-.14-6.17-.14-1.02,0-1.54.34-1.54,1.02,0,.53.46.93,1.06.93.52,0,1.52.06,1.98.17,1.66.36,2.12.98,2.24,3.03.12,1.99.12,3.72.12,13.36v10.92c0,5.8,0,10.81-.3,13.37-.26,1.83-.54,2.79-1.4,2.96-.49.11-1.19.23-1.71.23-.72,0-1.04.47-1.04.94,0,.68.51,1.03,1.52,1.03,1.34,0,3.66-.09,5.05-.14.55-.02.94-.04,1.03-.04.54,0,2.01.03,4.05.08,4.61.11,12.32.28,18.82.28,2.43,0,3.33,0,3.9-2.04.3-1.35.81-5.59.81-6.13,0-.45,0-1.5-.93-1.5Z"/>
  <path class="cls-1" d="M738.64,461.21l-2.76-4.56-5.58,3-.99-1.93-5.3-9.39c-7.92,5.04-16.69,7.48-26.8,7.48s-18.87-2.44-26.79-7.48l-5.31,9.39-1,1.93-5.57-3-2.77,4.56c-.25.38-.09.97.09,1.41,1.17,2.88,6.54,6.28,14,8.89,8.37,2.93,18.08,4.53,27.34,4.53s18.98-1.61,27.34-4.53c7.47-2.61,12.83-6.01,14.01-8.89.17-.43.33-1.02.08-1.41h0ZM694.47,470.12h-7.06c-1.05,0-1.73-.28-1.73-1.18v-6.49c0-.89.68-1.17,1.72-1.17h6.93c.87,0,1.49.18,1.49.82s-.63.8-1.49.8h-5.7v1.92h5c.76,0,1.38.15,1.38.77s-.62.77-1.38.77h-5v2.15h5.84c.86,0,1.49.17,1.49.8s-.63.81-1.49.81ZM708.45,462.98h-2.79v6.3c0,.6-.57,1-1.47,1s-1.47-.4-1.47-1v-6.3h-2.78c-.84,0-1.53-.29-1.53-.85s.69-.85,1.53-.85h8.52c.85,0,1.52.29,1.53.85,0,.56-.68.85-1.53.85Z"/>
  <path class="cls-1" d="M654.95,314.65c6.56,0,11.03-2.38,16.71-5.4,6.39-3.41,14.35-7.65,25.56-7.65s19.15,4.25,25.55,7.65c5.67,3.02,10.14,5.4,16.7,5.4s11.41-2.38,17.51-5.39c6.99-3.45,14.92-7.31,25.96-7.6,1.54-6.88,2.78-13.88,3.71-20.97h-178.89c.93,7.09,2.17,14.08,3.71,20.97,11.05.29,18.96,4.15,25.96,7.6,6.11,3.01,10.92,5.39,17.51,5.39Z"/>
  <path class="cls-1" d="M695.37,432.9l1.84.97,1.84-.97c28.48-15.03,52.71-40.13,70.08-72.59,17.7-33.11,27.06-71.84,27.06-112,0-17.55-1.8-34.98-5.35-51.78l-.66-3.13h-36.94c.02-.18.06-.35.06-.54,0-2.73-2.22-4.93-4.93-4.93h-25.65c-2.82-3.65-6.78-38.09-6.78-38.09l-8.79,22.98c.11-1.74,1.98-10.92,2.79-14.06.82-3.14-2.79-3.72-2.79-4.77,0-6.05-4.54-3.6-9.74-3.6s-9.75-2.45-9.75,3.6c0,1.04-3.6,1.63-2.79,4.77.82,3.14,2.68,12.32,2.79,14.06l-8.8-22.98s-3.96,34.44-6.78,38.09h-26.01c-2.72,0-4.93,2.2-4.93,4.93,0,.19.03.36.06.54h-36.94l-.67,3.13c-3.54,16.8-5.34,34.23-5.34,51.78,0,40.16,9.36,78.89,27.06,112,17.37,32.46,41.59,57.56,70.07,72.59ZM729.58,190.13l2.41,5.47h-14.23l-2.41-5.47h14.23ZM704.25,172.29c2.19,1.13,2.68,1.42.98,3.71-.49.65-.72,1.48-.94,2.34-1.83.48-3.82.78-5.92.85v-2.84c3.51-.34,5.23-2.44,5.88-4.06ZM697.4,183.44c-5.41,0-6.21-2.42-6.8-4.73,1.96,1.05,4.29,1.65,6.8,1.65s4.84-.6,6.8-1.65c-.6,2.3-1.38,4.73-6.8,4.73ZM701.81,183.99l-.78,3.95h-.79l.35-3.53c.45-.11.85-.25,1.22-.41ZM699.75,184.57l-.33,3.37h-4.06l-.33-3.37c.7.11,1.47.18,2.36.18s1.66-.07,2.35-.18ZM694.55,187.94h-.79l-.79-3.95c.37.16.77.3,1.22.41l.35,3.53ZM697.41,166.8c1.19,0,1.3-.38,5.15,1.95,0,0-1.53-.62-5.15-.62s-5.15.62-5.15.62c3.83-2.32,3.95-1.95,5.15-1.95ZM690.54,172.29c.64,1.63,2.36,3.73,5.88,4.06v2.84c-2.09-.07-4.09-.38-5.91-.85-.22-.86-.46-1.69-.94-2.34-1.7-2.29-1.21-2.59.98-3.71ZM694.17,190.13l2.4,5.47h-14.23l-2.4-5.47h14.24ZM646.81,190.13h11.93l2.4,5.47h-14.33c-1.51,0-2.74-1.22-2.74-2.73s1.23-2.73,2.74-2.73ZM607.49,197.79h179.45c3.43,16.22,5.25,33.28,5.25,50.89,0,81.53-39.23,151.42-94.98,180.8-55.76-29.38-94.98-99.27-94.98-180.8,0-17.6,1.82-34.66,5.25-50.89Z"/>
  <path class="cls-1" d="M743.96,385.48c-1.44.14-2.93.23-4.49.23-11.82,0-20.01-4.38-26.6-7.89-5.43-2.89-9.72-5.17-15.65-5.17s-10.23,2.28-15.66,5.17c-6.59,3.51-14.78,7.89-26.61,7.89-1.56,0-3.05-.09-4.48-.23,13.42,16.95,29.22,30.56,46.75,40.1,17.52-9.53,33.32-23.15,46.75-40.1Z"/>
  <path class="cls-1" d="M671.66,359.24c6.39-3.41,14.35-7.65,25.56-7.65s19.15,4.24,25.55,7.65c5.67,3.02,10.14,5.4,16.7,5.4s11.41-2.38,17.51-5.39c1.87-.93,3.83-1.88,5.88-2.79,5.53-10.41,10.19-21.38,13.99-32.8-3.51.99-6.79,2.6-10.55,4.45-7.19,3.55-15.33,7.57-26.83,7.57s-20.01-4.37-26.6-7.88c-5.43-2.9-9.72-5.17-15.65-5.17s-10.23,2.28-15.66,5.17c-6.59,3.51-14.78,7.88-26.61,7.88s-19.64-4.02-26.84-7.57c-3.75-1.85-7.03-3.46-10.54-4.45,3.79,11.41,8.46,22.39,13.99,32.8,2.05.91,4,1.86,5.88,2.79,6.11,3.01,10.92,5.39,17.51,5.39s11.03-2.38,16.71-5.4Z"/>
  <path class="cls-1" d="M673.39,217.07c1.26.18,2.8.33,4.51.33s3.31-.15,4.91-.42c4.19-2.78,9.2-4.4,14.59-4.4s10.29,1.59,14.44,4.3c1.77.34,3.6.52,5.46.52,1.56,0,2.97-.13,4.16-.29-.25-.28-.5-.57-.76-.85l2.24-2.67-4.93-4.14-2.24,2.67c-1.35-.93-2.77-1.76-4.25-2.48l1.17-3.25-6.05-2.2-1.18,3.26c-1.57-.4-3.19-.69-4.85-.85v-3.47h-6.44v3.47c-1.65.15-3.27.44-4.85.85l-1.18-3.26-6.04,2.21,1.18,3.26c-1.48.72-2.9,1.55-4.25,2.47l-2.24-2.67-4.93,4.14,2.24,2.67c-.25.26-.48.54-.72.8Z"/>
  <path class="cls-1" d="M718.01,268.58l4.93-4.14-1.3-1.55h-12.88c-3.44,1.65-7.3,2.57-11.36,2.57s-7.92-.93-11.36-2.57h-12.87l-1.3,1.55,4.93,4.14,2.24-2.67c1.35.93,2.77,1.76,4.25,2.47l-1.18,3.26,6.04,2.21,1.18-3.25c1.58.4,3.2.68,4.85.85v3.47h6.44v-3.47c1.66-.17,3.28-.45,4.85-.85l1.18,3.25,6.05-2.2-1.18-3.26c1.47-.71,2.89-1.54,4.25-2.47l2.23,2.67Z"/>
  <path class="cls-1" d="M661.93,261.14h31.86c.19.86,2.21,1.53,3.62,1.53s3.43-.66,3.62-1.53h31.86c.37,0,1.09-.23,1.09-1.1v-39.54c0-.38-.23-1.1-1.09-1.1h-4.87l-1.63-1.34s-.02,0-.02-.01c0,0-.01,0-.01-.02-.02,0-.04-.01-.06-.02-.06-.04-.13-.06-.19-.08-.03,0-.06,0-.1,0-.06,0-.12,0-.18.01-.02.01-.04,0-.06.01-.04,0-3.61,1.2-8.66,1.2-2.98,0-5.88-.41-8.63-1.21-2.38-.7-4.48-1.04-6.24-1.04-2.73,0-4.14.85-4.83,1.55-.69-.7-2.09-1.55-4.83-1.55-1.75,0-3.85.35-6.23,1.04-2.74.8-5.65,1.21-8.63,1.21-5.06,0-8.62-1.19-8.66-1.2-.01-.01-.03,0-.05-.01-.06,0-.13-.02-.19-.01-.03,0-.06,0-.09,0-.07.02-.12.04-.19.08-.02.01-.04.01-.06.02,0,0-.01.01-.02.02,0,0-.01,0-.02.01l-1.63,1.34h-4.86c-.39,0-1.1.23-1.1,1.1v39.54c0,.38.23,1.1,1.1,1.1ZM726.63,219.97l3.84,3.13v32.76l-3.84-4.52v-31.37ZM729.95,257.28c-2.57.59-9.82,1.86-17.92-.26-7.33-1.92-10.46-1.18-11.76-.43l-2.09-4.87c.34-.27,1.17-.71,3.06-.71s4.12.41,6.87,1.21c2.86.83,5.9,1.26,9,1.26,4.31,0,7.53-.81,8.65-1.14l4.2,4.94ZM698.06,219.71c.2-.33,1.1-1.5,4.17-1.5,1.63,0,3.6.33,5.87,1,2.86.83,5.9,1.25,9,1.25,3.84,0,6.81-.64,8.21-1.01v31.64c-1.11.3-4.18,1.06-8.21,1.06-2.98,0-5.88-.41-8.63-1.21-2.86-.83-5.31-1.25-7.24-1.25-1.5,0-2.5.25-3.17.56v-30.54ZM669.5,219.46c1.4.37,4.37,1.01,8.21,1.01,3.1,0,6.13-.42,9-1.25,2.25-.67,4.24-1,5.86-1,3.09,0,3.99,1.18,4.17,1.5v30.54c-.67-.31-1.68-.56-3.17-.56-1.94,0-4.36.42-7.24,1.25-2.74.8-5.65,1.21-8.63,1.21-4.02,0-7.1-.76-8.21-1.06v-31.64ZM669.06,252.33c1.12.33,4.34,1.14,8.65,1.14,3.1,0,6.13-.43,9-1.26,2.74-.8,5.05-1.21,6.87-1.21s2.73.46,3.06.71l-2.1,4.88c-1.29-.75-4.42-1.49-11.76.43-8.09,2.12-15.35.85-17.91.26l4.19-4.94ZM664.35,223.1l3.83-3.13v31.37l-3.83,4.52v-32.76Z"/>
  <path class="cls-1" d="M673.43,439.16c-25.91-16.64-48.18-41.48-64.41-71.83-.21-.39-.42-.79-.63-1.2l-.08-.17-18.56,8.07c.49.94.99,1.88,1.48,2.82,18.02,33.68,42.95,61.27,72.1,79.79l10.09-17.48ZM608.48,389.33c-1.19.69-2.82-.12-4.34-2.77-1.59-2.77-1.36-4.56-.65-4.97.37-.22.85.03,1.15.56.68,1.19-.68,1.56.59,3.79.65,1.13,1.44,1.52,1.88,1.26.26-.15.45-.51.14-1.33l-.99-2.72c-.79-2.19-.25-2.98.45-3.38,1.46-.83,3.15.82,4.21,2.68.98,1.71,1.49,4.11.6,4.61-.38.21-.85-.13-1.16-.66-.58-1.02.5-1.39-.67-3.43-.58-1.02-1.23-1.4-1.68-1.14-.46.27-.14,1.15.14,1.91l.78,2c.84,2.19.32,3.16-.46,3.6ZM615.11,400.01c-.92.59-2.89-.44-4.22-2.49-1.89-2.89-1.87-5.36.31-6.78,1.78-1.17,4.32-.62,6.28,2.38,1.59,2.42,1.41,4.43.79,4.84-.4.26-.86.1-1.27-.54-.8-1.22.58-1.61-.68-3.54-.87-1.33-2.37-1.91-3.75-1.02-1.15.75-1.72,2.08-.52,3.92,1.08,1.65,2.27.82,2.94,1.85.34.51.46,1.17.12,1.39ZM615.77,404.53c-.45-.63-.46-1.22-.04-1.53l4.97-3.59c.41-.3.98-.1,1.43.52.45.62.46,1.23.04,1.53l-4.97,3.58c-.42.3-.99.11-1.44-.51ZM625.63,411.83l-2.68-3.33-1.42,1.14,3.12,3.9c.47.58.69,1.09.26,1.44-.43.35-.89.02-1.35-.57l-3.78-4.71c-.56-.71-.73-1.31-.14-1.79l4.34-3.48c.6-.48,1.15-.17,1.71.52l3.7,4.63c.47.58.69,1.09.25,1.43-.42.34-.88.02-1.33-.56l-3.06-3.81-1.28,1.03,2.68,3.34c.41.52.64,1,.22,1.33-.42.34-.84.01-1.25-.51ZM638.24,420.25l-4.32,4.1c-.49.48-1.07.43-1.81-.34-.55-.58-.65-.85-.62-1.32l.4-6.44v-.02s-3.18,3.01-3.18,3.01c-.41.38-.93.23-1.44-.32-.53-.54-.64-1.07-.24-1.46l4.36-4.13c.52-.49,1.09-.33,1.83.45.36.38.58.81.54,1.22l-.49,6.56.03.03,3.25-3.1c.41-.37.92-.23,1.44.31.52.55.64,1.07.24,1.45ZM640.57,430.74c-.35.38-.94.31-1.52-.2-.57-.51-.71-1.1-.36-1.49l3.61-4.02-1.79-1.59c-.54-.49-.8-1.06-.48-1.41.31-.35.91-.15,1.46.34l5.44,4.86c.54.49.81,1.07.49,1.42-.31.35-.91.15-1.45-.34l-1.79-1.59-3.6,4.02ZM645.81,436.31c-.59-.49-.76-1.06-.43-1.47l3.88-4.74c.32-.4.92-.36,1.52.12.6.5.75,1.07.43,1.47l-3.88,4.75c-.32.39-.93.36-1.52-.13ZM657.46,443.53c-.02.19-.09.53-.21.68-.25.33-.88.28-1.4-.1-.45-.34-.68-.69-.63-1.07l.25-1.4-3.24-2.44-1.29.61c-.34.17-.7.06-1.18-.3-.55-.42-.75-.94-.47-1.31.11-.15.42-.31.6-.38l6.16-2.75c.4-.18.8-.05,1.3.32l.48.37c.45.34.8.72.7,1.32l-1.06,6.47Z"/>
  <polygon class="cls-1" points="653.4 438.56 655.75 440.35 656.44 437.06 656.42 437.03 653.4 438.56"/>
  <path class="cls-1" d="M786.06,366.06c-.21.43-.43.85-.66,1.27-16.23,30.35-38.5,55.18-64.4,71.83l10.09,17.48c29.17-18.52,54.09-46.11,72.1-79.79.5-.94.99-1.88,1.48-2.82l-18.56-8.07-.05.09ZM747.71,436.66l-4.11,3.28c-.7.56-1.31.74-1.79.14l-3.64-4.57c-.33-.41-.15-.98.45-1.46.6-.48,1.2-.52,1.52-.12l3.37,4.22,3.3-2.63c.56-.46,1.18-.63,1.48-.25.3.37,0,.93-.57,1.38ZM756.65,429.06c-.41.36-.8.53-1.16.4l-1.33-.52-3.04,2.71.34,1.38c.1.37-.07.7-.52,1.11-.52.46-1.07.55-1.38.21-.13-.14-.21-.47-.25-.66l-1.49-6.58c-.1-.43.12-.8.57-1.22l.45-.4c.42-.38.86-.65,1.43-.44l6.13,2.31c.19.06.5.18.63.33.28.31.1.92-.38,1.36ZM762.99,422.68l-2.61,2.63c-.62.64-1.21.88-1.76.34l-3.94-3.91c-.55-.55-.31-1.13.32-1.77l2.36-2.38c1.31-1.31,3.06-2.67,4.24-1.5.45.45.53,1.23,0,2.18v.02c.99-.69,1.93-.84,2.67-.11,1.13,1.12.25,2.93-1.28,4.48ZM771.69,413.36c-2.55,3.05-4.95,3.18-6.72,1.71-1.7-1.42-1.71-3.99.61-6.79,2.33-2.79,4.86-3.25,6.57-1.83,1.64,1.36,1.96,3.99-.46,6.91ZM782.1,399.29c-.79,1.14-1.6.7-1.86.52-1.08-.75-1.73-.77-2.52.38l-1.42,2.04,1.82,1.27c.43.29.43.89,0,1.53-.44.63-1.01.84-1.43.53l-4.79-3.33c-.63-.44-.5-1.05.01-1.8l2.4-3.45c1.71-2.46,3.1-2.48,3.9-1.92.67.47.93,1.51.41,2.61h.02c.84-.98,1.5-.8,2.13-.37.72.5,1.18.4,1.47.61.33.23.22.88-.12,1.36ZM788.42,387.52c.47.29.31.82-.08,1.45l-3.13,5.18c-.46.76-.98,1.14-1.63.74l-4.75-2.88c-.65-.4-.55-1.03-.09-1.79l3.07-5.07c.39-.63.79-1.02,1.26-.73.47.28.32.81-.06,1.44l-2.54,4.19,1.4.85,2.22-3.67c.33-.56.71-.94,1.18-.66.46.27.3.79-.04,1.35l-2.22,3.67,1.57.95,2.59-4.29c.38-.63.79-1.01,1.26-.73Z"/>
  <path class="cls-1" d="M759.98,418.05c-.51-.51-1.29-.02-1.94.65l-1.41,1.43,1.32,1.31,1.46-1.48c.84-.83,1-1.48.57-1.9Z"/>
  <path class="cls-1" d="M775.08,398.2l-1.48,2.14,1.67,1.17,1.44-2.08c.54-.79.96-1.66.26-2.15-.67-.46-1.26,0-1.89.92Z"/>
  <polygon class="cls-1" points="749.84 427.12 750.74 430.38 752.96 428.42 749.86 427.1 749.84 427.12"/>
  <path class="cls-1" d="M759.99,420.91l-1.27,1.3,1.44,1.43,1.5-1.51c.7-.7,1.38-1.58.76-2.2-.65-.65-1.56.1-2.43.98Z"/>
  <path class="cls-1" d="M766.65,409.17c-1.32,1.59-1.18,3.03-.06,3.95,1.12.94,2.51,1.17,4.03-.65,1.46-1.77,1.03-3.15-.09-4.07-1.12-.93-2.56-.81-3.88.77Z"/>
  <path class="cls-1" d="M659.6,106.84c-2.27-1.61-5.33-3.34-7.09-3.34-.67,0-1.44.2-1.44,1.74,0,13.25,3.51,22.31,10.43,26.92,1.65,1.1,4.56,1.22,6.61,1.22,1.12,0,2.27-.04,3.37-.08.98-.04,1.94-.07,2.82-.07.05-.62.42-1.14.77-1.52-2.27-2.14-3.38-5.19-4.65-8.68-1.86-5.12-4.18-11.48-10.82-16.2Z"/>
  <path class="cls-1" d="M735.12,106.84c-6.65,4.72-8.96,11.08-10.83,16.2-1.27,3.5-2.38,6.54-4.65,8.68.36.41.72.92.77,1.52.87,0,1.83.03,2.82.07,1.11.04,2.25.08,3.37.08,2.05,0,4.96-.13,6.61-1.22,6.92-4.61,10.43-13.67,10.43-26.92,0-1.54-.76-1.74-1.43-1.74-1.76,0-4.81,1.72-7.09,3.34Z"/>
  <path class="cls-1" d="M718.17,132.62c-.1-.11-.19-.21-.28-.31-1.29.59-2.45.72-3.18.72-3.29,0-5.45-1.95-7.73-4.01-2.51-2.27-5.11-4.61-9.57-4.61s-7.06,2.34-9.57,4.61c-2.29,2.07-4.44,4.01-7.73,4.01-.73,0-1.91-.13-3.2-.73-.08.11-.18.21-.28.32-.15.16-.42.46-.53.64.15.03.37.07.57.09,1.76.27,5.88.9,11.09,6.12,5.74,5.74,7.54,6.17,9.64,6.17s3.89-.44,9.63-6.17c5.22-5.22,9.34-5.85,11.1-6.12.22-.03.44-.06.59-.1-.1-.17-.39-.48-.54-.64Z"/>
  <path class="cls-1" d="M644.66,66.55c1.19,4.26.76,9.85.72,15.18,0,.07.01.13.02.2.19,1.72.35,3.61.86,5.45.48,1.86,1.43,3.58,3.1,4.66.82.56,1.79.99,2.81,1.35,1.01.37,2.09.68,3.19.97,2.19.56,4.48,1.04,6.76,1.53,2.29.5,4.58,1.01,6.83,1.5,1.13.27,2.24.53,3.34.78.62.15,1.11.31,1.66.46.53.15,1.06.3,1.61.53,2.19.73,4.09,1.79,5.83,2.92,1.75,1.13,3.17,2.5,4.39,3.82,1.23,1.32,2.11,2.72,2.84,3.97.73,1.26,1.17,2.44,1.54,3.41.33.98.53,1.77.63,2.31.05.35.09.59.11.71,0,0,0,0-.01,0-.04-.12-.11-.35-.22-.69-.19-.51-.47-1.26-.89-2.18-.47-.9-1.02-2-1.85-3.14-.8-1.15-1.78-2.39-3.02-3.58-1.23-1.18-2.66-2.37-4.33-3.37-.4-.28-.86-.49-1.29-.73-.44-.23-.88-.49-1.36-.68-.47-.2-.94-.41-1.42-.62-.48-.17-.98-.34-1.46-.52-.48-.19-1.01-.33-1.56-.47-.52-.13-1.11-.3-1.59-.41-1.09-.24-2.21-.5-3.33-.75-2.26-.48-4.53-.97-6.83-1.46-2.29-.5-4.58-.99-6.85-1.59-1.12-.3-2.24-.62-3.34-1.04-1.1-.42-2.18-.92-3.16-1.62-.72-.5-1.35-1.12-1.88-1.8.81,2.38,2.18,4.35,4.43,5.65,8.82,5.06,30.95,6.34,30.36,22.13-1.42.96-2.53,1.47-2.95,1.89l-.16-.54c-2.5-8.54-9.17-10.94-14.03-12.69-.28-.09-.55-.2-.82-.29,5.12,4.67,7.1,10.12,8.74,14.62.96,2.62,1.83,4.98,3.12,6.75,1.83,2.09,3.89,2.39,4.91,2.39,2.73,0,4.6-1.68,6.76-3.64,2.59-2.34,5.52-4.99,10.54-4.99s7.96,2.65,10.54,4.99c2.16,1.95,4.03,3.64,6.76,3.64.99,0,3-.28,4.81-2.27,1.34-1.79,2.22-4.19,3.2-6.88,1.64-4.5,3.62-9.95,8.74-14.62-.27.1-.54.2-.82.29-4.86,1.75-11.53,4.15-14.04,12.69l-.18.62-.09-.08c-.09-.08-.21-.18-.36-.29l-.06-.05s-.35-.27-1.01-.68c0,.03,0,.06.01.08-.4-.24-.87-.52-1.38-.86-.7-15.88,21.51-17.17,30.35-22.24,2.29-1.3,3.65-3.3,4.45-5.71-.53.7-1.18,1.34-1.92,1.86-.98.7-2.06,1.2-3.16,1.62-1.09.42-2.22.75-3.35,1.04-2.26.59-4.56,1.09-6.84,1.59-2.29.48-4.57.97-6.83,1.46-1.12.25-2.23.51-3.33.75-.47.12-1.07.28-1.59.41-.54.14-1.07.28-1.56.47-.49.18-.98.35-1.47.52-.48.21-.95.42-1.42.62-.48.19-.92.45-1.36.68-.44.24-.89.45-1.29.73-1.68,1-3.1,2.19-4.34,3.37-1.23,1.18-2.21,2.42-3.01,3.58-.83,1.14-1.39,2.24-1.86,3.14-.42.92-.7,1.67-.89,2.18-.12.38-.19.61-.23.73,0,0,0,0-.01,0,.02-.12.06-.37.13-.75.1-.55.29-1.33.62-2.31.37-.97.81-2.15,1.53-3.41.74-1.25,1.63-2.66,2.86-3.97,1.21-1.32,2.63-2.69,4.38-3.82,1.74-1.13,3.64-2.19,5.83-2.92.54-.22,1.08-.37,1.61-.53.55-.15,1.03-.31,1.65-.46,1.11-.25,2.23-.51,3.35-.78,2.25-.49,4.53-1,6.82-1.5,2.29-.49,4.58-.96,6.76-1.53,1.1-.29,2.18-.6,3.19-.97,1.02-.36,1.99-.79,2.81-1.35,1.67-1.08,2.61-2.81,3.11-4.66.51-1.84.68-3.73.86-5.45.02-.18.03-.34.05-.51-.05-5.24-.45-10.69.72-14.87,2.67-9.5,16.06-7.36,20.42-22.62,4.11-14.35-6.37-26.34-6.37-26.34,1.47,6.15,2.94,16.04,2.27,22.86-.67,6.83-17.39,14.2-22.74,19.27-2.71,2.57-3.89,5.43-4.32,8.38.05-.12.09-.23.15-.35.51-1.16,1.17-2.31,2.03-3.34.84-1.04,1.83-1.96,2.87-2.79,1.04-.82,2.14-1.52,3.24-2.17,1.1-.64,2.18-1.24,3.24-1.79,2.1-1.12,4.05-2.15,5.64-3.17,1.61-.98,2.89-1.91,3.75-2.62.44-.33.77-.62,1-.81.23-.19.36-.29.36-.29,0,0-.1.12-.3.35-.2.21-.47.56-.86.97-.77.81-1.94,1.92-3.44,3.13-1.51,1.19-3.4,2.44-5.42,3.71-1,.64-2.05,1.28-3.07,1.97-1.03.67-2.02,1.4-2.96,2.19-.93.78-1.77,1.64-2.48,2.57-.71.93-1.31,1.9-1.74,2.93-.24.5-.41,1.03-.6,1.53-.15.52-.33,1.01-.43,1.53-.11.51-.25,1-.32,1.49-.09.47-.17.95-.22,1.41-.15.91-.19,1.76-.26,2.52,0,.12-.01.22-.02.33.58,7,.52,13.11-11.89,15.22-17.28,2.93-26.83,14.44-27.97,23.36-.55-.02-1.03-.05-1.31-.05h0c-.66-.03-1.34-.03-2,0-.22,0-.72.03-1.32.06-1.15-8.92-10.69-20.43-27.96-23.36-12.31-2.08-12.48-8.1-11.92-15.01,0-.18-.02-.34-.03-.54-.08-.76-.11-1.62-.26-2.52-.04-.46-.13-.94-.22-1.41-.07-.49-.2-.98-.33-1.49-.09-.51-.28-1.01-.42-1.53-.21-.5-.37-1.03-.61-1.53-.43-1.03-1.03-2-1.74-2.93-.71-.93-1.55-1.79-2.48-2.57-.93-.79-1.92-1.52-2.96-2.19-1.02-.69-2.07-1.33-3.08-1.97-2.02-1.26-3.9-2.51-5.41-3.71-1.51-1.21-2.67-2.31-3.43-3.13-.39-.4-.67-.75-.87-.97-.19-.23-.29-.35-.29-.35,0,0,.12.1.35.29.24.19.57.48,1.01.81.86.7,2.13,1.64,3.75,2.62,1.6,1.02,3.54,2.05,5.64,3.17,1.05.55,2.14,1.15,3.24,1.79,1.1.64,2.21,1.34,3.25,2.17,1.04.82,2.02,1.75,2.86,2.79.86,1.03,1.52,2.18,2.03,3.34.07.15.13.3.19.45-.42-2.98-1.58-5.88-4.33-8.48-5.35-5.07-22.08-12.44-22.74-19.27-.67-6.82.81-16.71,2.28-22.86,0,0-10.49,11.98-6.38,26.34,4.37,15.26,17.75,13.12,20.43,22.62Z"/>
  <path class="cls-1" d="M715.17,135.97c-2.88,0-2.56,3.31-5.08,5.83-1.61,1.61-2.36,1.7-2.54,1.83-.15.09-.25.26-.25.45,0,.29.24.53.53.53.12,0,.23-.04.32-.11.58-.45,1.9-1.64,2.83-1.64,1.09,0,1.2,1.18,2.96,1.18,2.72,0,4.34-1.94,4.34-4.3,0-1.97-.92-3.77-3.11-3.77ZM713.7,140.95c-.34,0-.62-.28-.62-.63s.28-.62.62-.62.62.27.62.62-.28.63-.62.63ZM715.37,143.27c-.48.23-.79-.09-.43-.44.61-.56.98-1.33.98-2.17,0-.73-.29-1.4-.76-1.94-.4-.46.19-.77.79-.31.72.54,1.18,1.35,1.18,2.25,0,1.12-.71,2.1-1.77,2.61Z"/>
  <path class="cls-1" d="M679.62,135.97c-2.19,0-3.11,1.8-3.11,3.77,0,2.36,1.62,4.3,4.34,4.3,1.76,0,1.86-1.18,2.96-1.18.94,0,2.24,1.19,2.84,1.64.09.06.2.11.32.11.29,0,.53-.24.53-.53,0-.19-.1-.35-.25-.45-.17-.13-.92-.21-2.54-1.83-2.52-2.53-2.2-5.83-5.08-5.83ZM679.41,143.27c-1.04-.51-1.75-1.49-1.75-2.61,0-.91.46-1.71,1.18-2.25.6-.46,1.18-.14.78.31-.47.54-.75,1.21-.75,1.94,0,.84.37,1.61.98,2.17.37.35.06.67-.44.44ZM681.09,140.95c-.35,0-.62-.28-.62-.63s.27-.62.62-.62.63.27.63.62-.28.63-.63.63Z"/>
  <path class="cls-1" d="M593.22,366.05c.27,1.49-.31,3.34-1.46,4.71l-.09.07h.02l16.4-7.1v-.02s.01.02.01.02l.74-.32.14.12,2.68,4.88s5.41-.77,7.63-2.45l-.03-.02s.06-.06.1-.09c.31-.31,1.31-1.48,1.01-3.51-.41-2.86-3.47-7.66-15.66-14.27-9.6-5.22-7.82-14.95-7.74-15.35-.25.18-6.27,4.44-3.83,18.26l.09.52h-.53c-4.7-.04-12.82-2.93-13.46-13.55-.06.14-6.45,14.08,10.38,23.67.03,0,3.1,1.73,3.58,4.45Z"/>
  <path class="cls-1" d="M815.16,337.94c-.64,10.62-8.76,13.51-13.47,13.55h-.53s.09-.51.09-.51c2.44-13.81-3.58-18.08-3.83-18.26.08.41,1.84,10.15-7.75,15.35-12.18,6.61-15.23,11.41-15.64,14.27-.29,2.03.71,3.2,1.02,3.51.03.04.08.08.12.11.2.17.45.34.77.47,2.5,1.35,6.87,1.97,6.87,1.97l2.75-5,.74.32.02-.02v.02s16.41,7.11,16.41,7.11v.44s0-.44,0-.44l-.08-.07c-1.15-1.37-1.73-3.22-1.47-4.71.49-2.72,3.56-4.44,3.59-4.45,16.85-9.6,10.44-23.52,10.38-23.66Z"/>
</svg>