<?xml version="1.0" encoding="UTF-8"?>
<svg id="Layer_1" xmlns="http://www.w3.org/2000/svg" version="1.1" viewBox="0 0 841.9 499.8">
  <!-- Generator: Adobe Illustrator 30.2.1, SVG Export Plug-In . SVG Version: 2.1.1 Build 1)  -->
  <defs>
    <style>
      .st0 {
        fill: #fff;
      }
    </style>
  </defs>
  <g id="Layer_11" data-name="Layer_1">
    <g>
      <path class="st0" d="M168.6,307.5h.7c4.5-15.4,19.8-63.8,25.7-85.2,1.7-6.2,1.9-8.5,1.9-10.7s-1.9-5-9.5-5-1.5-.5-1.5-1.2.8-1.2,2.8-1.2c8.5,0,15.6.5,17.1.5s8.4-.5,13.5-.5,2.4.3,2.4,1-.5,1.3-1.5,1.3-3.8.2-5.7.8c-5,1.8-7.7,8.8-10.8,18-7.4,21.2-24.2,74.3-30.8,93-4.3,12.3-5.2,14.4-7,14.4s-2.7-2.2-5-8.7l-32.8-92.9h-.3c-6,16-28.9,77.2-34.9,92.7-2.7,7-3.5,8.9-5.5,8.9s-2.5-1.8-5.9-13.2l-29.7-99.1c-2.7-8.9-4.9-11.4-9.2-13-2.2-.8-6.4-1-7.5-1s-1.5-.2-1.5-1.2,1-1.2,2.7-1.2c8.7,0,17.9.5,19.7.5s8.8-.5,17.2-.5,3,.5,3,1.2c0,1-.8,1.2-1.7,1.2-1.3,0-4.5,0-6.5,1-1,.5-2.2,1.8-2.2,4s1.5,8,3.2,15.4c2.5,10.7,19.9,72,22.4,80.8h.3l35.4-95.2c2.5-6.9,3.2-7.7,4.2-7.7s2.2,2.2,4.2,7.9l33.2,94.7h0Z"/>
      <path class="st0" d="M267.9,282.1c0,16,0,29.2.9,36.2.5,4.8,1.5,8.5,6.5,9.2,2.4.3,6,.7,7.5.7s1.4.5,1.4,1c0,.8-.9,1.3-2.7,1.3-9.2,0-19.7-.5-20.5-.5s-11.4.5-16.4.5-2.7-.3-2.7-1.3.3-1,1.3-1c1.5,0,3.5-.3,5-.7,3.3-.7,4.2-4.4,4.8-9.2.8-7,.8-20.2.8-36.2v-29.4c0-26.1,0-30.7-.3-36.1-.4-5.7-2-8.5-5.7-9.4-1.8-.5-4-.6-5.2-.6s-1.4-.3-1.4-1c0-1,.9-1.3,2.7-1.3,5.5,0,16,.5,16.9.5s11.3-.5,16.4-.5,2.6.3,2.6,1.3-.6,1-1.3,1c-1.2,0-2.2.1-4.2.5-4.5.9-5.9,3.7-6.2,9.5-.3,5.3-.3,10-.3,36.1v29.4h0Z"/>
      <path class="st0" d="M361,282.1c0,16,0,29.2.8,36.2.5,4.9,1.5,8.5,6.5,9.2,2.3.3,6,.7,7.5.7s1.3.5,1.3,1c0,.8-.8,1.3-2.6,1.3-9.2,0-19.7-.5-20.5-.5s-11.3.5-16.4.5-2.7-.3-2.7-1.3.3-1,1.3-1c1.5,0,3.5-.3,5-.7,3.3-.7,4.2-4.3,4.8-9.2.9-7,.9-20.2.9-36.2v-70.6l-24.7.4c-10.4.1-14.4,1.3-17,5.3-1.9,2.8-2.4,4-2.8,5.2-.5,1.3-1,1.7-1.7,1.7s-.8-.5-.8-1.5c0-1.7,3.3-16,3.7-17.4.4-1,1-3.2,1.7-3.2,1.2,0,2.8,1.7,7.3,2,4.8.5,11.2.9,13.2.9h62.6c10.7,0,15.2-1.7,16.5-1.7s.8,1,.8,2c0,5-.5,16.5-.5,18.4s-.5,2.1-1.1,2.1-1.2-.5-1.3-2.8l-.2-1.8c-.7-5-4.5-8.9-20.5-9.2l-21-.4v70.6h0Z"/>
      <path class="st0" d="M429,328.4c-3.2-1.2-3.4-1.9-3.4-6.4,0-8.3.9-15,1.1-17.7.2-1.8.7-2.7,1.8-2.7s1.6.5,1.6,1.8,0,3.9.7,6.2c3.4,12.3,14.7,17,29.9,17,21.8,0,26.8-11.5,26.8-22.2s-5.9-19-25.4-30.9l-10.2-6.2c-24-14.5-30.1-24.1-30.1-35.4,0-17.9,16.4-30.1,45.1-30.1s12.4.6,18.1,1.7c4.3.7,6.1.8,7.9.8s2.3.3,2.3,1.2-.9,6.4-.9,17.7,1.3,3.8.2,3.8-3.4-.8-3.6-2.2c-.2-2-1.6-6.5-2.9-8.3-1.4-1.8-4.5-8.9-25.3-8.9s-26.1,7.2-26.1,19.4,4.9,15.8,26.2,28.7l6.4,3.7c26.7,15.5,34.6,25.3,34.6,38.6s-3.6,19.5-19.3,27.7c-9.7,5-16.4,7-28.6,7s-17.4-1.2-26.7-4.5h0Z"/>
      <g>
        <path class="st0" d="M90.5,377.6c-1.3,0-3,0-4.2.1-.5,0-.9,0-1.1,0s-.4,0-.8,0c-1.3,0-3.7-.2-5.8-.2s-1.6.4-1.6,1,.4.9,1.1.9,1.6,0,2,.2c1.6.4,2.1,1,2.2,3,.1,2,.1,3.7.1,13.4v7.8c0,7.3-1.1,11.9-3.5,14.9-2.2,2.6-5.8,4.3-9.4,4.3s-6.1-.5-9-3.3c-2.2-2.1-4.5-5.6-4.5-15v-8.7c0-9.7,0-11.4.1-13.4.1-2.4.7-2.9,1.9-3,.7-.1,1.1-.2,1.5-.2.6,0,1-.4,1-.9s-.5-1-1.5-1-3.2,0-4.6.1c-.8,0-1.3,0-1.5,0s-.6,0-1.3,0c-1.5,0-3.9-.1-5.9-.1s-1.5.4-1.5,1,.5.9,1,.9,1.6,0,2,.2c1.6.4,2.1,1,2.2,3,.1,2,.1,3.7.1,13.4v9.1c0,10.1,3,14.3,5.6,16.8,4.2,4,10.1,4.6,13.2,4.6s8.4-.5,13.2-4.8c5.2-4.7,5.9-12.6,5.9-19v-6.7c0-9.7,0-11.4.1-13.4.1-2.3.7-2.8,1.9-3,.7-.2,1-.2,1.4-.2.6,0,1.1-.4,1.1-.9s-.5-1-1.6-1h0Z"/>
        <path class="st0" d="M150.9,377.6c-1.7,0-3.2,0-4.2.1-.5,0-.9,0-1.1,0s-.7,0-1.3,0c-1.3,0-3.3-.1-5.2-.1s-1.8,0-1.8,1,.4,1,1.1,1,1.8,0,2.9.3c1.4.4,1.9,1.2,2,5.4l.7,30.2c-1.1-1.2-2.7-3-4.7-5.1-2.8-3-6.1-6.7-9.3-10.1-9.3-10-18.8-20.2-19.8-21.4-.2-.2-.3-.4-.6-.6-.9-1-1.4-1.5-2-1.5-1.2,0-1.2,1.5-1.2,3.6v35.7c0,5.5-.4,7.1-1.6,7.4-.7.2-1.7.3-2.4.3s-1,.4-1,.9c0,1.1,1.1,1.1,1.6,1.1,1.9,0,3.8,0,4.9-.1.5,0,.8,0,1,0s.5,0,.9,0c1.1,0,3.1.2,5.7.2s1.7-.4,1.7-1.1-.3-.9-1.1-.9-2,0-3-.4c-1.3-.4-1.9-1.5-2-6.7l-.8-28.3c2.8,3.2,9,10,15.3,16.7,6.5,7,15.5,16.2,16.3,16.9,3.5,3.5,4.2,4.1,4.9,4.1s1.1-1,1.1-5v-36.5c.1-3.8.4-4.7,2-5,.7-.2,1.1-.2,1.4-.2.8,0,1.2-.5,1.2-1,0-1-1.2-1-1.7-1h0Z"/>
        <path class="st0" d="M180,423.8c-.5,0-1.9-.1-2.7-.2-1.4-.2-1.8-1.1-2-3-.3-2.6-.3-7.6-.3-13.5v-11c0-9.7,0-11.4.1-13.4.1-2.1.6-2.8,1.9-3,.7-.1,1.1-.2,1.4-.2.6,0,1.1-.4,1.1-.9s-.5-1-1.6-1-3.7.1-5.1.1c-.6,0-.9,0-1,0s-.4,0-.9,0c-1.3,0-3.9-.2-5.3-.2s-1.5.4-1.5,1,.5.9,1.1.9,1.2,0,1.8.2c.9.2,1.6.8,1.7,3,.1,2,.1,3.7.1,13.4v11c0,5.8,0,10.9-.3,13.4-.2,1.8-.5,2.8-1.4,3-.8.1-1.4.2-1.8.2-.7,0-1.1.5-1.1.9,0,.7.5,1.1,1.5,1.1s3.7-.1,5.1-.2c.5,0,.9,0,1,0s.3,0,.7,0c1.4,0,4.3.2,6.9.2s1.5-.8,1.5-1.1-.3-.9-1-.9h0Z"/>
        <path class="st0" d="M237.2,377.6c-1.3,0-3,0-4,.1-.4,0-.8,0-.9,0-.3,0-.8,0-1.5,0-1.3,0-3-.1-4.6-.1s-1.9,0-1.9,1,.1.9,1.2.9,1.5,0,2.1.2c.5.2.5.8.5,1,0,.4-.2,1.2-.5,2.2-1.3,4.4-9,24.4-12.8,33.2l-11.5-30.6-.2-.5c-.8-2.1-1.5-3.9-1.5-4.5s0-.6.5-.7c.4-.2,1.2-.3,2.1-.3s1.1-.7,1.1-1c0-1-1.4-1-2.2-1-1.6,0-3.4,0-4.5.1-.6,0-1.1,0-1.3,0s-.8,0-1.5,0c-1.5,0-3.8-.1-5.8-.1s-2.2,0-2.2,1,.4,1,1.1,1,1.4,0,2.2.2c1.9.6,2.8,1.1,4.1,4.5l15.3,38.2v.2c1.3,3,1.6,4,2.8,4s1.1-.6,2.1-2.8c.3-.6.6-1.4,1.1-2.3,1.4-2.9,3.9-9,7.4-17.4l2.9-7c2.3-5.4,4.2-10,4.7-11.3,1.6-4.1,2.5-5.1,3.2-5.6,1.1-.7,2.3-.7,2.7-.7,1.2,0,1.3-.7,1.3-1,0-.5-.3-1-1.6-1h0Z"/>
        <path class="st0" d="M338.2,423.8c-.4,0-1.2,0-2.3-.2-1.6-.3-4.1-1-7.3-4.3-3.1-3.3-6.7-7.9-10.9-13.3l-1.8-2.2c5-4.7,7.4-9.3,7.4-14.4s-2.9-7.7-4.5-8.9c-3.5-2.5-7.9-2.9-11.7-2.9s-3.5,0-5.2.1c-1,0-1.9,0-2.1,0s-.4,0-.8,0c-1.3,0-4.1-.2-6.2-.2s-1.5.4-1.5,1,.5.9,1,.9,1.5,0,2,.2c1.6.4,2.1,1,2.2,3,.1,2,.1,3.7.1,13.4v11c0,5.8,0,10.9-.3,13.4-.2,1.8-.5,2.8-1.4,3-.8.1-1.3.2-1.8.2-.7,0-1.1.5-1.1.9,0,.7.5,1.1,1.5,1.1s3,0,5.6-.2h.2c0,0,.3,0,.7,0,1.4,0,4.3.2,6.9.2s1.5-.8,1.5-1.1c0-.5-.4-.9-1-.9s-1.9-.1-2.7-.2c-1.4-.2-1.8-1.1-2-3-.3-2.6-.3-7.6-.3-13.5v-1.4h7.5c.2.1.2.1.4.3.5.7,1.4,1.9,2.5,3.4,1.3,1.8,2.9,4,4.3,5.9l.8,1.1c3.1,4.1,5.2,6.9,7.8,8.2,1.8,1,3.5,1.3,6.9,1.3h4.4c.8,0,2,0,2-1.1s-.5-.9-1.1-.9h0ZM302.6,381.2c0-.2,0-.2.1-.2.6-.2,2.1-.4,4-.4,6.4,0,10.2,4.5,10.2,11.9s-1.3,7.6-3.6,9.1c-1.4,1-3.2,1.1-4.4,1.1-2.9,0-5.5-.5-6.3-.9-.1,0-.2-.1-.2-.3v-20.4Z"/>
        <path class="st0" d="M359.6,398.1l-1.7-1.4c-5.9-4.9-7.4-6.8-7.4-10s2.9-6.7,7.1-6.7,6.8,2.1,7.3,3c.3.6.7,2.3.8,3,0,.5.2,1.3,1,1.3s1-1.3,1-2c0-3.3.1-5.3.2-6.1,0-.2,0-.4,0-.5,0-.6-.4-1-1.2-1s-1,0-2-.3c-1.8-.4-3.7-.6-5.9-.6-8,0-13.4,4.7-13.4,11.8s1.4,8.3,8.3,13.9l2.8,2.3c5.5,4.5,7,6.9,7,10.8s-2.9,7.7-8.4,7.7-7.6-.6-8.7-5.9c-.2-.8-.2-1.6-.2-2.2s0-1.2-1-1.2-1,1-1,1.5v.7c-.1,1.3-.3,3.4-.3,5.9s0,2.3,1.2,2.9c2.4,1.2,5.2,1.7,8.6,1.7s7.2-.9,9.7-2.7c4.1-2.9,5.5-7.5,5.5-10.8,0-4.9-1.5-8.9-9.3-15.1h0Z"/>
        <path class="st0" d="M399.8,423.8c-.5,0-1.9-.1-2.7-.2-1.4-.2-1.8-1.1-2-3-.3-2.6-.3-7.6-.3-13.4v-11c0-9.7,0-11.4.1-13.4.1-2.1.5-2.8,1.9-3,.7-.1,1.1-.2,1.5-.2.6,0,1.1-.4,1.1-.9s-.5-1-1.5-1-3.7.1-5.1.1c-.5,0-.9,0-1,0s-.5,0-1,0c-1.3,0-3.8-.2-5.3-.2s-1.5.4-1.5,1,.5.9,1,.9,1.1,0,1.8.2c.9.2,1.6.8,1.7,3,.1,2,.1,3.7.1,13.4v11c0,5.8,0,10.9-.3,13.4-.2,1.8-.5,2.8-1.4,3-.8.1-1.4.2-1.8.2-.7,0-1,.5-1,.9,0,.7.5,1.1,1.5,1.1s3.7-.1,5.1-.2c.5,0,.9,0,1,0s.3,0,.7,0c1.4,0,4.3.2,6.9.2s1.5-.8,1.5-1.1c0-.5-.3-.9-1-.9h0Z"/>
        <path class="st0" d="M450,377.1c-.1,0-.4,0-.8.1-.9.2-2.5.5-5.4.5h-23.3c-.7,0-3-.1-4.9-.3-1,0-1.6-.3-2-.5-.3-.1-.5-.2-.8-.2-.6,0-.9.8-1.1,1.6,0,.2-1.4,5.9-1.4,6.6s.4,1.1.9,1.1c.8,0,1-.7,1.1-1,.1-.4.3-.8,1-1.8.9-1.3,2.2-1.7,5.9-1.8h8.7c0-.1,0,25.6,0,25.6,0,5.8,0,10.9-.3,13.4-.2,1.8-.5,2.8-1.3,3-.8.1-1.4.2-1.8.2-.7,0-1,.5-1,.9,0,.7.5,1.1,1.5,1.1s3.7-.1,5.1-.2c.5,0,.9,0,1,0s.3,0,.7,0c1.4,0,4.3.2,7,.2s1.5-.8,1.5-1.1c0-.5-.3-.9-1-.9s-1.9-.1-2.8-.2c-1.4-.2-1.8-1.2-2-3-.3-2.6-.3-7.6-.3-13.4v-25.8h7.3c6,.2,7,1.7,7.1,3.1v.7c.1.6.2,1.6,1.1,1.6s1-.4,1-1.4,0-1,0-2c0-1.6.1-3.7.1-4.9s0-1.3-.9-1.3h0Z"/>
        <path class="st0" d="M502.8,377.6c-.8,0-2.9,0-4.4.1-.8,0-1.5,0-1.6,0s-.5,0-1,0c-.9,0-2.1-.1-3.1-.1s-1.5.6-1.5.9c0,.7.7.9,1.4,1.2.2,0,.6.2.6,1.2s-.3,1.8-1,2.9c-1,1.6-7.8,13.4-9.9,17.4-2.3-3.9-10-17.2-10.9-18.8-.5-.9-.8-1.5-.8-2.2s0-.4.5-.6c.1,0,.3-.1.4-.1.4-.1.9-.3.9-.9s-.2-1-1.4-1c-1.7,0-3.4,0-4.4.1-.4,0-.7,0-.8,0s-.7,0-1.5,0c-1.6,0-3.9-.1-4.7-.1s-1.4.5-1.4,1,.5,1,1.2,1,1.5.3,2.4.9c1.2.8,2.8,2.5,4.1,4.5,2.2,3.3,10.5,16.9,10.9,17.9.8,1.8,1.4,3.1,1.4,6.3v5.4c0,1,0,3.6-.2,6.2,0,1.2-.4,2.7-1.5,3-.8.1-1.4.2-1.8.2-.7,0-1,.5-1,.9,0,.7.5,1.1,1.5,1.1s3.7-.1,5.1-.2c.5,0,.9,0,1,0s.3,0,.7,0c1.4,0,4.3.2,6.9.2s1.5-.8,1.5-1.1c0-.5-.4-.9-1-.9s-1.9-.1-2.7-.2c-1.4-.2-2-1-2.1-3-.2-2.6-.2-5.2-.2-6.2v-5.4c0-2,0-3.9.9-6,1.1-2.6,9.8-17.2,11.8-19.7,1.4-1.7,2-2.4,3.1-3.1.9-.5,2-.8,2.6-.8,1,0,1.4-.6,1.4-1.1s-.4-.9-1.4-.9h0Z"/>
        <path class="st0" d="M280.3,416.4c-.8,0-1,.8-1.1,1.4-.4,2.4-1,3.5-2.5,4.1-1.5.6-4.2.6-5.8.6-12.7,0-14.1-.9-14.3-4.6,0-.9,0-5,0-7.9,0-1.1,0-2.1,0-2.7v-5.4c1.6,0,10.7.1,12.3.3,2.4.2,2.6,1.2,2.8,1.8.2.7.2,1.3.2,1.9s.5,1.1,1,1.1c1,0,1-1.2,1-1.7s.1-2.7.2-3.9c.1-1.3.3-2.1.4-2.7,0-.4.1-.6.1-.8,0-.8-.5-1-.9-1s-.9.4-1.3,1c-.4.5-1.1.6-2.6.7-1,0-7.7.1-13.2.1v-17.3c2.1,0,14.9,0,15.9.2,3.4.4,3.7,1.1,4,1.8.3.6.4,1.6.4,2,0,1.2.7,1.4,1.1,1.4s.8-.4,1-1.1c0-.5.2-1.9.2-2.9,0-.5,0-1,0-1.2.1-1,.2-1.7.4-2.2,0-.4.1-.6.1-.8,0-1-.5-1.1-.8-1.1s-.5.1-.7.2c-.1,0-.2,0-.3.1-.5.1-1.4.2-2.6.3-1.4,0-21,0-21.8,0s-.4,0-.8,0c-1.3,0-4.1-.1-6.2-.1s-1.6.4-1.6,1,.5.9,1.1.9,1.5,0,2,.2c1.7.4,2.1,1,2.2,3,.1,2,.1,3.7.1,13.4v11c0,5.8,0,10.9-.3,13.4-.3,1.8-.6,2.8-1.4,3-.5.1-1.2.2-1.7.2s-1,.5-1,.9c0,.7.5,1,1.5,1s3.7,0,5.1-.1c.6,0,.9,0,1,0,.5,0,2,0,4.1,0,4.6.1,12.4.3,18.9.3s3.4,0,3.9-2c.3-1.4.8-5.6.8-6.2s0-1.5-.9-1.5h0Z"/>
      </g>
      <g>
        <path class="st0" d="M647.3,58.6c3.7,2.2,7.1,4.2,8.4,8.6,1,3.5.9,7.9.8,12.2,0,1.1,0,2.1,0,3.2v.6c.2,1.6.4,3.3.9,5,.5,2,1.5,3.5,3,4.5.7.5,1.6.9,2.7,1.3.9.3,1.9.7,3.2,1,1.9.5,3.9.9,5.8,1.3l11.2,2.5c.4,0,.8.2,1.1.3.2,0,.4.1.6.2.5.2,1.1.3,1.7.5,1.9.6,3.8,1.6,6,3,1.9,1.2,3.4,2.7,4.5,3.9,1.3,1.4,2.2,2.8,2.9,4.1.8,1.3,1.2,2.5,1.6,3.5.4,1.1.6,1.9.7,2.4v.7c.1.1.1.2,0,.3,0,0-.2.1-.2.1-.2,0-.4,0-.5-.3l-.2-.7c-.2-.5-.5-1.2-.9-2.2-.5-.9-1-2-1.8-3.1-1-1.4-1.9-2.5-3-3.6-1.5-1.4-2.9-2.5-4.3-3.3-.3-.2-.6-.4-.9-.5l-.7-.4c-.3-.2-.7-.3-1-.5l-1.8-.8-1.1-.4c-.5-.2-.9-.3-1.5-.5l-.6-.2c-.3,0-.7-.2-1-.2-1.1-.2-2.2-.5-3.3-.8-2.3-.5-4.6-1-6.9-1.5-2.5-.5-4.7-1-6.9-1.6-1.1-.3-2.3-.6-3.4-1.1-1.3-.5-2.4-1.1-3.3-1.7-.1,0-.3-.2-.4-.3.8,1.5,2,2.7,3.4,3.5,2.4,1.3,5.8,2.5,9.3,3.6,9.8,3.2,21.9,7.1,21.5,19,0,.1,0,.2-.2.3-.7.4-1.3.8-1.8,1.1-.5.3-1,.6-1.2.8,0,0-.2.1-.4,0-.1,0-.2-.2-.3-.3l-.2-.5c-2.3-7.9-8.3-10.5-13-12.2,4.3,4.5,6.1,9.5,7.6,13.6,1.2,3.2,2.2,6,4,7.8.2.2.5.4.7.6,1,.7,2,1.1,3,1.1,2.9,0,4.8-1.8,7-3.8,2.6-2.3,5.5-5,10.5-5s8.1,2.7,10.8,5.1c2.2,1.9,4.1,3.6,6.7,3.6s1.9-.3,2.8-1c2.3-1.7,3.5-4.8,4.8-8.5,1.5-4.1,3.3-9.1,7.6-13.6-4.7,1.7-10.6,4.3-13,12.2l-.2.6c0,.1-.1.2-.3.3s-.3,0-.4,0c0,0,0,0,0,0,0,0-.2-.2-.5-.3-.1,0-.4-.3-.8-.5,0,0-.1,0-.2,0-.4-.2-.9-.5-1.4-.9-.1,0-.2-.2-.2-.3-.5-12,11.7-16,21.5-19.2,3.6-1.2,7-2.3,9.3-3.6,1.5-.8,2.6-2,3.5-3.6-.2.1-.3.2-.5.3-.9.6-1.9,1.2-3.3,1.7-1.2.4-2.3.8-3.4,1.1-2.3.6-4.6,1.1-6.9,1.6-2.3.5-4.6,1-6.9,1.5h-.3c-1,.3-2.1.5-3.1.8-.3,0-.6.1-.8.2l-.7.2c-.6.2-1.1.3-1.5.5-.5.2-1,.3-1.5.5l-1.4.6c-.4.2-.7.3-1,.5l-.3.2c-.1,0-.3.1-.4.2-.3.2-.6.3-.9.5-1.5.9-2.9,2-4.3,3.4-1,1-2,2.2-3,3.5-.8,1.1-1.4,2.2-1.8,3.1-.4.8-.7,1.5-.9,2.2l-.2.7c0,.3-.5.4-.7.2,0,0-.1-.2-.1-.4v-.8c.2-.5.4-1.3.8-2.4.4-1,.8-2.2,1.6-3.5.7-1.3,1.7-2.7,2.9-4.1,1.1-1.2,2.6-2.7,4.5-3.9,2.1-1.4,4-2.3,6-3,.5-.2,1.1-.4,1.6-.5.2,0,.4-.1.6-.2.3,0,.7-.2,1-.3,1.1-.3,2.2-.5,3.4-.8l7.9-1.7c1.9-.4,3.9-.8,5.8-1.3,1.2-.3,2.3-.6,3.2-1,1.1-.4,2-.8,2.7-1.3,1.4-.9,2.4-2.4,3-4.5.5-1.7.7-3.4.8-5.1v-.9c0-.9,0-1.9,0-2.9,0-4.3-.2-8.7.8-12.2,1.2-4.4,4.7-6.4,8.4-8.6,4.6-2.7,9.8-5.8,12.2-14.2,3.2-11.2-2.7-21.1-5.2-24.7,1.4,6.6,2.5,15.3,1.9,21.4-.5,4.8-8.1,9.6-14.8,13.9-3.3,2.1-6.5,4.1-8.3,5.8-1.6,1.5-2.7,3.1-3.4,5,.2-.3.4-.6.7-.9.8-1,1.8-2,3-2.9,1.2-.9,2.4-1.7,3.3-2.2,1.2-.7,2.2-1.3,3.3-1.8h.1c2-1.2,4-2.2,5.5-3.2,1.9-1.2,3.2-2.1,3.8-2.6.3-.2.5-.4.7-.6.1,0,.2-.2.3-.2l.4-.3c.2-.1.4-.1.5,0,.2.2.2.4,0,.5l-.3.4c0,0-.1.2-.2.3-.2.2-.4.5-.7.7-.6.6-1.8,1.8-3.5,3.2-1.4,1.1-3.1,2.3-5.5,3.8l-1,.6c-.7.4-1.4.9-2.1,1.3-1,.7-2,1.4-2.9,2.2-.9.8-1.8,1.6-2.4,2.5-.7.9-1.3,1.9-1.7,2.9-.2.3-.3.7-.4,1,0,.2-.1.3-.2.5,0,.1,0,.3-.2.5,0,.3-.2.7-.3,1v.4c-.2.3-.3.7-.3,1,0,.5-.2.9-.2,1.4,0,.7-.2,1.2-.2,1.8,0,.2,0,.5,0,.7v.2c.6,7.7.1,13.7-12.3,15.8-16.7,2.8-26.7,13.8-27.9,23.2,0,.2-.2.4-.4.4-.6,0-1,0-1.3,0-.7,0-1.3,0-2,0-.2,0-.7,0-1.3,0-.2,0-.4-.1-.4-.4-1.2-9.4-11.2-20.4-27.9-23.2-12.5-2.1-13-8-12.3-15.6,0-.1,0-.3,0-.5,0-.2,0-.5,0-.8,0-.5,0-1.1-.2-1.7,0-.4-.1-.8-.2-1.4,0-.4-.2-.8-.2-1.2v-.3c-.1-.3-.2-.6-.3-.9,0-.2-.1-.4-.2-.6,0-.1-.1-.3-.2-.5-.1-.3-.2-.6-.4-.9-.4-1-1-1.9-1.7-2.9-.7-.9-1.5-1.7-2.4-2.5-1-.8-1.9-1.5-2.9-2.2-.7-.5-1.4-.9-2.1-1.4l-1-.6c-2.4-1.5-4.1-2.7-5.5-3.8-1.7-1.4-2.9-2.6-3.5-3.2-.3-.3-.5-.5-.7-.7,0,0-.2-.2-.2-.3-.2-.2-.3-.4-.3-.4-.1-.2-.1-.4,0-.6.2-.1.4-.2.5,0l.6.5c.2.2.4.4.7.6.6.5,1.9,1.5,3.8,2.6,1.6,1,3.7,2.1,5.7,3.2,1.1.6,2.2,1.2,3.3,1.8,1,.6,2.2,1.3,3.3,2.2,1.1.9,2.1,1.9,3,2.9.3.3.5.6.7,1-.7-2-1.9-3.6-3.5-5.2-1.8-1.7-4.9-3.7-8.3-5.8-6.7-4.3-14.3-9.1-14.8-13.9-.6-6,.5-14.8,1.9-21.4-2.6,3.6-8.4,13.5-5.2,24.7,2.4,8.4,7.6,11.5,12.2,14.2h0Z"/>
        <path class="st0" d="M670,108.2c-2.1-1.5-5.2-3.3-6.9-3.3s-1,0-1,1.3c0,13.2,3.5,22.2,10.3,26.8,1.6,1,4.4,1.2,6.4,1.2s2.3,0,3.4,0c.9,0,1.7,0,2.5,0,0-.4.3-.7.6-1.1-2.2-2.2-3.2-5.2-4.5-8.6-1.9-5.2-4.2-11.5-10.8-16.2h0Z"/>
        <path class="st0" d="M746.7,108.2c-6.6,4.7-8.9,11-10.8,16.1-1.3,3.5-2.4,6.5-4.5,8.6.2.3.5.7.6,1.1.8,0,1.6,0,2.5,0,1.1,0,2.3,0,3.4,0,2,0,4.9-.1,6.4-1.2,6.9-4.6,10.3-13.6,10.3-26.8s-.5-1.3-1-1.3c-1.7,0-4.7,1.7-6.9,3.3h0Z"/>
        <path class="st0" d="M705.9,437.2l2.3,1.2,2.3-1.2c28.8-15.2,53.2-40.5,70.7-73.3,17.8-33.4,27.3-72.4,27.3-112.9s-1.8-35.2-5.4-52.2l-.8-3.9h-37.6c0-.1,0-.2,0-.3,0-2.7-2.2-5-5-5h-23.3.2c-3.6-2.7-7.2-22.4-9.2-35.3l-1,2.6c.5,11.5,1.4,26.7,2.5,32.7h-41.3c1.2-6,2.1-21.2,2.5-32.8l-1-2.6c-2,12.9-5.7,32.6-9.2,35.3h.2c0,0-23.7,0-23.7,0-2.7,0-5,2.2-5,5s0,.2,0,.3h-37.6l-.8,3.9c-3.6,16.9-5.4,34.5-5.4,52.2,0,40.5,9.4,79.5,27.3,112.9,17.5,32.8,42,58.1,70.7,73.3h0ZM759.1,191.9c1.5,0,2.8,1.2,2.8,2.8s-1.2,2.8-2.8,2.8h-12.3l-2.4-5.5h14.7ZM723,191.9l2.4,5.5h-14.4l-2.4-5.5h14.4ZM687.3,191.9l2.4,5.5h-14.4l-2.4-5.5h14.4ZM618.1,199.8h180.2c3.5,16.3,5.3,33.5,5.3,51.2,0,82-39.4,152.3-95.4,181.8-56-29.5-95.4-99.8-95.4-181.8s1.8-34.8,5.3-51.2h0Z"/>
        <path class="st0" d="M747.2,460.5l-5.6,3-1-2-5.3-9.5c-8,5.1-16.8,7.5-27,7.5s-19-2.5-27-7.5l-5.3,9.5-1,2-5.6-3-2.8,4.6c-.2.4,0,1,0,1.4,1.2,2.9,6.6,6.3,14.1,9,8.4,3,18.2,4.6,27.6,4.6s19.1-1.6,27.6-4.6c7.5-2.6,12.9-6.1,14.1-9,.2-.4.3-1,0-1.4l-2.8-4.6ZM705.5,474.1h-7.1c-1.1,0-1.8-.3-1.8-1.2v-6.5c0-.9.7-1.2,1.7-1.2h7c.9,0,1.5.2,1.5.8s-.6.8-1.5.8h-5.7v1.9h5c.8,0,1.4.1,1.4.8s-.6.8-1.4.8h-5v2.1h5.9c.9,0,1.5.2,1.5.8s-.6.8-1.5.8h0ZM719.5,466.9h-2.8v6.4c0,.6-.6,1-1.5,1s-1.5-.4-1.5-1v-6.4h-2.8c-.8,0-1.5-.3-1.5-.9s.7-.9,1.5-.9h8.6c.8,0,1.5.3,1.5.9s-.7.9-1.5.9h0Z"/>
        <path class="st0" d="M684.2,442.9c-26.1-16.8-48.6-41.8-64.9-72.4-.2-.4-.4-.8-.6-1.2v-.2c0,0-18.8,8.1-18.8,8.1.5,1,1,1.9,1.5,2.8,18.2,34,43.3,61.8,72.7,80.4l10.2-17.6h0ZM618.7,392.7c-1.2.7-2.8-.1-4.4-2.8-1.6-2.8-1.4-4.6-.7-5,.4-.2.9,0,1.2.6.7,1.2-.7,1.6.6,3.8.7,1.1,1.5,1.5,1.9,1.3.3-.1.5-.5.2-1.3l-1-2.7c-.8-2.2-.2-3,.5-3.4,1.5-.8,3.2.8,4.2,2.7,1,1.7,1.5,4.1.6,4.6-.4.2-.9-.1-1.2-.7-.6-1,.5-1.4-.7-3.5-.6-1-1.2-1.4-1.7-1.1s-.1,1.2.2,1.9l.8,2c.8,2.2.3,3.2-.5,3.6h0ZM625.4,403.4c-.9.6-2.9-.4-4.2-2.5-1.9-2.9-1.9-5.4.3-6.8,1.8-1.2,4.4-.6,6.3,2.4,1.6,2.4,1.4,4.5.8,4.9-.4.3-.9.1-1.3-.5-.8-1.2.6-1.6-.7-3.6-.9-1.3-2.4-1.9-3.8-1-1.2.8-1.7,2.1-.5,3.9,1.1,1.7,2.3.8,3,1.9.3.5.5,1.2.1,1.4h0ZM626.1,408c-.5-.6-.5-1.2,0-1.5l5-3.6c.4-.3,1-.1,1.5.5s.5,1.2,0,1.5l-5,3.6c-.4.3-1,.1-1.5-.5ZM636,415.4l-2.7-3.4-1.4,1.1,3.2,3.9c.5.6.7,1.1.3,1.5s-.9,0-1.4-.6l-3.8-4.8c-.6-.7-.7-1.3-.1-1.8l4.4-3.5c.6-.5,1.2-.2,1.7.5l3.7,4.7c.5.6.7,1.1.3,1.4-.4.4-.9,0-1.3-.6l-3.1-3.8-1.3,1,2.7,3.4c.4.5.6,1,.2,1.4-.4.3-.8,0-1.3-.5h0ZM648.7,423.9l-4.3,4.1c-.5.5-1.1.4-1.8-.4-.5-.6-.7-.9-.6-1.3l.4-6.5h0s-3.2,3-3.2,3c-.4.4-.9.2-1.5-.3-.5-.5-.7-1.1-.2-1.5l4.4-4.2c.5-.5,1.1-.3,1.8.5.4.4.6.8.5,1.2l-.5,6.6h0s3.3-3.1,3.3-3.1c.4-.4.9-.2,1.5.3.5.5.6,1.1.2,1.5h0ZM651.1,434.4c-.3.4-1,.3-1.5-.2-.6-.5-.7-1.1-.4-1.5l3.6-4-1.8-1.6c-.5-.5-.8-1.1-.5-1.4s.9-.1,1.5.3l5.5,4.9c.5.5.8,1.1.5,1.4-.3.4-.9.1-1.5-.3l-1.8-1.6-3.6,4h0ZM656.4,440c-.6-.5-.8-1.1-.4-1.5l3.9-4.8c.3-.4.9-.4,1.5.1.6.5.8,1.1.4,1.5l-3.9,4.8c-.3.4-.9.4-1.5-.1h0ZM668.1,447.3c0,.2,0,.5-.2.7-.2.3-.9.3-1.4-.1-.5-.3-.7-.7-.6-1.1l.2-1.4-3.3-2.5-1.3.6c-.3.2-.7,0-1.2-.3-.6-.4-.8-1-.5-1.3.1-.2.4-.3.6-.4l6.2-2.8c.4-.2.8,0,1.3.3l.5.4c.5.3.8.7.7,1.3l-1.1,6.5h0Z"/>
        <polygon class="st0" points="664 442.3 666.4 444.1 667.1 440.8 667.1 440.8 664 442.3"/>
        <path class="st0" d="M786.7,401.6l-1.5,2.2,1.7,1.2,1.5-2.1c.5-.8,1-1.7.3-2.2-.7-.5-1.3,0-1.9.9h0Z"/>
        <polygon class="st0" points="761.3 430.8 762.2 434.1 764.4 432.1 761.3 430.8 761.3 430.8"/>
        <path class="st0" d="M797.8,369.2c-.2.4-.4.9-.7,1.3-16.4,30.6-38.8,55.6-64.9,72.4l10.2,17.6c29.4-18.7,54.5-46.5,72.7-80.4.5-.9,1-1.9,1.5-2.8l-18.7-8.1h0c0,0,0,0,0,0ZM759.1,440.4l-4.1,3.3c-.7.6-1.3.7-1.8.1l-3.7-4.6c-.3-.4-.2-1,.5-1.5.6-.5,1.2-.5,1.5-.1l3.4,4.3,3.3-2.6c.6-.5,1.2-.6,1.5-.2.3.4,0,.9-.6,1.4h0ZM768.1,432.7c-.4.4-.8.5-1.2.4l-1.3-.5-3.1,2.7.3,1.4c0,.4,0,.7-.5,1.1-.5.5-1.1.6-1.4.2-.1-.1-.2-.5-.2-.7l-1.5-6.6c-.1-.4.1-.8.6-1.2l.5-.4c.4-.4.9-.6,1.4-.4l6.2,2.3c.2,0,.5.2.6.3.3.3,0,.9-.4,1.4h0ZM774.5,426.3l-2.6,2.7c-.6.6-1.2.9-1.8.3l-4-3.9c-.6-.5-.3-1.1.3-1.8l2.4-2.4c1.3-1.3,3.1-2.7,4.3-1.5.5.5.5,1.2,0,2.2h0c1-.7,2-.8,2.7,0,1.1,1.1.2,3-1.3,4.5h0ZM783.3,416.9c-2.6,3.1-5,3.2-6.8,1.7-1.7-1.4-1.7-4,.6-6.8,2.3-2.8,4.9-3.3,6.6-1.9,1.7,1.4,2,4-.5,7h0ZM793.8,402.7c-.8,1.1-1.6.7-1.9.5-1.1-.8-1.7-.8-2.5.4l-1.4,2.1,1.8,1.3c.4.3.4.9,0,1.5-.5.6-1,.9-1.5.5l-4.8-3.4c-.6-.5-.5-1.1,0-1.8l2.4-3.5c1.7-2.5,3.1-2.5,3.9-1.9.7.5.9,1.5.4,2.6h0c.8-1,1.5-.8,2.2-.4.7.5,1.2.4,1.5.6.3.2.2.9-.1,1.4h0ZM800.2,390.9c.5.3.3.8,0,1.5l-3.2,5.2c-.5.8-1,1.1-1.7.8l-4.8-2.9c-.7-.4-.6-1,0-1.8l3.1-5.1c.4-.6.8-1,1.3-.7.5.3.3.8,0,1.5l-2.5,4.2,1.4.9,2.2-3.7c.3-.6.7-1,1.2-.7.5.3.3.8,0,1.4l-2.2,3.7,1.6,1,2.6-4.3c.4-.6.8-1,1.3-.7h0Z"/>
        <path class="st0" d="M771.5,421.6c-.5-.5-1.3,0-2,.6l-1.4,1.4,1.3,1.3,1.5-1.5c.8-.9,1-1.5.6-1.9Z"/>
        <path class="st0" d="M782.1,411.9c-1.1-.9-2.6-.8-3.9.8-1.3,1.6-1.2,3,0,4,1.1.9,2.5,1.2,4.1-.6,1.5-1.8,1-3.2,0-4.1h0Z"/>
        <path class="st0" d="M771.5,424.5l-1.3,1.3,1.5,1.4,1.5-1.5c.7-.7,1.4-1.6.8-2.2-.7-.7-1.6.1-2.5,1Z"/>
        <path class="st0" d="M603.4,369.2c.3,1.5-.3,3.4-1.5,4.8h0c0,0,0,0,0,0l16.5-7.2h0s0,0,0,0l.8-.3h.1c0,.1,2.7,5.1,2.7,5.1,0,0,5.5-.8,7.7-2.5h0s0,0,0-.1c.3-.3,1.3-1.5,1-3.5-.4-2.9-3.5-7.7-15.8-14.4-9.7-5.3-7.9-15.1-7.8-15.5-.2.2-6.3,4.5-3.9,18.4v.5c0,0-.4,0-.4,0-4.7,0-12.9-3-13.6-13.7,0,.1-6.5,14.2,10.5,23.9,0,0,3.1,1.8,3.6,4.5h0Z"/>
        <path class="st0" d="M827.1,340.9c-.6,10.7-8.8,13.6-13.6,13.7h-.5v-.5c2.6-13.9-3.5-18.2-3.8-18.4,0,.4,1.9,10.2-7.8,15.5-12.3,6.7-15.4,11.5-15.8,14.4-.3,2,.7,3.2,1,3.5,0,0,0,0,.1.1.2.2.5.3.8.5,2.5,1.4,6.9,2,6.9,2l2.8-5,.8.3h0s0,0,0,0l16.5,7.2v.4-.5h0c-1.2-1.5-1.8-3.3-1.5-4.8.5-2.7,3.6-4.5,3.6-4.5,17-9.7,10.5-23.7,10.5-23.9h0Z"/>
        <path class="st0" d="M724.8,142.3c.3,0,.6-.3.6-.6s-.3-.6-.6-.6-.6.3-.6.6.3.6.6.6Z"/>
        <path class="st0" d="M726.5,144.6c1.1-.5,1.8-1.5,1.8-2.6s-.5-1.7-1.2-2.3c-.6-.4-1.2-.1-.8.3.5.5.8,1.2.8,2s-.4,1.6-1,2.2c-.4.3,0,.7.4.4h0Z"/>
        <path class="st0" d="M689.7,142c0-.7.3-1.4.8-2,.4-.5-.2-.8-.8-.3-.7.6-1.2,1.4-1.2,2.3s.7,2.1,1.8,2.6c.5.2.8,0,.4-.4-.6-.6-1-1.4-1-2.2h0Z"/>
        <path class="st0" d="M691.9,141c-.3,0-.6.3-.6.6s.3.6.6.6.6-.3.6-.6-.3-.6-.6-.6Z"/>
        <path class="st0" d="M718.2,174.4l8.9-23.2c4.6-6.1,4.8-11.5,3.8-14.8-.3-.8-.6-1.4-1-1.9-.2,0-.4,0-.6.1-1.8.3-5.9.9-11.2,6.2-5.8,5.8-7.6,6.2-9.7,6.2s-3.9-.4-9.7-6.2c-5.3-5.3-9.4-5.9-11.2-6.2-.2,0-.4,0-.6-.1-.4.5-.7,1.1-1,1.9-1.1,3.3-.9,8.7,3.8,14.8l8.9,23.2c-.1-1.8-2-11-2.8-14.2s2.8-3.8,2.8-4.8c0-6.1,4.6-3.6,9.8-3.6s9.8-2.5,9.8,3.6,3.6,1.6,2.8,4.8c-.8,3.2-2.7,12.4-2.8,14.2h0ZM697.9,146c-.1,0-.2,0-.3-.1-.6-.5-1.9-1.6-2.9-1.6s-1.2,1.2-3,1.2c-2.7,0-4.4-1.9-4.4-4.3s.9-3.8,3.1-3.8,2.6,3.3,5.1,5.9c1.6,1.6,2.4,1.7,2.5,1.8.2,0,.2.3.2.4,0,.3-.2.5-.5.5h0ZM719.2,145.8c0,0-.2.1-.3.1-.3,0-.5-.2-.5-.5s0-.4.2-.4c.2-.1.9-.2,2.6-1.8,2.5-2.6,2.2-5.9,5.1-5.9s3.1,1.8,3.1,3.8-1.6,4.3-4.4,4.3-1.9-1.2-3-1.2-2.3,1.2-2.9,1.6Z"/>
        <path class="st0" d="M716.3,177.6c1.7-2.2,1.2-2.6-.8-3.6,0,0-.1,0-.2-.1-.2.5-.5,1.1-1,1.6-1,1.2-2.5,2.2-5,2.5v2.9c2.1,0,4.1-.4,6-.9.2-.9.5-1.7,1-2.4h0Z"/>
        <path class="st0" d="M715.2,180.3c-2,1.1-4.3,1.7-6.9,1.7s-4.9-.6-6.8-1.7c.6,2.3,1.4,4.8,6.8,4.8s6.2-2.4,6.9-4.8Z"/>
        <path class="st0" d="M701.5,173.9c0,0-.2,0-.2.1-2,1-2.4,1.4-.8,3.6.5.6.7,1.5,1,2.4,1.8.5,3.9.8,6,.9v-2.9c-2.3-.2-3.9-1.2-4.9-2.4-.5-.6-.8-1.2-1.1-1.8h0Z"/>
        <path class="st0" d="M713.5,169.9c-3.8-2.3-3.9-1.9-5.1-1.9s-1.3-.4-5.1,1.9c0,0,1.5-.6,5.1-.6s5.1.6,5.1.6Z"/>
        <path class="st0" d="M705.8,186.1l.3,2.6h4.1l.3-2.6c-.7.1-1.5.2-2.4.2s-1.7,0-2.4-.2Z"/>
        <path class="st0" d="M711.9,188.6l.8-3.1c-.4.2-.8.3-1.2.4l-.4,2.7h.8Z"/>
        <path class="st0" d="M704.5,188.6h.8l-.3-2.7c-.5-.1-.9-.3-1.2-.4l.8,3.1h0Z"/>
        <path class="st0" d="M800.2,250.8c0-16.2-1.6-32.2-4.6-47.8h-174.8c-3.1,15.5-4.7,31.6-4.7,47.8s.8,21.9,2.2,32.6h179.8c1.4-10.7,2.2-21.6,2.2-32.6h0ZM687.7,212.9l2.2,2.7c1.3-.9,2.8-1.8,4.3-2.5l-1.2-3.3,6.1-2.2,1.2,3.3c1.6-.4,3.2-.7,4.9-.9v-3.5h6.5v3.5c1.7.2,3.3.4,4.9.9l1.2-3.3,6.1,2.2-1.2,3.3c1.5.7,2.9,1.6,4.3,2.5l2.2-2.7,5,4.2-2.3,2.7c.3.3.5.6.8.9-1.2.2-2.6.3-4.2.3s-3.7-.2-5.5-.5c-4.2-2.7-9.2-4.3-14.5-4.3s-10.5,1.6-14.7,4.4c-1.6.3-3.3.4-4.9.4s-3.3-.1-4.5-.3c.2-.3.5-.5.7-.8l-2.2-2.7,5-4.2h0ZM729.1,272.4l-2.2-2.7c-1.4.9-2.8,1.8-4.3,2.5l1.2,3.3-6.1,2.2-1.2-3.3c-1.6.4-3.2.7-4.9.9v3.5h-6.5v-3.5c-1.7-.2-3.3-.5-4.9-.9l-1.2,3.3-6.1-2.2,1.2-3.3c-1.5-.7-2.9-1.5-4.3-2.5l-2.2,2.7-5-4.2,1.3-1.6h13c3.5,1.6,7.3,2.6,11.4,2.6s8-.9,11.4-2.6h13l1.3,1.6-5,4.2h0ZM745.2,263.8c0,.9-.7,1.1-1.1,1.1h-32c-.2.9-2.2,1.5-3.6,1.5s-3.4-.7-3.6-1.5h-32c-.9,0-1.1-.7-1.1-1.1v-39.8c0-.9.7-1.1,1.1-1.1h4.9l1.6-1.3s0,0,0,0c0,0,0,0,0,0,0,0,0,0,0,0,0,0,.1,0,.2,0,0,0,0,0,0,0,0,0,.1,0,.2,0,0,0,0,0,0,0,0,0,3.6,1.2,8.7,1.2s5.9-.4,8.7-1.2c2.4-.7,4.5-1.1,6.3-1.1,2.8,0,4.2.9,4.9,1.6.7-.7,2.1-1.6,4.9-1.6s3.9.4,6.3,1.1c2.8.8,5.7,1.2,8.7,1.2,5.1,0,8.7-1.2,8.7-1.2,0,0,0,0,0,0,0,0,.1,0,.2,0s0,0,0,0c0,0,.1,0,.2,0,0,0,0,0,0,0,0,0,0,0,0,0,0,0,0,0,0,0l1.6,1.3h4.9c.9,0,1.1.7,1.1,1.1v39.8h0Z"/>
        <path class="st0" d="M703.5,222.3c-1.6,0-3.6.3-5.9,1-2.9.8-5.9,1.3-9,1.3s-6.9-.6-8.3-1v31.8c1.1.3,4.2,1.1,8.3,1.1s5.9-.4,8.7-1.2c2.9-.8,5.3-1.3,7.3-1.3s2.5.2,3.2.6v-30.7c-.2-.3-1.1-1.5-4.2-1.5h0Z"/>
        <path class="st0" d="M697.6,256.5c-2.9.8-5.9,1.3-9,1.3s-7.6-.8-8.7-1.1l-4.2,5c2.6.6,9.9,1.9,18-.3,7.4-1.9,10.5-1.2,11.8-.4l2.1-4.9c-.3-.2-1.2-.7-3.1-.7s-4.1.4-6.9,1.2h0Z"/>
        <polygon class="st0" points="679 224.1 675.2 227.2 675.2 260.2 679 255.6 679 224.1"/>
        <path class="st0" d="M719.5,255.3c2.8.8,5.7,1.2,8.7,1.2s7.1-.8,8.2-1.1v-31.8c-1.4.4-4.4,1-8.2,1s-6.2-.4-9-1.3c-2.3-.7-4.3-1-5.9-1-3.1,0-4,1.2-4.2,1.5v30.7c.7-.3,1.7-.6,3.2-.6s4.4.4,7.3,1.3h0Z"/>
        <path class="st0" d="M728.2,257.8c-3.1,0-6.2-.4-9-1.3-2.8-.8-5.1-1.2-6.9-1.2s-2.7.4-3.1.7l2.1,4.9c1.3-.8,4.5-1.5,11.8.4,8.2,2.1,15.4.9,18,.3l-4.2-5c-1.1.3-4.4,1.1-8.7,1.1h0Z"/>
        <polygon class="st0" points="737.8 255.6 741.7 260.2 741.7 227.2 737.8 224.1 737.8 255.6"/>
        <path class="st0" d="M692.5,330.8c5.5-2.9,9.8-5.2,15.8-5.2s10.3,2.3,15.8,5.2c6.6,3.5,14.9,7.9,26.8,7.9s19.8-4,27-7.6c3.7-1.8,7-3.4,10.5-4.4,2.4-7.2,4.5-14.7,6.2-22.2-11.1.3-19,4.2-26,7.7-6.1,3-11,5.4-17.6,5.4s-11.1-2.4-16.8-5.4c-6.4-3.4-14.4-7.7-25.7-7.7s-19.3,4.3-25.7,7.7c-5.7,3-10.2,5.4-16.8,5.4s-11.5-2.4-17.6-5.4c-7-3.5-14.9-7.4-26-7.7,1.7,7.6,3.8,15,6.2,22.2,3.5,1,6.7,2.6,10.5,4.4,7.2,3.6,15.4,7.6,27,7.6s20.1-4.4,26.8-7.9Z"/>
        <path class="st0" d="M708.2,375.9c6,0,10.3,2.3,15.8,5.2,6.6,3.5,14.9,7.9,26.8,7.9s2.9,0,4.3-.2c7-8.8,13.3-18.4,18.9-28.9,0,0,0-.1,0-.2-2,.9-3.9,1.8-5.7,2.7-6.1,3-11,5.4-17.6,5.4s-11.1-2.4-16.8-5.4c-6.4-3.4-14.4-7.7-25.7-7.7s-19.3,4.3-25.7,7.7c-5.7,3-10.2,5.4-16.8,5.4s-11.5-2.4-17.6-5.4c-1.8-.9-3.7-1.8-5.7-2.7,0,0,0,.1,0,.2,5.6,10.5,12,20.1,18.9,28.9,1.4.1,2.8.2,4.3.2,11.9,0,20.1-4.4,26.8-7.9,5.5-2.9,9.8-5.2,15.8-5.2h0Z"/>
      </g>
    </g>
  </g>
</svg>