<?xml version="1.0" encoding="utf-8"?>
<!-- Generator: Adobe Illustrator 27.3.1, SVG Export Plug-In . SVG Version: 6.00 Build 0)  -->
<svg version="1.1" xmlns="http://www.w3.org/2000/svg" xmlns:xlink="http://www.w3.org/1999/xlink" x="0px" y="0px"
	 viewBox="0 0 623.6 160.2" style="enable-background:new 0 0 623.6 160.2;" xml:space="preserve">
<style type="text/css">
	.st0{fill:none;stroke:#000000;stroke-width:0.6;}
</style>
<g id="acf">
	<path d="M103.3,62.8c0-4.1,3.2-6.4,9.4-6.4c6.1,0,8.9,2.2,8.9,7v12c0,2,0.1,3.9,0.5,5.6h-6l-0.5-2.7c-1.2,1.7-3.8,2.9-6.5,2.9
		c-4,0-6.5-2.9-6.5-7.5c0-5.5,3.4-7.8,10.7-8.1l2.1-0.1v-1.1c0-3.1-0.6-4.5-2.7-4.5c-2.1,0-3.2,1.2-3.2,3.4h-6.2
		C103.3,63.1,103.3,62.9,103.3,62.8z M109.1,73.5c0,2.4,1,3.7,2.6,3.7c2.3,0,3.8-2,3.8-6v-2.1C110.8,69.1,109.1,70,109.1,73.5z"/>
	<path d="M144.6,57v19.7c0,0.4,0,0.8,0,1.1c0,1,0,2,0.2,3.2H138l-0.2-2.5c-1.1,2-2.9,3.1-5.3,3.1c-4.2,0-6.5-2.2-6.5-6.4V57h6.7
		v16.4c0,2.7,0.3,4.1,2.2,4.1c1.7,0,2.9-1.3,2.9-3.4V57H144.6z"/>
	<path d="M155.2,73c0,0.2,0,0.3,0,0.5c0,2.5,1,3.9,2.4,3.9c1.9,0,3-1,3-2.5c0-2.3-2.3-3.1-6.1-5.1c-3.7-2-5.8-3.2-5.8-6.7
		c0-4,3.4-6.8,8.7-6.8c5.8,0,8.8,2.2,8.8,6.5c0,0.2,0,0.5,0,0.8h-6.3c0-0.3,0-0.5,0-0.8c0-1.9-0.8-2.9-2.4-2.9
		c-1.4,0-2.4,0.9-2.4,2.1c0,2.1,2.8,2.9,7,5.4c3.4,2,5,3.6,5,6.8c0,4.7-3.4,7.1-10.3,7.1c-5.3,0-8.2-2.6-8.2-7.3c0-0.3,0-0.6,0-1
		H155.2z"/>
	<path d="M177.8,81.2c-4.2,0-6.1-2-6.1-6.3V61h-3.1V57h3.1v-4.1l6.6-2.9v7h4.3V61h-4.3v13c0,2.3,0.3,2.9,2.5,2.9
		c0.5,0,1.1,0,1.8-0.1v4C180.3,81.1,178.7,81.2,177.8,81.2z"/>
	<path d="M186.7,56.9h5.9l0.4,3.2c0.9-2.3,2.9-3.7,5.9-3.7c0.1,0,0.3,0,0.4,0v5.8c-0.2,0-0.4,0-0.6,0c-3.9,0-5.3,1.8-5.3,5.8V81
		h-6.7V56.9z"/>
	<path d="M209.2,52.2h-6.7v-5.7h6.7V52.2z M209.2,81h-6.7V57h6.7V81z"/>
	<path d="M213.8,62.8c0-4.1,3.2-6.4,9.4-6.4c6.1,0,8.9,2.2,8.9,7v12c0,2,0.1,3.9,0.5,5.6h-6l-0.5-2.7c-1.2,1.7-3.8,2.9-6.5,2.9
		c-4,0-6.5-2.9-6.5-7.5c0-5.5,3.3-7.8,10.7-8.1l2.1-0.1v-1.1c0-3.1-0.6-4.5-2.7-4.5c-2.1,0-3.2,1.2-3.2,3.4h-6.2
		C213.8,63.1,213.8,62.9,213.8,62.8z M219.6,73.5c0,2.4,1,3.7,2.6,3.7c2.3,0,3.8-2,3.8-6v-2.1C221.4,69.1,219.6,70,219.6,73.5z"/>
	<path d="M236.6,81V61.3c0-1.3,0-2.7-0.2-4.3h6.8l0.2,2.5c1.1-2,3-3.1,5.4-3.1c4.2,0,6.5,2.2,6.5,6.3V81h-6.7V64.6
		c0-2.7-0.4-4.1-2.2-4.1c-1.7,0-2.9,1.3-2.9,3.4V81H236.6z"/>
	<path d="M296.6,72.1c0,6.3-3.2,9.4-9.8,9.4c-7.9,0-10-3.7-10-13.1c0-8.4,2.6-12.1,10-12.1c6.3,0,9.8,3.2,9.8,8.8c0,0.1,0,0.1,0,0.2
		h-6.7c0-0.1,0-0.1,0-0.2c0-3.1-1-4.6-3.1-4.6c-2.7,0-3.1,2.4-3.1,8.1c0,6,0.5,8.6,3.2,8.6c2,0,3.1-1.7,3.1-4.8c0-0.1,0-0.3,0-0.4
		H296.6z"/>
	<path d="M318.7,57v19.7c0,0.4,0,0.8,0,1.1c0,1,0,2,0.2,3.2h-6.7l-0.2-2.5c-1.1,2-2.9,3.1-5.3,3.1c-4.2,0-6.5-2.2-6.5-6.4V57h6.7
		v16.4c0,2.7,0.3,4.1,2.2,4.1c1.7,0,2.9-1.3,2.9-3.4V57H318.7z"/>
	<path d="M323.4,46.5h6.7V81h-6.7V46.5z"/>
	<path d="M342.4,81.2c-4.2,0-6.1-2-6.1-6.3V61h-3.1V57h3.1v-4.1l6.6-2.9v7h4.3V61h-4.3v13c0,2.3,0.3,2.9,2.5,2.9
		c0.5,0,1.1,0,1.8-0.1v4C344.9,81.1,343.3,81.2,342.4,81.2z"/>
	<path d="M369.2,57v19.7c0,0.4,0,0.8,0,1.1c0,1,0,2,0.2,3.2h-6.7l-0.2-2.5c-1.1,2-2.9,3.1-5.3,3.1c-4.2,0-6.5-2.2-6.5-6.4V57h6.7
		v16.4c0,2.7,0.3,4.1,2.2,4.1c1.7,0,2.9-1.3,2.9-3.4V57H369.2z"/>
	<path d="M374.1,56.9h5.9l0.4,3.2c0.9-2.3,2.9-3.7,5.9-3.7c0.1,0,0.3,0,0.4,0v5.8c-0.2,0-0.4,0-0.6,0c-3.9,0-5.3,1.8-5.3,5.8V81
		h-6.7V56.9z"/>
	<path d="M389.5,62.8c0-4.1,3.2-6.4,9.4-6.4c6.1,0,8.9,2.2,8.9,7v12c0,2,0.1,3.9,0.5,5.6h-6l-0.5-2.7c-1.2,1.7-3.8,2.9-6.5,2.9
		c-4,0-6.5-2.9-6.5-7.5c0-5.5,3.3-7.8,10.7-8.1l2.1-0.1v-1.1c0-3.1-0.6-4.5-2.7-4.5c-2.1,0-3.2,1.2-3.2,3.4h-6.2
		C389.5,63.1,389.5,62.9,389.5,62.8z M395.3,73.5c0,2.4,1,3.7,2.6,3.7c2.3,0,3.8-2,3.8-6v-2.1C397.1,69.1,395.3,70,395.3,73.5z"/>
	<path d="M412.8,46.5h6.7V81h-6.7V46.5z"/>
	<g>
		<g>
			<path d="M442.3,60.9h-3.4v-4h3.4v-4c0-5.3,1.2-6.9,7.8-6.9c0.9,0,1.9,0,3.1,0.1v4.7c-0.4,0-0.8,0-1.1,0c-2.6,0-3.2,0.9-3.2,3.5
				V57h4.3v4h-4.3V81h-6.7V60.9z"/>
			<path d="M475.1,68.4c0,9.3-2,13.1-9.9,13.1c-7.9,0-10-3.7-10-13.1c0-8.4,2.6-12.1,10.1-12.1C472.5,56.4,475.1,60.1,475.1,68.4z
				 M465.2,77.4c2.6,0,3.2-2.6,3.2-8.6c0-5.8-0.4-8.1-3.2-8.1c-2.7,0-3.1,2.4-3.1,8.1C462,74.8,462.5,77.4,465.2,77.4z"/>
			<path d="M479.4,56.9h5.9l0.4,3.2c0.9-2.3,2.9-3.7,5.9-3.7c0.1,0,0.3,0,0.4,0v5.8c-0.2,0-0.4,0-0.6,0c-3.9,0-5.3,1.8-5.3,5.8V81
				h-6.7V56.9z"/>
			<path d="M513.9,57v19.7c0,0.4,0,0.8,0,1.1c0,1,0,2,0.2,3.2h-6.7l-0.2-2.5c-1.1,2-2.9,3.1-5.3,3.1c-4.2,0-6.5-2.2-6.5-6.4V57h6.8
				v16.4c0,2.7,0.3,4.1,2.2,4.1c1.7,0,2.9-1.3,2.9-3.4V57H513.9z"/>
			<path d="M531,56.4c3.2,0,5.3,1.3,6.2,3.7c1.2-2.4,3.1-3.7,5.7-3.7c4.2,0,6.5,2.2,6.5,6.3V81h-6.7V64.6c0-2.7-0.3-4.1-2.2-4.1
				c-1.7,0-2.9,1.3-2.9,3.4V81h-6.7V64.6c0-2.7-0.4-4.1-2.2-4.1c-1.7,0-2.9,1.3-2.9,3.4V81h-6.8V61.3c0-1.3,0-2.7-0.2-4.3h6.8
				l0.2,2.5C526.8,57.4,528.6,56.4,531,56.4z"/>
		</g>
	</g>
</g>
<g id="pta">
	<path d="M553.8,47.9c0-0.8,0-1.6-0.1-2.6h3.2l0.1,1.1c0.5-0.9,1.4-1.4,2.6-1.4c1,0,1.8,0.4,2.3,0.9c1,1.1,1.1,2.8,1.1,5.4
		c0,4-0.7,6-3.3,6c-1.1,0-2-0.4-2.6-1.3v5.4h-3.3V47.9z M557.1,52.5c0,1.8,0.4,2.7,1.4,2.7c1.2,0,1.4-1.3,1.4-3.9c0-0.1,0-0.2,0-0.3
		c0-2.8,0-4-1.3-4c-1.2,0-1.4,0.9-1.4,3V52.5z"/>
	<path d="M569.1,57.2c-2.1,0-3-1-3-3.1v-6.8h-1.5v-2h1.5v-2l3.2-1.4v3.4h2.1v2h-2.1v6.4c0,1.1,0.2,1.4,1.2,1.4c0.2,0,0.5,0,0.9,0V57
		C570.3,57.1,569.5,57.2,569.1,57.2z"/>
	<path d="M573,48.1c0-2,1.6-3.1,4.6-3.1c3,0,4.3,1.1,4.3,3.4v5.9c0,1,0.1,1.9,0.2,2.8h-2.9l-0.3-1.3c-0.6,0.8-1.8,1.4-3.2,1.4
		c-1.9,0-3.2-1.4-3.2-3.7c0-2.7,1.6-3.8,5.2-4l1,0v-0.5c0-1.5-0.3-2.2-1.3-2.2c-1,0-1.6,0.6-1.6,1.7h-3C573,48.3,573,48.2,573,48.1z
		 M575.8,53.4c0,1.2,0.5,1.8,1.3,1.8c1.1,0,1.8-1,1.8-2.9v-1C576.6,51.2,575.8,51.7,575.8,53.4z"/>
</g>
<g id="flagge">
	<polyline class="st0" points="226.6,134.3 256,104.9 487.4,104.9 	"/>
	<polyline class="st0" points="46.2,101.4 78.8,68.7 46.2,36 	"/>
</g>
</svg>
