<?xml version="1.0" encoding="utf-8"?>
<!-- Generator: Adobe Illustrator 22.1.0, SVG Export Plug-In . SVG Version: 6.00 Build 0)  -->
<svg version="1.1" id="Ebene_1" xmlns="http://www.w3.org/2000/svg" xmlns:xlink="http://www.w3.org/1999/xlink" x="0px" y="0px"
	 viewBox="0 0 177.4 111.1" style="enable-background:new 0 0 177.4 111.1;" xml:space="preserve">
<style type="text/css">
	.st0{fill:#E6320F;}
</style>
<g>
	<path d="M143.2,93.1c-1.4,0-3-0.7-3-2.5c0-1.7,1.8-2.5,3.2-2.5c2.2,0,3.5,0.9,3.5,0.9v1.8C146.9,90.8,145.6,93.1,143.2,93.1
		 M143.7,82.8c-2.3,0-4.1,1.2-4.1,1.2l0.6,1.1c0,0,1.6-1,3.6-1c1.2,0,3.2,0.5,3.2,3.1v0.8c0,0-1.4-1-3.6-1c-2.1,0-4.3,1.3-4.3,3.7
		c0,2.4,2.1,3.7,4,3.7c2.7,0,4.1-2.2,4.1-2.2V94h1.1v-7.2C148.1,84.6,146.7,82.8,143.7,82.8 M132.7,79.5c0,0.5,0.4,1,1,1s1-0.4,1-1
		s-0.4-1-1-1S132.7,79,132.7,79.5 M133,94h1.2V83H133V94z M127.7,82.8c-2.3,0-3.2,2.1-3.2,2.1V83h-1.1V94h1.2v-7.9
		c0,0,0.9-2.1,2.8-2.1c1,0,1.5,0.3,1.5,0.3l0.5-1.2C129.4,83,128.7,82.8,127.7,82.8 M113.8,93.1c-2.7,0-4.3-2.1-4.3-4.5
		s1.5-4.5,4.3-4.5s4.3,2.1,4.3,4.5S116.6,93.1,113.8,93.1 M113.8,82.8c-3.3,0-5.6,2.6-5.6,5.8s2.3,5.8,5.6,5.8s5.6-2.6,5.6-5.8
		S117.1,82.8,113.8,82.8 M97.6,84.2h2.4V91c0,1.8,1,3.2,3.1,3.2c1.1,0,2.2-0.6,2.2-0.6l-0.5-1.1c0,0-0.8,0.5-1.6,0.5
		c-1.5,0-1.9-1-1.9-2.3v-6.6h3.7V83h-3.7v-3.5H100V83h-2.4V84.2z M85.3,87.9c0-1.2,1.1-3.9,4.1-3.9c2.9,0,4,2.6,4,3.9H85.3z
		 M89.4,82.8c-3.3,0-5.4,2.7-5.4,5.8c0,3.1,2.4,5.8,5.6,5.8c1.8,0,3.5-1,4.6-2.2l-0.8-0.9c-0.7,0.9-2.1,1.9-3.7,1.9
		c-2.9,0-4.3-2.4-4.4-4h9.4c0-0.3,0-0.3,0-0.5C94.7,85.2,92.3,82.8,89.4,82.8 M80.3,82.8c-2.3,0-3.2,2.1-3.2,2.1V83h-1.1V94h1.2
		v-7.9c0,0,0.9-2.1,2.8-2.1c1,0,1.5,0.3,1.5,0.3L82,83C82,83,81.3,82.8,80.3,82.8 M63.8,85.8v-7.4h3.1c2.4,0,4,1.5,4,3.7
		s-1.6,3.7-4,3.7H63.8z M62.5,94h1.2v-7.1h3c3.3,0,5.3-2.1,5.3-4.9s-2-4.9-5.3-4.9h-4.3V94z"/>
	<path d="M149,69c0,0,1,0.8,2.4,0.8c1.2,0,2.4-0.6,3.1-2.2c0.3-0.6,5.8-14.7,5.8-14.7h-2.2l-3.3,8.8l-3.9-8.8h-2.3l5.2,11.1
		l-0.9,2.2c-0.4,1.1-0.8,1.7-1.7,1.7c-0.6,0-1.3-0.6-1.3-0.6L149,69z M136.8,61.9c0,0,1.6,2.3,4.8,2.3c2.1,0,4.4-1.1,4.4-3.2
		c0-2.3-1.8-3-3.9-3.5c-1.8-0.4-2.7-0.8-2.7-1.7c0-0.7,0.7-1.4,2.1-1.4c1.7,0,2.8,1.2,2.8,1.2l1.3-1.4c0,0-1.5-1.7-4.1-1.7
		c-2.5,0-4.1,1.6-4.1,3.2c0,2.1,1.7,3,4.1,3.5c1.7,0.3,2.5,0.8,2.5,1.8c0,0.9-1.3,1.4-2.4,1.4c-2.2,0-3.4-1.8-3.4-1.8L136.8,61.9z
		 M124.5,61.9c0,0,1.6,2.3,4.8,2.3c2.1,0,4.4-1.1,4.4-3.2c0-2.3-1.8-3-3.9-3.5c-1.8-0.4-2.7-0.8-2.7-1.7c0-0.7,0.7-1.4,2.1-1.4
		c1.7,0,2.8,1.2,2.8,1.2l1.3-1.4c0,0-1.5-1.7-4.1-1.7c-2.5,0-4.1,1.6-4.1,3.2c0,2.1,1.7,3,4.1,3.5c1.7,0.3,2.5,0.8,2.5,1.8
		c0,0.9-1.3,1.4-2.4,1.4c-2.2,0-3.4-1.8-3.4-1.8L124.5,61.9z M115.5,62.5c-1.2,0-2.5-0.6-2.5-2c0-1.2,1.1-2,2.8-2
		c1.8,0,2.9,0.8,2.9,0.8v1.6C118.7,60.8,117.5,62.5,115.5,62.5 M115.9,52.6c-2.4,0-4.2,1.1-4.2,1.1l0.8,1.7c0,0,1.6-0.9,3.3-0.9
		c0.9,0,2.8,0.3,2.8,2.6v0.6c0,0-1.3-0.9-3.3-0.9c-2.5,0-4.4,1.5-4.4,3.7c0,2.4,2.1,3.8,4.1,3.8c2.5,0,3.8-1.9,3.8-1.9V64h1.8v-7.3
		C120.7,54.6,119.1,52.6,115.9,52.6 M98.8,56.4c0,0,1.1-1.9,3.3-1.9s3.7,1.8,3.7,4c0,2.2-1.4,4-3.7,4c-2.2,0-3.3-1.9-3.3-1.9V56.4z
		 M102.4,52.6c-2.4,0-3.6,1.7-3.6,1.7v-8.4h-2V64h1.8v-1.6c0,0,1.1,1.9,3.7,1.9c3,0,5.4-2.6,5.4-5.8S105.4,52.6,102.4,52.6 M88,52.6
		c-2.4,0-3.3,2.1-3.3,2.1s-0.7-2.1-3.5-2.1c-2.3,0-3.1,1.9-3.1,1.9v-1.6h-1.9V64h2v-7.7c0,0,0.7-1.8,2.4-1.8c1.4,0,2.4,0.9,2.4,2.7
		V64h2v-7.7c0,0,0.7-1.8,2.4-1.8c1.4,0,2.4,0.9,2.4,2.7V64h2v-7.1C91.8,54.1,90.3,52.6,88,52.6 M64.2,49.1h7.7v-1.9h-9.7V64H72v-1.9
		h-7.8v-5.7h7.1v-1.9h-7.1V49.1z"/>
	<path d="M151.3,22.6c-2.4,0-3.4,1.8-3.4,1.8v-1.6H146V34h2v-7.6c0,0,1-1.9,2.8-1.9c1.5,0,2.7,0.8,2.7,2.7V34h2v-7.1
		C155.4,24.1,153.5,22.6,151.3,22.6 M136.3,32.5c-1.2,0-2.5-0.6-2.5-2c0-1.2,1.1-2,2.8-2c1.8,0,2.9,0.8,2.9,0.8v1.6
		C139.5,30.8,138.3,32.5,136.3,32.5 M136.7,22.6c-2.4,0-4.2,1.1-4.2,1.1l0.8,1.7c0,0,1.6-0.9,3.3-0.9c0.9,0,2.8,0.3,2.8,2.6v0.6
		c0,0-1.3-0.9-3.3-0.9c-2.5,0-4.4,1.5-4.4,3.7c0,2.4,2.1,3.8,4.1,3.8c2.5,0,3.8-1.9,3.8-1.9V34h1.8v-7.3
		C141.5,24.6,139.9,22.6,136.7,22.6 M125,19.3c0,0.7,0.6,1.4,1.4,1.4c0.7,0,1.4-0.6,1.4-1.4c0-0.7-0.6-1.4-1.4-1.4
		C125.6,18,125,18.6,125,19.3 M125.4,34h2V22.9h-2V34z M120.4,22.6c-2.1,0-3.1,2-3.1,2v-1.7h-1.9V34h2v-7.6c0,0,0.8-1.9,2.5-1.9
		c0.8,0,1.3,0.2,1.3,0.2l0.7-1.8C122,22.9,121.3,22.6,120.4,22.6 M104,24.7h2.2v6.1c0,2.4,1.8,3.5,3.3,3.5c0.6,0,1.3-0.1,2.3-0.7
		l-0.7-1.7c0,0-0.6,0.5-1.3,0.5c-1.1,0-1.6-0.6-1.6-1.7v-6h3.5v-1.8h-3.5v-3.4h-2v3.4H104V24.7z M91.9,31.9c0,0,1.6,2.3,4.8,2.3
		c2.1,0,4.4-1.1,4.4-3.2c0-2.3-1.8-3-3.9-3.5c-1.8-0.4-2.7-0.8-2.7-1.7c0-0.7,0.7-1.4,2.1-1.4c1.7,0,2.8,1.2,2.8,1.2l1.3-1.4
		c0,0-1.5-1.7-4.1-1.7c-2.5,0-4.1,1.6-4.1,3.2c0,2.1,1.7,3,4.1,3.5c1.7,0.3,2.5,0.8,2.5,1.8c0,0.9-1.3,1.4-2.4,1.4
		c-2.2,0-3.4-1.8-3.4-1.8L91.9,31.9z M82.8,34.3c2.4,0,3.4-2,3.4-2V34h1.9V22.9h-2v7.7c0,0-0.9,1.8-2.8,1.8c-1.5,0-2.7-0.8-2.7-2.7
		v-6.8h-2V30C78.6,32.8,80.6,34.3,82.8,34.3 M68,20.1l2.9,7.5h-5.8L68,20.1z M60.4,34h2.2l1.8-4.5h7.2l1.8,4.5h2.1l-6.6-16.8H67
		L60.4,34z"/>
</g>
<polygon class="st0" points="43.2,22.7 43.2,17 17,17 19.7,22.7 "/>
<polygon class="st0" points="24.9,34 43.2,34 43.2,28.3 22.3,28.3 "/>
</svg>
