<?xml version="1.0" encoding="UTF-8"?>
<svg id="Layer_1" data-name="Layer 1" xmlns="http://www.w3.org/2000/svg" viewBox="0 0 600.2 407.02">
  <defs>
    <style>
      .cls-1 {
        fill: #fff;
      }
    </style>
  </defs>
  <path class="cls-1" d="m.78,284.93c.05-.77.14-1.54.14-2.31-.03-6.76.7-13.45,1.8-20.11.82-4.96,1.04-10.03,2-14.95,1.51-7.71,3.34-15.37,5.18-23.02,2.71-11.27,6.39-22.24,10.62-33.02,6.03-15.34,13.23-30.12,21.66-44.31,5.44-9.16,11.34-18.02,17.67-26.57,4.48-6.04,9.39-11.79,14.43-17.38,6.1-6.77,12.49-13.29,18.85-19.83,7.42-7.63,15.77-14.19,24.13-20.75,8.16-6.4,16.75-12.14,25.49-17.67,11.23-7.1,23.04-13.12,35.13-18.63,10.18-4.63,20.64-8.54,31.27-11.92,8.89-2.84,17.87-5.49,27.13-7.07,5.81-.99,11.53-2.53,17.33-3.56,3.45-.61,6.99-.65,10.48-1.06,4.38-.51,8.74-1.28,13.14-1.65,3.85-.32,7.74-.25,11.61-.34,1.56.02,3.11.03,4.67.05,4.38,0,8.75-.01,13.13-.02,1.56-.02,3.11-.03,4.67-.05.62.05,1.23.14,1.85.13,7.39-.05,14.7.68,22,1.83,5.43.85,10.97,1.02,16.37,2,7.73,1.41,15.44,3.04,23.05,5.01,13.73,3.56,27.21,7.92,40.3,13.45,10.97,4.64,21.63,9.87,32.05,15.65,9.85,5.46,19.31,11.49,28.45,18.03,5.1,3.65,9.86,7.77,14.84,11.58,12.12,9.26,22.44,20.42,33,31.29,5.13,5.28,9.79,11.06,14.19,16.97,5.8,7.79,11.33,15.8,16.62,23.94,8.69,13.38,15.81,27.58,22.15,42.24,5.4,12.49,9.75,25.32,13.44,38.35,2.09,7.37,4.01,14.84,5.02,22.51.89,6.76,2.37,13.45,3.56,20.17.13.76.05,1.55.09,2.32.35,5.83.3,11.72,1.17,17.47.77,5.09.54,10.14.69,15.21.08,2.78.19,2.81-2.73,2.81-18.95-.02-37.89,0-56.84,0-3.57,0-7.14-.02-10.72,0-1.12,0-1.75-.35-1.66-1.59.06-.77,0-1.55,0-2.33.02-23.43.03-46.86.05-70.3,0-.78.06-1.56,0-2.33-.1-1.14.29-1.71,1.51-1.7,4.04.03,8.08.02,12.11,0,.92,0,1.44.33,1.42,1.31-.01,1.09,0,2.17,0,3.26,0,19.4,0,38.8,0,58.19,0,3.6-.38,3.36,3.11,3.36,12.11,0,24.23,0,36.34,0,2.43,0,2.63-.07,2.43-2.57-.5-6.25-.51-12.54-1.75-18.74-.54-2.69-.58-5.47-1.02-8.18-1.2-7.48-2.13-15.04-3.83-22.41-2.24-9.69-4.99-19.25-8.11-28.72-3.96-12.05-8.77-23.77-14.41-35.07-7.39-14.81-15.9-29.01-25.89-42.28-5.27-7-10.5-14.02-16.61-20.33-7-7.23-13.59-14.92-21.04-21.66-8.39-7.6-17.17-14.8-26.49-21.36-11.07-7.78-22.48-14.9-34.46-21.16-14.43-7.54-29.39-13.78-44.94-18.64-10.53-3.29-21.14-6.16-32.03-8.07-5.85-1.03-11.69-2-17.57-2.82-6.85-.96-13.73-1.24-20.57-1.96-8.06-.85-16.06-.67-24.09-.66-5.84,0-11.7.37-17.51.95-6.98.69-13.95,1.55-20.86,2.76-9.24,1.61-18.43,3.5-27.49,5.95-12.52,3.39-24.77,7.55-36.74,12.56-18.64,7.8-36.3,17.34-52.68,29.17-7.43,5.37-15.01,10.62-21.91,16.62-9.8,8.53-19.51,17.21-27.74,27.37-4.84,5.98-10.07,11.64-14.76,17.73-7.69,9.98-14.56,20.52-20.74,31.54-5.47,9.74-10.46,19.67-14.84,29.93-5.32,12.48-9.74,25.26-12.93,38.44-1.92,7.93-3.95,15.84-5.46,23.85-1.07,5.68-1.35,11.51-2,17.27-.55,4.86-1.27,9.7-1.67,14.57-.28,3.39-.14,6.82-.18,10.23-.02,1.4-.07,2.8.01,4.19.08,1.41-.47,1.86-1.87,1.85-4.03-.03-8.07.07-12.1.11-.32-.07-.64-.15-.96-.22,0-3.1,0-6.21,0-9.31,1.75-.55.66-1.9.82-2.89-.01-.91-.02-1.82-.04-2.73Z"/>
  <path class="cls-1" d="m306.66.81c-4.38,0-8.75.01-13.13.02.05-.27.06-.55.04-.83h13.05c-.01.27,0,.54.05.81Z"/>
  <path class="cls-1" d="m293.56,0c.02.28,0,.55-.04.83-1.56-.02-3.11-.03-4.67-.05.04-.26.06-.52.05-.78h4.66Z"/>
  <path class="cls-1" d="m306.66.81c-.04-.27-.06-.54-.05-.81h4.66c0,.26.01.51.05.76-1.56.02-3.11.03-4.67.05Z"/>
  <path class="cls-1" d="m.78,284.93c.01.91.02,1.82.04,2.73-.27.07-.54.1-.82.1v-2.79c.26,0,.52-.02.78-.03Z"/>
  <path class="cls-1" d="m0,287.76c.28,0,.55-.03.82-.1-.16,1,.93,2.35-.82,2.89v-2.79Z"/>
  <path class="cls-1" d="m0,299.87c.32.07.64.15.96.22-.32.24-.64.47-.96.71,0-.31,0-.62,0-.93Z"/>
  <path class="cls-1" d="m541.45,210.29c-4.81.04-9.62.12-14.43.12-45.96,0-91.92-.02-137.87-.04-4.24,0-4.25,0-4.25,4.09,0,27.46,0,54.92,0,82.38,0,1.24.08,2.49-.07,3.72-.05.42-.68,1.09-1.05,1.1-4.19.08-8.38.05-12.57.06-1.04,0-1.25-.64-1.23-1.51.03-1.09,0-2.17,0-3.26,0-27.46.01-54.92,0-82.38,0-4.86.62-4.2-4.14-4.2-59.78-.05-119.55-.03-179.33-.14-42.35-.08-84.7-.35-127.05-.53-.62,0-1.24-.03-1.86,0-1.13.07-1.76-.36-1.68-1.57.01-.15,0-.31,0-.47.15-3.05.31-6.09.46-9.14,2.77-.06,5.55-.18,8.32-.18,157.44,0,314.87,0,472.31.04,1.97,0,4.7-.43,5.7.64,1.03,1.1.56,3.79.42,5.76-.11,1.6.79,3.37-.6,4.82-.36.23-.72.47-1.08.7Z"/>
  <path class="cls-1" d="m284.24,367.46c0-12.1.02-24.2-.02-36.3,0-2.8.41-2.53,2.6-2.49,2.64.05,5.32.3,7.91-.07,2.81-.4,4.39,1.09,5.78,2.95,2.73,3.66,5.28,7.45,7.97,11.14,5.55,7.62,11.16,15.19,16.72,22.8,5.11,7,10.18,14.03,15.28,21.04,1.31,1.79,2.66,3.56,3.98,5.33,1.19-1.75,2.35-3.54,3.59-5.26,5.89-8.12,11.82-16.21,17.7-24.34,7.13-9.86,14.21-19.75,21.32-29.61.8-1.11,1.63-2.2,2.55-3.21.35-.38.97-.72,1.48-.73,3.57-.06,7.14.03,10.71-.05,1.56-.04,1.74.77,1.73,2-.03,3.72-.01,7.45-.01,11.17,0,20.17,0,40.33,0,60.5,0,1.09.14,2.2-.07,3.25-.1.52-.84,1.3-1.31,1.31-3.72.11-7.45.11-11.17,0-.48-.01-1.25-.75-1.35-1.27-.22-1.04-.07-2.16-.07-3.24,0-15.2,0-30.41,0-45.61,0-.78.03-1.55-.01-2.33-.03-.45-.18-.89-.28-1.33-.36.26-.81.46-1.06.8-3,4.18-5.96,8.4-8.96,12.58-5.49,7.64-10.97,15.29-16.52,22.89-3.95,5.42-8.08,10.71-11.94,16.2-.75,1.07-1.37,1.4-2.52,1.38-2.79-.04-5.6-.14-8.38.03-1.8.11-2.96-.64-3.9-1.96-6.73-9.38-13.41-18.79-20.17-28.16-5.25-7.28-10.57-14.5-15.89-21.73-.35-.47-.95-.76-1.43-1.14-.09.6-.27,1.2-.27,1.8-.02,15.05-.01,30.1-.01,45.14,0,1.09-.02,2.17,0,3.26.06,2.92-.02,2.82-2.8,2.73-3.67-.12-7.33-.31-11-.46-.06-3.55-.16-7.1-.17-10.64-.02-9.46,0-18.93,0-28.39Z"/>
  <path class="cls-1" d="m95.39,406.96c-12.11,0-24.21,0-36.32,0-3.14,0-3.16.39-3.16-2.85.01-24.19.01-48.39,0-72.58,0-3.38.15-2.93,3.11-2.92,25.45.04,50.9-.07,76.35.23,6.24.07,12.27,1.9,16.68,7,2.77,3.2,4.46,6.89,4.49,11.1.1,13.8.1,27.6.01,41.41-.05,8.09-5.56,14.78-13.62,16.73-4.9,1.19-9.84,1.99-14.95,1.92-10.86-.13-21.73-.04-32.59-.04Zm6.55-12.11c4.96,0,9.93,0,14.89,0,4.81,0,9.62.1,14.42-.02,7.44-.2,10.41-3.35,10.41-10.8,0-6.04,0-12.09,0-18.13,0-5.27.05-10.54-.01-15.81-.05-4.59-2.4-8.14-6.23-9.05-2.5-.59-5.11-.96-7.67-.97-17.99-.09-35.98-.07-53.97-.06-2.8,0-2.87.06-2.87,2.75-.03,16.58-.03,33.16-.02,49.74,0,2.29.05,2.34,2.67,2.34,9.46.02,18.92,0,28.38,0Z"/>
  <path class="cls-1" d="m96.73,223.5c12.42,0,24.84-.08,37.26.04,5.08.05,9.76,1.59,14.28,4.09,4.17,2.31,5.89,6.09,7.21,10.07.9,2.69,1.01,5.73,1.04,8.62.11,11.17.11,22.34.01,33.51-.03,3.96-.75,7.8-2.69,11.41-1.98,3.68-4.93,6.14-8.68,7.64-4.7,1.89-9.7,2.77-14.72,2.79-23.6.11-47.19.05-70.79.05-.78,0-1.6.16-2.31-.06-.55-.17-1.23-.76-1.37-1.28-.23-.87-.07-1.85-.07-2.78,0-23.42,0-46.85,0-70.27,0-.78.05-1.55,0-2.33-.09-1.29.62-1.56,1.71-1.52,1.09.04,2.17,0,3.26,0,11.95,0,23.91,0,35.86,0Zm5.36,66.12c9.47,0,18.94.02,28.42,0,6.91-.02,9.72-2.28,11.01-8.85.21-1.05.11-2.16.11-3.24,0-9.46.02-18.93,0-28.39,0-2.45-.04-4.83-.79-7.28-1.18-3.85-3.34-6.01-7.25-6.25-3.99-.25-7.97-.72-11.96-.74-16.15-.09-32.3-.02-48.45-.11-1.88,0-2.38.6-2.37,2.37.05,16.76.06,33.51-.02,50.27,0,1.98.73,2.27,2.43,2.25,9.63-.06,19.25-.03,28.88-.03Z"/>
  <path class="cls-1" d="m220.26,328.68c9.47,0,18.93.09,28.4-.04,3.88-.05,7.53.8,11.12,1.99,6.09,2.01,10.46,8.06,10.47,14.46.03,14.73-.21,29.47.11,44.19.16,7.37-4.72,13.59-11.48,15.75-3.76,1.2-7.64,1.99-11.68,1.97-18.31-.09-36.63.05-54.94-.09-5.49-.04-10.74-1.35-15.54-4.36-4.71-2.95-6.92-7.37-7.01-12.5-.27-14.88-.28-29.78,0-44.66.11-5.96,3.07-10.79,8.56-13.65,3.66-1.9,7.51-3.08,11.74-3.04,10.09.1,20.17.03,30.26.03,0-.02,0-.04,0-.05Zm-.21,66.17c8.53,0,17.06,0,25.58,0,1.09,0,2.18.08,3.25-.04,3.65-.42,6.44-3.17,6.44-6.5.04-13.79.05-27.58,0-41.37-.02-3.66-1.86-5.69-5.42-6.07-3.51-.37-7.05-.68-10.57-.7-13.8-.09-27.6-.08-41.4-.03-2.12,0-4.25.34-6.35.71-5.13.9-6.89,2.81-6.92,7.92-.08,12.7-.08,25.41-.01,38.12.02,4.38,2.03,6.85,6.12,7.82,1.18.28,2.46.14,3.7.14,8.53,0,17.06,0,25.58,0Z"/>
  <path class="cls-1" d="m496.72,340.66c-10.09.04-20.17.11-30.26.13-10.56.02-21.11.03-31.67-.05-1.73-.01-2.47.28-2.41,2.24.14,4.96.07,9.93.03,14.89,0,1.19.44,1.67,1.62,1.61,1.08-.06,2.17-.01,3.26-.01,17.54,0,35.09,0,52.63,0,1.09,0,2.17.03,3.26,0,1.1-.04,1.82.25,1.69,1.53-.02.15,0,.31,0,.47-.08,3.23-.15,6.46-.23,9.69-3.21.14-6.41.4-9.62.41-16.61.04-33.22.01-49.83.03-2.7,0-2.74.05-2.75,2.77-.02,6.21.02,12.41-.03,18.62,0,1.33.32,1.99,1.8,1.92,2.01-.1,4.04-.02,6.05-.02,17.7,0,35.4,0,53.09,0,.93,0,1.87.04,2.79,0,1.17-.07,1.68.43,1.67,1.61-.03,2.95-.03,5.89-.01,8.84,0,1.12-.38,1.74-1.6,1.67-.77-.04-1.55,0-2.33,0-24.22,0-48.44,0-72.65,0-4.2,0-3.71.51-3.71-3.68-.01-23.58,0-47.16,0-70.74,0-.78.04-1.55,0-2.33-.08-1.27.61-1.58,1.71-1.52.77.04,1.55,0,2.33,0,24.06,0,48.13,0,72.19.01.62,0,1.25.08,1.86-.01,1.97-.31,2.37.69,2.28,2.4-.16,2.93-.18,5.87-.26,8.81-.3.25-.6.5-.89.75Z"/>
  <path class="cls-1" d="m253.54,223.5c11.03,0,22.05.04,33.08-.04,1.87-.01,2.43.55,2.32,2.36-.14,2.47-.07,4.96-.03,7.45.02,1.2-.54,1.64-1.67,1.61-1.09-.03-2.17,0-3.26,0-17.39,0-34.78-.05-52.18.02-3.84.02-7.69.34-11.51.75-3.83.42-5.89,2.89-5.9,6.78-.03,12.88.22,25.77-.13,38.64-.15,5.65,2.11,7.69,8.32,8.55.61.08,1.24.01,1.86.01,13.67,0,27.33.06,41-.06,2.24-.02,4.52-.61,6.7-1.23,1.95-.55,2.86-1.92,2.83-4.17-.13-7.6-.06-15.21-.04-22.81,0-2.43.05-2.47,2.58-2.49,3.57-.03,7.14.02,10.71-.02,1.18-.01,1.63.42,1.63,1.62-.03,9.16.24,18.32-.12,27.46-.19,4.83-3.76,7.89-7.81,10.06-3.08,1.65-6.42,2.46-9.97,2.88-16.08,1.87-32.19.63-48.28.71-5.97.03-11.99-1.18-17.39-4.52-4.85-3-6.63-7.5-6.77-12.67-.26-9.46-.07-18.93-.07-28.4,0-4.81.02-9.62,0-14.43-.04-8.02,3.87-13.32,10.85-15.73,4.08-1.41,8.17-2.37,12.51-2.35,10.25.05,20.5.02,30.75.02Z"/>
  <path class="cls-1" d="m512.67,301.73c-1.86,0-3.75-.2-5.58.05-2.24.31-3.49-.78-4.54-2.45-5.99-9.48-11.94-18.99-17.98-28.44-6.44-10.08-12.97-20.11-19.46-30.16-.99-1.53-1.02-1.55-2.1.1-4.97,7.61-9.91,15.24-14.88,22.86-7.78,11.93-15.56,23.86-23.35,35.78-.97,1.48-2.12,2.41-4.16,2.31-4.18-.19-8.38-.05-12.57-.07-.45,0-.9-.15-1.35-.24.18-.37.31-.77.53-1.1,11.13-16.73,22.27-33.45,33.42-50.16,5.29-7.93,10.76-15.76,15.86-23.81,1.48-2.33,3.09-2.78,5.59-2.99,5.21-.43,9.45.35,11.25,6.01,10.7,16.22,21.39,32.44,32.12,48.64,4.62,6.97,9.33,13.87,13.99,20.81.33.49.47,1.12.82,1.59.69.92.46,1.27-.64,1.27-2.33-.01-4.66,0-6.98,0Z"/>
  <path class="cls-1" d="m318.74,262.84c0,12.09.01,24.18,0,36.28,0,2.55-.05,2.59-2.45,2.61-3.57.03-7.14-.05-10.7.04-1.5.04-1.87-.62-1.78-1.93.06-.93.01-1.86.01-2.79,0-22.94,0-45.89,0-68.83,0-1.09.02-2.17,0-3.26-.02-.91.3-1.44,1.29-1.44,4.19.01,8.38-.02,12.56.06.36,0,.95.7,1.02,1.14.15,1.06.06,2.16.06,3.25,0,11.63,0,23.25,0,34.88h0Z"/>
  <path class="cls-1" d="m185.46,262.84c0,12.09,0,24.18,0,36.27,0,2.56-.05,2.6-2.43,2.62-3.57.03-7.14-.05-10.7.04-1.5.04-1.87-.62-1.78-1.93.06-.93.01-1.86.01-2.79,0-22.94,0-45.88,0-68.82,0-1.08.02-2.17,0-3.25-.02-.9.27-1.46,1.28-1.45,4.19.01,8.38-.02,12.56.06.36,0,.95.7,1.01,1.14.15,1.06.06,2.16.06,3.25,0,11.62,0,23.25,0,34.87Z"/>
  <path class="cls-1" d="m245.17,167.63c2.01,0,4.03-.02,6.04,0,3.05.03,4.9,1.3,5.85,4.08.12.35.03.97-.22,1.2-.28.26-.83.26-1.27.29-.29.02-.74,0-.87-.18-1.76-2.44-4.34-1.81-6.74-1.83-2.94-.02-5.89-.08-8.83,0-2.57.07-3.12.69-3.2,3.37-.05,1.7-.07,3.41,0,5.11.09,2.23.59,2.84,2.65,2.88,4.49.07,8.99.02,13.48.02,1.57,0,1.57-1.06,1.59-2.22.02-1.23-.57-1.59-1.69-1.56-1.86.04-3.74.16-5.57-.06-.73-.09-1.65-.85-1.98-1.54-.35-.75-.28-2,1.06-2.03,3.56-.08,7.12-.07,10.69-.03.34,0,.99.47.98.7-.09,2.28-.01,4.61-.52,6.8-.58,2.51-2.6,3.61-5.16,3.62-4.18,0-8.37.08-12.55-.02-3.86-.09-5.87-2.19-5.92-5.99-.03-2.17-.02-4.34,0-6.5.04-4.21,1.9-6.07,6.14-6.11,2.01-.02,4.03,0,6.04,0Z"/>
  <path class="cls-1" d="m399.99,167.63c3.1,0,6.2.02,9.3-.01,1.08-.01,1.78.21,1.71,1.51-.06,1.16-.1,2.18-1.67,2.17-5.27-.02-10.54.06-15.81-.06-1.6-.03-2.2.33-2.15,2,.05,1.39.48,1.87,1.88,1.85,4.34-.07,8.68,0,13.02-.04,1.29-.02,2.07.24,2,1.74-.06,1.18-.12,2.07-1.72,2.03-3.56-.09-7.13-.03-10.69-.03-1.08,0-2.17,0-3.25.02-1.45.03-1.17,1.13-1.17,2,0,.9-.11,1.88,1.32,1.86,3.25-.03,6.51-.07,9.76.03,2.44.08,4.88.28,7.3.62.45.06.98.95,1.12,1.54.22.9-.34,1.37-1.3,1.37-6.51,0-13.02-.02-19.53.02-1.29,0-1.52-.65-1.52-1.72.02-5.11.03-10.22,0-15.33,0-1.2.46-1.62,1.64-1.6,3.25.04,6.51.02,9.76.02Z"/>
  <path class="cls-1" d="m159.3,172.95c-.45.01-1.23.18-1.31.02-1.38-2.91-4-2.31-6.39-2.33-2.8-.02-5.59-.02-8.39-.01-1.68,0-2.53.76-2.52,2.53,0,1.29.25,1.98,1.78,1.95,4.04-.09,8.08-.07,12.11-.02,3.6.05,5.72,2.22,5.71,5.67-.02,3.21-2.12,5.4-5.46,5.47-4.04.08-8.08.06-12.11,0-2.08-.03-3.92-.71-4.78-2.82-.3-.74-.34-1.58-.5-2.38,1.02,0,2.84-.23,2.92.04.58,2.02,2.12,1.43,3.38,1.45,3.26.05,6.52.02,9.78.02.78,0,1.59.14,2.32-.05,1.22-.31,1.83-1.3,1.45-2.48-.17-.52-1.02-1.14-1.59-1.16-2.63-.13-5.28-.06-7.92-.07-1.71,0-3.42.08-5.12-.02-2.87-.17-5.13-1.89-5.61-4.45-.47-2.5.7-4.51,2.61-6.03.54-.43,1.39-.63,2.1-.64,4.66-.05,9.32-.13,13.97,0,2.92.09,3.65,1.02,4.42,4.58-.28.23-.57.47-.85.7Z"/>
  <path class="cls-1" d="m425.75,167.63c2.63,0,5.26-.05,7.89.01,3.6.09,5.37,1.72,5.37,5.26,0,2.05.62,4.29-1.45,6.03-.54.45-.39,1.96-.22,2.93.12.7.85,1.27,1.22,1.94.45.81.88,1.91-.2,2.32-.66.25-1.66-.33-2.48-.62-.25-.09-.54-.43-.58-.69-.72-4.3-3.82-4.44-7.21-4.21-1.54.11-3.09,0-4.64.02-1.22.02-2.8-.31-3.54.31-.67.57-.54,2.22-.56,3.4-.03,1.36-.56,1.91-1.93,1.96-1.46.05-1.81-.57-1.8-1.91.06-4.94.05-9.89,0-14.84-.01-1.29.26-1.99,1.77-1.93,2.78.1,5.57.03,8.35.03Zm1.17,9.31c1.86,0,3.72.03,5.58,0,3.39-.06,3.7-.46,3.68-3.72,0-1.36-.4-1.93-1.83-1.92-4.49.05-8.99.03-13.48-.01-1.25-.01-1.61.58-1.55,1.69.03.62.07,1.25,0,1.86-.2,1.57.32,2.27,2.03,2.14,1.85-.14,3.72-.03,5.58-.03Z"/>
  <path class="cls-1" d="m299.62,167.63c2.47,0,4.95-.06,7.42.01,3.88.12,5.15,1.41,5.21,5.24.04,2.78.08,5.56-.02,8.34-.12,3.28-1.77,4.94-5.14,5.01-4.79.1-9.59.18-14.37-.02-4.14-.17-5.35-2.62-5.63-5.78-.21-2.3-.11-4.63-.02-6.94.14-3.77,2.27-5.79,6.07-5.85,2.16-.03,4.33,0,6.49,0Zm0,14.97c0-.06,0-.12,0-.18h9.25c.18-3.03.36-6.05.53-9.08,0-.15-.01-.31,0-.46.14-1.26-.6-1.58-1.67-1.59-5.11-.03-10.22-.08-15.33-.1-1.06,0-1.7.46-1.66,1.68.11,3.07.15,6.14.22,9.22,2.88.17,5.76.34,8.65.52Z"/>
  <path class="cls-1" d="m63.04,167.56c.33.34,1.05.8,1.4,1.45,2.17,4.02,4.27,8.09,6.39,12.14.19.37.34.76.52,1.14.15-.43.27-.86.46-1.28,1.7-3.86,3.39-7.73,5.15-11.57.4-.87.57-1.95,2.12-1.88,1.46.07,2.32.6,2.86,1.84,1.59,3.72,3.26,7.4,4.69,11.18.56,1.47,1.05.68,1.35.14,1.78-3.29,3.49-6.61,5.19-9.94.41-.8.62-1.69,1.07-2.46.42-.74,2.87-1.06,3.23-.38.24.45-.05,1.34-.35,1.91-2.46,4.81-5.04,9.57-7.44,14.41-.62,1.25-1.17,2.11-2.69,2.01-1.53-.1-1.85-1.19-2.35-2.39-1.4-3.33-2.97-6.58-4.51-9.84-.15-.33-.6-.74-.88-.72-.32.03-.73.44-.89.78-1.59,3.57-3.14,7.17-4.7,10.75-.72,1.65-2.67,2.04-3.94.72-.39-.41-.55-1.04-.82-1.58-2.48-4.96-4.82-10-7.49-14.86-1.17-2.12.31-1.37,1.66-1.56Z"/>
  <path class="cls-1" d="m356.94,176.82c0-2.48-.03-4.97.02-7.45.01-.56.24-1.53.52-1.59.68-.15,1.66-.11,2.15.29,1.31,1.08,2.51,2.32,3.6,3.63,2.06,2.46,3.97,5.05,6.04,7.51.66.79,1.11.28,1.7-.47,2.28-2.9,4.7-5.69,7.13-8.48.81-.93,1.72-1.8,2.72-2.51.91-.65,2.18.11,2.19,1.28.04,5.28,0,10.55.02,15.83,0,.93-.37,1.36-1.34,1.41-1.34.07-1.48-.71-1.47-1.75.02-3.26.02-6.52,0-9.78,0-.44-.19-.88-.29-1.32-.24.31-.48.62-.73.92-2.29,2.7-4.56,5.41-6.87,8.1-1.33,1.55-3.4,1.47-4.75-.1-1.81-2.1-3.64-4.17-5.45-6.27-.73-.84-1.44-1.7-2.17-2.55-.08,1.22-.2,2.45-.22,3.67-.03,2.48-.05,4.97,0,7.45.03,1.18-.38,1.69-1.6,1.62-1.04-.06-1.23-.65-1.22-1.52.02-2.64,0-5.28,0-7.91Z"/>
  <path class="cls-1" d="m464.12,167.63c2.17,0,4.35.06,6.52-.02,2.28-.08,3.86.83,4.67,2.96.29.76.4,1.58.59,2.38-1.03-.02-2.82.25-2.95-.11-.79-2.1-2.44-1.48-3.84-1.5-3.72-.05-7.45-.07-11.17,0-2.56.05-2.99.48-3.08,2.92-.07,1.86-.08,3.72,0,5.58.09,2.12.67,2.83,2.77,2.88,4.34.11,8.69.07,13.03-.01.62-.01,1.58-.5,1.79-1.01.6-1.49,1.77-.99,2.74-.94.36.02,1.03.8.97,1.11-.47,2.35-2.66,4.3-5.2,4.36-4.81.12-9.62.13-14.43,0-2.35-.06-4.45-2.5-4.5-4.94-.06-2.79-.06-5.58,0-8.37.06-2.94,2.21-5.17,5.13-5.26,2.32-.08,4.65-.02,6.98-.02Z"/>
  <path class="cls-1" d="m534,177.17c0,2.48-.08,4.96.03,7.43.07,1.65-.92,1.82-2.03,1.6-.85-.17-1.73-.61-2.42-1.16-4.79-3.78-9.53-7.63-14.32-11.43-.32-.26-.9-.47-1.24-.35-.27.1-.5.72-.51,1.11-.04,3.25,0,6.5-.05,9.75-.03,1.92-.72,2.48-2.54,2.07-.44-.1-1.08-.69-1.09-1.07-.07-5.42-.05-10.83-.06-16.25,0-1.03.6-1.38,1.47-1.23.86.15,1.86.27,2.51.78,4.81,3.76,9.54,7.61,14.32,11.41.57.46,1.34.67,1.93,1.11,1.09.82,1.19.18,1.19-.72,0-3.25-.07-6.5.04-9.75.03-1.02-.86-2.74,1.23-2.82,2.52-.11,1.4,1.91,1.49,3.02.17,2.15.05,4.33.05,6.5Z"/>
  <path class="cls-1" d="m207.37,173.19c-.1,3.8-.21,7.61-.28,11.41-.02,1.12-.41,1.67-1.62,1.67-1.36,0-1.39-.83-1.39-1.82.01-4.78-.03-9.56.04-14.35.01-.81.3-2.22.71-2.31.94-.22,2.2-.08,3.01.42,1.67,1.04,3.14,2.4,4.68,3.65,3.54,2.89,7.06,5.8,10.62,8.66.31.25.89.16,1.34.22.27.21.53.42.8.62,0-.26.01-.52.02-.78.04-3.72.08-7.44.1-11.16,0-1.01.12-1.79,1.44-1.83,1.33-.04,1.49.68,1.49,1.74-.02,5.12-.06,10.24.02,15.36.03,1.75-1.14,1.8-2.12,1.48-1.11-.35-2.13-1.14-3.08-1.87-4.84-3.71-9.65-7.47-14.49-11.2-.24-.18-.57-.23-.86-.35-.29-.05-.57-.11-.86-.16.14.19.28.39.42.58Z"/>
  <path class="cls-1" d="m200.28,185.63c-.21.2-.39.53-.62.57-1.59.23-3.13.2-3.8-1.65-.64-1.77-1.94-2.1-3.65-2.05-3.24.09-6.5.2-9.73-.03-2.45-.18-4.4.46-5.29,2.67-.64,1.58-1.67,1.07-2.6,1.07-1.28,0-1.58-.67-.83-1.76,3.57-5.19,7.14-10.39,10.76-15.55,1.22-1.75,3.42-1.85,4.61-.16,3.72,5.31,7.35,10.68,10.99,16.04.15.22.12.57.17.86Zm-13.33-5.77c1.5-.28,3.21-.59,4.91-.91-.84-1.39-1.68-2.78-2.51-4.17-.39-.65-.72-1.32-1.14-1.95-1.03-1.56-1.67-1.55-2.85.09-.44.61-.77,1.3-1.14,1.96-.8,1.41-1.6,2.82-2.39,4.24,1.61.23,3.22.47,5.12.74Z"/>
  <path class="cls-1" d="m351.98,186.19c-2.21.19-3.04-.57-3.51-1.88-.56-1.59-1.77-1.86-3.32-1.81-3.26.1-6.53.21-9.78-.03-2.45-.19-4.45.41-5.39,2.6-.65,1.52-1.63,1.15-2.61,1.15-1.28,0-1.57-.63-.81-1.77,3.41-5.07,6.81-10.15,10.29-15.17,1.6-2.31,3.28-2.44,5.06-.27,1.43,1.74,2.55,3.73,3.81,5.6,2.18,3.24,4.38,6.48,6.55,9.73.32.49.5,1.08.74,1.62-.59.13-1.18.26-1.04.23Zm-16.48-6.64c2.79.01,5.58.02,8.37.03.31-.17.62-.33.94-.5-.3-.42-.6-.84-.89-1.27-1.19-1.92-2.4-3.82-3.58-5.75-.46-.76-.92-.64-1.34-.02-1.49,2.24-2.96,4.5-4.43,6.75-.21.18-.42.35-.62.53.52.07,1.04.14,1.56.22Z"/>
  <path class="cls-1" d="m505.98,185.47c-.16.23-.34.66-.49.65-1.23-.06-2.65.86-3.42-1.16-.81-2.13-2.72-2.59-4.94-2.47-3.08.16-6.18.07-9.27.03-1.88-.02-3.69-.19-4.35,2.31-.16.62-1.35,1.15-2.16,1.37-.66.18-1.46-.17-2.19-.28.25-.55.43-1.16.77-1.65,2.78-4.15,5.59-8.28,8.38-12.41.59-.88,1.14-1.78,1.74-2.66.74-1.08,1.67-1.58,3.09-1.62,1.52-.04,1.6,1.07,2.15,1.88,3.48,5.06,6.97,10.12,10.44,15.19.16.23.17.56.26.84Zm-13.14-5.53c1.39-.24,3.11-.54,4.83-.83-.83-1.4-1.62-2.83-2.51-4.19-.74-1.13-1.6-2.19-2.4-3.28-.9,1.04-1.91,2.01-2.67,3.14-.96,1.44-1.72,3.03-2.56,4.55,1.64.19,3.29.38,5.31.61Z"/>
  <path class="cls-1" d="m282.3,183.47c.26,1.4.7,2.82-1.64,2.8-5.74-.05-11.48-.04-17.21,0-1.24,0-1.59-.52-1.58-1.66.03-5.11.03-10.23,0-15.34,0-1.14.34-1.73,1.57-1.65,1.07.07,2.21-.17,2.19,1.55-.06,3.87.03,7.75-.04,11.62-.03,1.44.55,1.82,1.91,1.82,4.65-.02,9.3.07,13.95.11.29.25.58.5.86.75Z"/>
  <path class="cls-1" d="m121.44,167.63c3.4,0,6.8.03,10.2-.01,1.14-.01,1.69.33,1.64,1.57-.05,1.27-.74,1.47-1.79,1.45-1.85-.04-3.71-.02-5.56,0-2.85.02-2.88.03-2.9,3.05-.03,3.55-.05,7.1.01,10.65.02,1.31-.31,2-1.78,1.95-1.36-.04-1.95-.59-1.93-1.95.03-3.71.05-7.41,0-11.12-.03-2.53-.08-2.55-2.51-2.59-2.16-.04-4.33.06-6.48-.11-.46-.04-1.06-.87-1.23-1.45-.25-.85.22-1.43,1.22-1.43,3.71,0,7.42,0,11.13,0h0Z"/>
  <path class="cls-1" d="m443.61,176.47c0-2.47.04-4.94-.02-7.41-.03-1.33.74-1.47,1.76-1.44.99.02,1.88.16,1.89,1.44,0,5.25.01,10.49,0,15.74,0,1.25-.88,1.43-1.89,1.45-1.03.03-1.78-.13-1.76-1.45.05-2.78.02-5.56.02-8.33Z"/>
  <path class="cls-1" d="m101.58,177.03c0-2.64.04-5.28-.02-7.91-.03-1.31.67-1.54,1.73-1.5.97.04,1.91.06,1.91,1.39,0,5.12.05,10.24-.05,15.36-.01.6-.7,1.34-1.28,1.74-.93.63-2.26-.07-2.28-1.17-.05-2.64-.02-5.27-.02-7.91Z"/>
  <path class="cls-1" d="m225.3,180.59c0,.26-.01.52-.02.78-.27-.21-.53-.42-.8-.62.27-.09.54-.14.82-.15Z"/>
  <path class="cls-1" d="m282.3,183.47c-.29-.25-.58-.5-.86-.75.29.25.58.5.86.75Z"/>
  <path class="cls-1" d="m541.45,210.29c.36-.23.72-.47,1.08-.7-.36.23-.72.47-1.08.7Z"/>
  <path class="cls-1" d="m159.3,172.95c.28-.23.57-.47.85-.7-.28.23-.57.47-.85.7Z"/>
  <path class="cls-1" d="m496.72,340.66c.3-.25.6-.5.89-.75-.3.25-.6.5-.89.75Z"/>
</svg>