<?xml version="1.0" encoding="utf-8"?>
<!-- Generator: Adobe Illustrator 27.3.1, SVG Export Plug-In . SVG Version: 6.00 Build 0)  -->
<svg version="1.1" id="Layer_1" xmlns="http://www.w3.org/2000/svg" xmlns:xlink="http://www.w3.org/1999/xlink" x="0px" y="0px"
	 viewBox="0 0 990.7 69" style="enable-background:new 0 0 990.7 69;" xml:space="preserve">
<g>
	<path d="M282.2,48.5c0.3-0.1,0.5-0.1,0.8-0.1c0.1-1,0.3-1.9,0.4-2.8c0.9-5.6,2.4-11,3.8-16.4c1.8-7.2,3.7-14.4,5.5-21.6
		c0.2-0.8,0.4-1.6,0.6-2.4c0.4-1.1,1.1-2,2.1-2.7c0.7-0.5,1.4-0.7,2.2-0.7c5.6,0,11.2,0,16.9,0c1.8,0,3.2,1,3.8,2.7
		c0.3,0.9,0.5,1.8,0.5,2.7c0.1,2.9,0.2,5.9,0.3,8.8c0.1,2,0.1,4,0.2,6.1c0.2,4,0.4,8.1,0.5,12.1c0.1,3.5,0.3,7.1,0.4,10.6
		c0.2,4.4,0.4,8.7,0.6,13.1c0.1,2.9,0.3,5.9,0.4,8.8c0,0.2,0,0.5,0,0.7c-0.9,0.2-12.8,0.3-14.2,0c0-1.1-0.1-2.3-0.1-3.4
		c-0.1-2.5-0.3-5.1-0.4-7.6c0-0.6-0.1-1.1-0.1-1.7c-0.1-3.3-0.2-6.6-0.3-9.9c-0.1-2.2-0.2-4.4-0.2-6.5c-0.2-5.9-0.5-11.9-0.7-17.8
		c-0.1-1.9,0-3.8,0-5.7c0-0.5-0.1-0.9-0.1-1.5c-0.4,0-0.8,0-1.1-0.1c-0.1,0.2-0.2,0.4-0.3,0.6c-0.6,2.3-1.2,4.7-1.8,7
		c-1.2,4.6-2.4,9.2-3.6,13.8c-1.7,6.5-3.3,13-5,19.6c-0.1,0.6-0.3,1.2-0.6,1.7c-0.9,1.8-2.4,2.7-4.3,2.9c-0.5,0-1,0-1.4,0
		c-2.9,0-5.8,0-8.7,0c-0.9,0-1.8-0.1-2.7-0.3c-1.9-0.6-3.2-1.9-3.7-3.8c-0.6-2.4-1.3-4.7-1.9-7.1c-1-3.9-2-7.9-3-11.8
		c-1.5-5.9-3.1-11.7-4.6-17.6c-0.4-1.6-0.8-3.1-1.2-4.8c-0.4,0-0.7-0.1-1-0.1c-0.1,0.2-0.1,0.3-0.1,0.4c0,0.1,0,0.2,0,0.2
		c-0.1,3.8-0.2,7.5-0.3,11.3c-0.1,4.4-0.3,8.9-0.5,13.3c-0.2,4.2-0.3,8.5-0.5,12.7c-0.2,4.3-0.3,8.6-0.5,12.8c0,1.1-0.2,2.2-0.3,3.4
		c0,0,0,0,0,0c0,0-0.1,0.1-0.1,0.1c-0.2,0-0.5,0-0.7,0c-4.3,0-8.6,0-12.9,0c-0.1,0-0.1-0.1-0.3-0.2c0-0.5,0-1,0-1.6
		c0.1-4,0.2-8,0.4-12c0.1-1.9,0.2-3.9,0.4-5.8c0-0.2,0-0.5,0-0.7c0.1-3.3,0.2-6.5,0.3-9.8c0.1-3.8,0.3-7.5,0.4-11.3
		c0.2-4.1,0.4-8.2,0.5-12.2c0.1-2.2,0.1-4.4,0.2-6.5c0-1.1,0.2-2.1,0.7-3.1c0.8-1.6,2.1-2.5,3.9-2.5c5.5,0,10.9,0,16.4,0
		c2.1,0,3.4,1.2,4.2,3c0.4,0.8,0.6,1.7,0.8,2.6c1.9,7.4,3.8,14.9,5.7,22.3c1,3.9,2,7.8,2.9,11.7c0.4,1.7,0.6,3.4,0.9,5.1
		C281.9,47.1,282.1,47.7,282.2,48.5z"/>
	<path d="M0,67.3C0,45.5,0,23.7,0,1.9c1-0.6,2.1-0.5,3.1-0.6c2.1-0.2,4.3-0.2,6.4-0.3C17,0.5,24.5,0.7,32,0.8
		c4.1,0.1,8.1,1.1,11.8,3.1c3.8,2.1,6.4,5.2,8,9.2c1.5,3.7,2.3,7.6,2.7,11.5c0.5,4.8,0.5,9.7,0.4,14.5c-0.1,2-0.3,4-0.5,5.9
		c-0.2,2.2-0.6,4.4-1.1,6.5c-1,3.6-2.3,7-4.8,9.9c-2.6,2.9-5.8,4.8-9.6,5.8c-3,0.8-6.1,1.2-9.2,1.2c-6,0-12,0-17.9-0.1
		c-3,0-6-0.3-9.1-0.5C1.8,67.8,0.9,67.8,0,67.3z M15.2,56.9c0.6,0,0.9,0,1.3,0c3.2,0,6.5,0,9.7,0c1.9,0,3.6-0.3,5.4-0.9
		c1.8-0.7,3.3-1.7,4.3-3.4c0.7-1.2,1.3-2.6,1.6-3.9c0.6-2.6,1.1-5.2,1.1-7.9c0.2-5.5,0.3-11-0.4-16.5c-0.3-2-0.7-4-1.4-5.9
		c-1.4-3.8-4.5-6-9.2-6.2c-3.8-0.1-7.6,0-11.5,0c-0.3,0-0.6,0-1.1,0.1C15.1,27.1,15,42,15.2,56.9z"/>
	<path d="M867.3,34.6c-0.1,3-0.1,6-0.4,9c-0.3,4.2-1,8.2-2.6,12.2c-1.4,3.6-3.5,6.6-6.6,8.8c-2.3,1.7-5,2.7-7.8,3.2
		c-2.4,0.5-4.9,0.8-7.3,1c-2.1,0.2-4.1,0.2-6.2,0.2c-1.6,0-3.2-0.3-4.9-0.4c-2.5-0.2-5-0.7-7.3-1.5c-5.3-1.8-9-5.2-11.3-10.3
		c-1.5-3.4-2.2-6.9-2.7-10.5c-0.7-5.4-0.7-10.8-0.6-16.2c0-1.9,0.3-3.9,0.5-5.8c0.2-2.6,0.7-5.3,1.4-7.8c0.6-2.3,1.5-4.6,2.8-6.7
		c2.2-3.7,5.5-6.2,9.6-7.7c2.4-0.9,5-1.3,7.6-1.6c3-0.4,6.1-0.7,9.2-0.5c2,0.1,4,0.5,6,0.6c2.4,0.2,4.8,0.8,7,1.7
		c3.8,1.4,6.7,3.9,8.9,7.3c1.8,2.9,2.8,6,3.5,9.3C867.1,24.1,867.3,29.4,867.3,34.6z M825.7,35c0.2,2.9,0.3,6.3,0.6,9.6
		c0.2,2.3,0.8,4.6,1.7,6.8c1.1,2.5,2.9,4.1,5.5,4.9c1.7,0.5,3.3,0.7,5.1,0.6c1.2,0,2.3,0.1,3.4-0.3c1.9-0.5,3.6-1.1,5-2.6
		c1.1-1.2,1.9-2.7,2.4-4.2c0.6-1.7,1-3.5,1.1-5.3c0.2-2.6,0.5-5.1,0.6-7.7c0.2-3.9-0.2-7.8-0.5-11.6c-0.2-2.2-0.6-4.4-1.4-6.5
		c-0.9-2.5-2.4-4.6-5-5.6c-1.5-0.6-3.1-1.1-4.7-1c-0.9,0-1.8,0-2.6,0c-3.6,0.1-7.7,1.9-9.2,6.3c-0.8,2.4-1.4,5-1.6,7.5
		C825.9,28.8,825.9,31.6,825.7,35z"/>
	<path d="M103.5,36.8c2.3,0.6,4.1,1.6,5.7,3.1c1.5,1.4,2.5,3.1,3.1,5.1c1.8,6.2,3.5,12.4,5.2,18.6c0.3,1.2,0.7,2.3,1,3.5
		c-1,0.2-13.4,0.3-15.9,0.1c-0.6-0.4-0.7-1.1-0.8-1.8c-0.8-3-1.5-6-2.2-9c-0.8-3.3-1.7-6.7-2.6-10c0-0.1,0-0.2-0.1-0.2
		c-0.7-2.3-2.1-3.9-4.6-4.3c-1-0.2-2-0.4-2.9-0.4c-2.6-0.1-5.2,0-7.8,0c-0.3,0-0.6,0-1,0c-0.1,0.3-0.1,0.4-0.1,0.6
		c-0.4,6.7-0.2,13.5-0.2,20.2c0,0.9,0.1,1.9,0.2,2.8c0,0.6,0,1.3,0,1.9c-0.9,0.2-13,0.3-15.1,0.1c0-21.8,0-43.7,0-65.6
		c0.3-0.1,0.6-0.3,0.9-0.3c1.3-0.2,2.6-0.4,3.9-0.5c9.1-0.5,18.2-0.2,27.2-0.2c3.2,0,6.4,0.8,9.4,2c4.7,1.9,7.5,5.3,8.6,10.2
		c0.9,3.7,1,7.5,0.5,11.3c-0.2,1.7-0.7,3.4-1.4,5c-1.5,3.5-4.1,5.7-7.7,6.7C105.7,36.3,104.7,36.6,103.5,36.8z M80.4,30.3
		c0.5,0,0.8,0.1,1.1,0.1c2.6,0,5.2,0,7.8,0c1.7,0,3.3,0,5-0.1c2.8-0.1,4.8-1.7,5.7-4.3c0.8-2.4,0.7-4.8,0.4-7.3
		c-0.1-0.9-0.4-1.8-0.6-2.6c-0.5-1.5-1.5-2.5-3-3.2C95.5,12.2,94,12,92.6,12c-3.1,0-6.2,0-9.3,0c-1,0-1.9,0.1-2.8,0.2
		c-0.1,3.1-0.2,6.1-0.2,9C80.3,24.2,80.4,27.2,80.4,30.3z"/>
	<path d="M931.3,67.4c-5.5,0-10.9,0-16.3,0c-0.4-1.4-0.7-2.7-1.1-4.1c-1.4-5.3-2.7-10.7-4-16c-0.3-1.2-0.8-2.4-1.7-3.4
		c-0.5-0.5-1.1-1-1.7-1.2c-1.5-0.6-3-1-4.6-0.9c-2.5,0-5,0-7.5,0c-0.4,0-0.8,0-1.3,0.1c0,4.3-0.1,8.6-0.1,12.8
		c0,4.2,0.1,8.5,0.1,12.7c-0.9,0.2-13.1,0.3-15,0.1c0-0.2-0.1-0.3-0.1-0.5c0-9.3,0-18.6,0.1-28c0-10.3,0-20.6,0-30.9
		c0-1.7-0.1-3.3-0.2-5c0-0.3,0-0.7,0-1.1c0.7-0.2,1.3-0.4,1.9-0.5c0.9-0.1,1.9-0.2,2.8-0.3c8.9-0.5,17.8-0.1,26.8-0.2
		c2.2,0,4.3,0.5,6.5,0.9c2.1,0.4,4.1,1.2,6,2.3c3.2,1.9,5.1,4.8,6,8.3c0.9,3.5,1.1,7,0.8,10.6c-0.2,2.2-0.6,4.4-1.5,6.5
		c-1.5,3.5-4.1,5.7-7.8,6.7c-1,0.3-2.1,0.5-3.3,0.8c2,0.4,3.5,1.2,4.9,2.3c2.1,1.7,3.6,3.9,4.3,6.6c1.8,6.4,3.5,12.7,5.3,19.1
		C930.7,65.7,931,66.5,931.3,67.4z M892.9,30.4c0.4,0,0.8,0.1,1.1,0.1c2.8,0,5.6-0.1,8.5-0.1c1.4,0,2.9,0.1,4.3-0.1
		c3.6-0.4,5.6-2,6.1-5.7c0.3-2.3,0.3-4.5,0-6.8c-0.4-3.1-1.8-4.7-4.5-5.4c-1.2-0.3-2.5-0.4-3.8-0.5c-3.6-0.1-7.2,0-10.7,0
		c-0.3,0-0.6,0.1-1,0.1C892.9,18.2,892.9,24.2,892.9,30.4z"/>
	<path d="M191.8,67.4c-5.3,0-10.5,0-15.8,0c0.1-0.6,0.2-1.1,0.4-1.5c2.3-7.3,4.6-14.5,6.8-21.7c3.6-11.5,7.2-23.1,10.7-34.6
		c0.4-1.4,0.9-2.9,1.4-4.3c0.5-1.4,1.3-2.6,2.7-3.1c0.6-0.2,1.2-0.3,1.9-0.3c5.1,0,10.2,0,15.3,0c2.3,0,3.7,1.1,4.5,3
		c0.6,1.3,0.9,2.8,1.4,4.2c2.6,8.5,5.3,17,7.9,25.5c2.5,8,4.9,16,7.4,23.9c0.8,2.7,1.7,5.4,2.5,8.1c0.1,0.3,0.1,0.5,0.2,0.7
		c-0.1,0.1-0.1,0.1-0.1,0.1c0,0-0.1,0.1-0.1,0.1c-5,0-10,0-14.9,0c-0.2,0-0.3-0.1-0.5-0.1c-1.6-5.6-3.1-11.2-4.7-16.9
		c-0.2,0-0.5-0.1-0.8-0.1c-6.9,0-13.9,0-20.8,0c-0.1,0-0.2,0-0.5,0.1C195,56,193.4,61.6,191.8,67.4z M199.8,38.8
		c5.2,0,10.4,0,15.6,0c-2.3-8.6-5-17-6.8-25.5c-1.1-0.4-1.1-0.4-2,0c-0.2,1.3-0.4,2.6-0.7,3.8c-1.6,5.7-3.2,11.4-4.8,17.1
		C200.7,35.7,200.2,37.2,199.8,38.8z"/>
	<path d="M646,67.4c-5.3,0-10.5,0-15.8,0c0-0.3,0.1-0.5,0.1-0.7c1.9-6.2,3.9-12.5,5.8-18.7c3.6-11.6,7.2-23.1,10.8-34.7
		c0.8-2.6,1.6-5.1,2.4-7.7c0.3-0.9,0.7-1.9,1.4-2.6c0.9-0.8,1.9-1.3,3.2-1.3c5.1,0,10.2,0,15.3,0c2.1,0,3.5,0.9,4.4,2.7
		c0.3,0.6,0.5,1.2,0.7,1.9c2.5,7.9,4.9,15.8,7.3,23.7c2.4,7.8,4.8,15.7,7.2,23.5c1.4,4.4,2.8,8.8,4.1,13.3c0,0.1,0.1,0.3,0.1,0.5
		c-0.8,0.3-11.7,0.4-15.6,0.2c-0.1-0.2-0.3-0.5-0.4-0.8c-1.3-4.7-2.6-9.5-3.9-14.2c-0.2-0.7-0.4-1.3-0.6-1.9
		c-1-0.2-19.7-0.3-21.8-0.1c-0.5,0.3-0.6,0.8-0.8,1.3c-1.2,4.6-2.5,9.2-3.8,13.7C646.4,66,646.2,66.7,646,67.4z M669.6,38.8
		c-2.2-8.6-5-17-6.8-25.6c-0.8-0.2-1.4-0.4-1.9,0c-1.9,8.8-4.7,17.1-6.8,25.7C659.2,38.8,664.4,38.8,669.6,38.8z"/>
	<path d="M142,28.1c8.9,0,17.6,0,26.4,0c0.1,0,0.1,0.1,0.3,0.2c0,3.3,0,6.7,0,10c0,0.1-0.1,0.3-0.2,0.4c-8.7,0-17.3,0-26,0
		c-0.2,0-0.3,0.1-0.5,0.2c0,0.1-0.1,0.3-0.1,0.5c0,3.4,0,6.8,0,10.2c0,0.9,0,1.9,0.2,2.8c0.2,2.1,1.7,3.4,3.8,3.6c0.4,0,0.7,0,1.1,0
		c7.8,0,15.6,0,23.4,0c0.5,0,0.9,0,1.5,0c0.1,0.6,0.3,1,0.3,1.5c0.1,1.4,0.2,2.8,0.3,4.2c0.1,1.7,0.2,3.5,0.3,5.3
		c-0.5,0.1-0.9,0.2-1.4,0.2c-2.8,0.1-5.6,0.2-8.4,0.3c-1.5,0.1-3,0.2-4.5,0.3c-1.6,0.1-3.2,0-4.8,0c-0.5,0-1,0-1.6,0
		c-3.7,0-7.3,0.1-11,0.1c-2,0-4-0.1-5.9-0.8c-4.6-1.7-7.6-4.9-8.4-9.8c-0.3-1.5-0.3-3.2-0.3-4.7c0-9.9,0-19.8,0-29.6
		c0-3.2-0.1-6.4,0.1-9.5c0.2-3.3,1.3-6.2,3.8-8.5c2.2-2.1,4.9-3.3,7.9-3.5c1.7-0.1,3.5,0,5.2,0c3.5,0,7,0.1,10.5,0
		c2.7-0.1,5.3,0.1,8,0.3c2.1,0.1,4.2,0,6.3,0.1c1.3,0,2.5,0.2,3.8,0.3c0.1,0,0.3,0.1,0.6,0.2c-0.1,3.2-0.3,6.5-0.5,9.7
		c0,0.4-0.2,0.7-0.4,1.2c-0.6,0-1.1,0-1.6,0c-8,0-16,0-24,0c-2.1,0-3.6,1.2-4,2.8c-0.2,0.7-0.3,1.6-0.3,2.3c0,2.5,0,4.9,0,7.4
		C142,26.4,142,27.1,142,28.1z"/>
	<path d="M452.7,2.2c-0.3,3.7-0.6,7.2-0.9,10.9c-0.7,0-1.3,0-1.9,0c-7.8,0-15.6,0-23.4,0c-0.4,0-0.9,0-1.3,0.1
		c-1.3,0.3-2.3,0.9-2.8,2.2c-0.4,0.9-0.7,1.8-0.7,2.7c-0.1,3.1-0.1,6.2-0.1,9.3c0,0.2,0.1,0.4,0.1,0.7c3,0,5.9,0,8.8,0
		c2.9,0,5.9,0,8.8,0c2.9,0,5.9,0,8.9,0c0.2,3.6,0.1,7,0,10.6c-1.8,0-3.6,0-5.3,0c-1.8,0-3.6,0-5.4,0c-1.8,0-3.5,0-5.3,0
		c-1.8,0-3.6,0-5.4,0c-1.7,0-3.5,0-5.3,0c0,0.4-0.1,0.7-0.1,1.1c0,3,0,6,0,9c0,1.3,0.1,2.6,0.4,3.9c0.5,2.4,2.3,3.4,4.4,3.4
		c7.9,0,15.9,0,23.8,0c0.5,0,1,0,1.6,0c0.3,3.7,0.6,7.2,0.9,10.9c-0.5,0.1-0.9,0.2-1.4,0.2c-2.1,0.1-4.1,0.3-6.2,0.3
		c-2.6,0-5.1,0.1-7.6,0.4c-0.7,0.1-1.5,0-2.3,0c-4.1,0-8.1,0-12.2,0c-2.6,0-5.2,0.2-7.7-0.7c-4.4-1.5-7.3-4.5-8.5-9
		c-0.3-0.9-0.3-2-0.3-2.9c0-2.1,0-4.1,0-6.2c0-11,0-21.9,0-32.9c0-1.7,0-3.4,0.4-5.1c1.2-5,4.5-8,9.4-9.3c2.1-0.5,4.2-0.5,6.3-0.5
		c1.6,0,3.3,0.1,4.9,0.1c2.9,0,5.9-0.1,8.8-0.1c1.3,0,2.6,0.1,3.9,0.2c1.7,0.1,3.3,0.1,5,0.2c2.2,0.1,4.4,0.2,6.6,0.3
		C452.1,2,452.4,2.1,452.7,2.2z"/>
	<path d="M503.6,28.1c0,3.6,0,7,0,10.6c-8.8,0-17.6,0-26.5,0c0,0.4-0.1,0.7-0.1,1c0,2.9,0.1,5.9,0.1,8.8c0,1.2,0,2.4,0,3.6
		c0.2,2.6,2,4,4.5,4c8,0,16.1,0,24.1,0c0.4,0,0.9,0,1.4,0c0.2,1.9,0.3,3.7,0.4,5.5c0.1,1.8,0.2,3.6,0.3,5.5
		c-0.4,0.1-0.7,0.2-0.9,0.2c-2.2,0.1-4.5,0.2-6.7,0.3c-2.4,0-4.9,0.1-7.3,0.4c-0.7,0.1-1.5,0-2.3,0c-4.1,0-8.2,0-12.3,0
		c-2.6,0-5.2,0.2-7.7-0.7c-4.3-1.4-7.2-4.2-8.4-8.5c-0.7-2.6-0.8-5.3-0.6-8c0-0.5,0.1-1,0.1-1.5c0-10.2,0-20.4,0-30.6
		c0-0.6-0.1-1.1-0.1-1.7c-0.1-2.8,0-5.6,1.2-8.1c1.7-3.7,4.6-6,8.6-7c2.1-0.5,4.3-0.5,6.4-0.4c0.7,0,1.4,0.1,2,0.1
		c3.7,0,7.4-0.1,11.1-0.1c1.8,0,3.7,0.2,5.5,0.3c1,0.1,2,0.1,3,0.1c2.5,0.1,5,0.2,7.5,0.3c0.2,0,0.5,0.1,0.7,0.1
		c0.2,1.3-0.2,10-0.6,11c-0.5,0-1,0-1.5,0c-7.9,0-15.8,0-23.7,0c-0.5,0-1,0-1.4,0.1c-1.8,0.4-3,1.6-3.3,3.4
		c-0.1,0.5-0.1,1.1-0.2,1.7c0,3.1-0.1,6.1-0.1,9.2c0,0.2,0,0.3,0,0.5c0.5,0.4,1,0.2,1.5,0.2c3.6,0,7.3,0,10.9,0c4.3,0,8.6,0,12.9,0
		C502.7,28.1,503,28.1,503.6,28.1z"/>
	<path d="M745.3,55.1c0.4,3.8,0.9,7.4,1.3,11.1c-1.7,0.4-3.3,0.9-5,1.3c-1.6,0.3-3.3,0.6-4.9,0.8c-0.7,0.1-1.3,0.1-2,0.2
		c-1.7,0.1-3.5,0.3-5.2,0.3c-2.4,0.1-4.9,0-7.3,0c-1.4,0-2.7-0.2-4-0.3c-4.8-0.6-9.3-1.9-13-5c-2.6-2.2-4.4-5.1-5.7-8.3
		c-1-2.6-1.6-5.4-2.1-8.2c-0.5-3.1-0.7-6.3-0.7-9.5c0-2.1,0-4.1,0-6.2c-0.1-3.6,0.4-7.2,1-10.7c0.5-2.7,1.2-5.2,2.3-7.7
		c2.4-5.5,6.6-9.1,12.4-10.8c2.3-0.7,4.6-1.1,7-1.3c2.6-0.2,5.2-0.4,7.7-0.3c1.6,0.1,3.3,0.2,4.9,0.3c0.5,0,1,0.1,1.4,0.1
		c2.4-0.1,4.8,0.3,7.2,0.8c1.4,0.3,2.9,0.5,4.2,1.2c0.3,0.8-0.5,8.1-1,11.1c-0.4,0-0.8,0-1.2,0c-4.3-0.4-8.6-0.8-13-0.7
		c-1.5,0-2.9,0-4.4,0c-1.9,0-3.8,0.4-5.6,1c-2.6,0.9-4.1,2.8-5,5.2c-0.9,2.4-1.4,4.9-1.5,7.5c-0.1,1.8-0.3,3.6-0.4,5.5
		c0,1.7,0,3.5,0.1,5.2c0.1,1.5,0.2,3,0.3,4.5c0.1,2.3,0.5,4.6,1.2,6.9c0.2,0.6,0.4,1.1,0.7,1.7c1.1,2.4,3,3.9,5.5,4.6
		c1.7,0.5,3.4,0.8,5.2,0.7c1.9,0,3.8,0,5.7,0c1.9-0.1,3.9-0.2,5.8-0.4c1.1-0.1,2.1-0.2,3.2-0.3c1.3-0.1,2.6-0.2,3.9-0.3
		C744.5,55,744.8,55.1,745.3,55.1z"/>
	<path d="M368.9,29.3c8.6,0,17,0,25.4,0c0.2,0.9,0.3,8.5,0.1,10.3c0,0-0.1,0.1-0.1,0.1c0,0-0.1,0.1-0.1,0.1c0,0-0.1,0-0.1,0
		c-0.1,0-0.2,0-0.2,0c-0.1,0-0.2,0-0.2,0c-8.2,0-16.3,0-24.5,0c-0.1,0-0.2,0-0.2,0c0,0-0.1,0-0.2,0.1c0,4.5,0,9.1,0,13.7
		c0,4.5,0.1,9.1,0.1,13.7c-5.1,0-10.2,0-15.4,0c0-0.4-0.1-0.8-0.1-1.1c0-16.8,0-33.6,0-50.3c0-1.7,0.1-3.3,0.5-4.9
		c1.3-5,4.7-8,9.6-9.2c2-0.5,4-0.5,6.1-0.4c1.2,0,2.5,0.1,3.7,0.1c2.7,0,5.5-0.1,8.2-0.1c2,0,4,0.2,6,0.3c0.6,0,1.3,0.1,1.9,0.1
		c2.4,0.1,4.9,0.2,7.3,0.3c0.7,0,1.4,0.1,2.1,0.6c-0.2,3.5-0.4,6.9-0.6,10.4c-0.6,0.4-1.1,0.2-1.6,0.2c-7.6,0-15.1,0-22.7,0
		c-0.9,0-1.7,0.2-2.4,0.5c-1.5,0.6-2.4,1.8-2.5,3.4c-0.1,3-0.1,6-0.1,9c0,0.7,0,1.3,0,2C368.9,28.4,368.9,28.8,368.9,29.3z"/>
	<path d="M632.8,2.4c-0.2,3.6-0.3,7.1-0.9,10.7c-0.5,0-1,0-1.5,0c-7.5,0-15.1,0-22.6,0c-1,0-2,0.2-2.9,0.7c-1.2,0.6-1.8,1.6-2,2.9
		c-0.1,0.5-0.1,1-0.1,1.4c0,3.5,0,7,0,10.5c0,0.2,0,0.4,0,0.7c1.7,0.1,3.4,0,5,0c1.7,0,3.4,0,5.1,0c1.7,0,3.3,0,5,0
		c1.7,0,3.4,0,5.1,0c1.7,0,3.3,0,5.1,0c0,0.4,0.1,0.7,0.1,1c-0.2,2.4-0.3,4.7,0,7.1c0.1,0.7,0,1.5,0,2.3c-8.5,0-17,0-25.5,0
		c0,9.2,0,18.3,0,27.4c-0.9,0.3-12.7,0.4-15.4,0.1c0-0.2-0.1-0.5-0.1-0.8c0-15.9,0.1-31.8,0.1-47.7c0-1.5-0.1-3.1-0.1-4.6
		c0-2.8,0.7-5.3,2.4-7.6c2.3-3.1,5.5-4.9,9.4-5.2c1.9-0.2,3.9-0.1,5.8-0.1c3.3,0,6.5,0,9.8,0c2.1-0.1,4.2,0.1,6.3,0.3
		c2.2,0.2,4.5,0,6.7,0.1c1.5,0.1,2.9,0.3,4.4,0.4C632.5,2.2,632.6,2.3,632.8,2.4z"/>
	<path d="M974.7,1.8c5.4,0,10.7,0,16,0c-0.1,0.3-0.2,0.6-0.3,0.8c-4.6,9.2-9.2,18.4-13.7,27.6c-2.4,4.7-4.7,9.5-7.1,14.1
		c-0.7,1.5-0.8,2.9-0.8,4.5c0,1.9,0,3.7,0,5.6c0,0.8,0.1,1.6,0.1,2.4c0,3.3,0,6.7,0,10c0,0.2,0,0.4,0,0.6c-5.1,0-10.1,0-15.2,0
		c0-0.3-0.1-0.5-0.1-0.7c0-6,0-12,0.1-18c0-2-0.5-3.8-1.4-5.6c-3.6-7.1-7.1-14.2-10.6-21.3c-3.2-6.3-6.4-12.7-9.6-19
		c-0.1-0.3-0.3-0.6-0.5-0.9c1.1-0.3,2.2-0.1,3.2-0.1c1,0,2.1,0,3.1,0c1.1,0,2.2,0,3.2,0c1,0,2.1,0,3.1,0c1.1,0,2.1,0,3.3,0
		c0.3,0.6,0.6,1.1,0.9,1.7c3.4,7.4,6.8,14.8,10.2,22.3c1.1,2.4,1.7,4.9,2.3,7.5c0.1,0.3,0.2,0.6,0.3,1c0.2-0.3,0.3-0.5,0.4-0.7
		c0.3-1.3,0.7-2.5,1-3.8c0.6-2.4,1.6-4.6,2.6-6.8c2.9-6.3,5.8-12.6,8.6-18.9C974,3.3,974.3,2.5,974.7,1.8z"/>
	<path d="M785.2,13.1c-0.2,18.1-0.1,36.1,0,54.1c-0.9,0.2-13.9,0.2-15.1,0c0-18,0-36,0-53.9c-0.1-0.1-0.1-0.1-0.1-0.1
		c0,0-0.1,0-0.1-0.1c-0.1,0-0.2,0-0.4,0c-6.4,0-12.7,0-19.1,0c0,0-0.1,0-0.2-0.1c-0.2-1.8,0.1-3.7,0-5.6c-0.1-1.9-0.1-3.7-0.1-5.5
		c1-0.2,53.4-0.3,55.1-0.1c0.2,3.7,0,7.4,0.1,11.1c-0.4,0.4-0.9,0.2-1.3,0.2c-5.8,0-11.6,0-17.3,0C786.2,13.1,785.8,13.1,785.2,13.1
		z"/>
	<path d="M561.1,55.8c0.3,3.7,0.6,7.2,0.8,10.8c-0.9,0.4-1.6,0.5-2.4,0.5c-2.2,0.1-4.5,0.2-6.7,0.3c-1.5,0.1-3,0.2-4.5,0.3
		c-1.4,0.1-2.8,0-4.2,0c-0.6,0-1.2-0.1-1.8-0.1c-3.3,0-6.5,0.1-9.8,0.1c-1.6,0-3.2-0.1-4.7-0.4c-4.4-0.8-7.4-3.4-9.2-7.5
		c-1-2.4-1.1-4.8-1.1-7.3c0-9.8,0.1-19.7,0.1-29.5c0-4.8,0-9.5,0-14.3c0-2.2,0-4.4-0.1-6.5c0-0.2,0-0.3,0.1-0.5c5,0,10,0,15.2,0
		c0,0.3,0.1,0.6,0.1,0.9c0,1.2-0.1,2.5-0.1,3.7c0,13.7,0,27.4,0,41.1c0,1.6,0.2,3.2,0.4,4.8c0.2,1.8,1.8,2.9,3.3,3.1
		c1.7,0.2,3.5,0.4,5.2,0.4c5.8,0,11.6,0,17.4,0C559.7,55.7,560.4,55.5,561.1,55.8z"/>
</g>
</svg>
